solid OpenSCAD_Model
  facet normal 1 -0 0
    outer loop
      vertex 76 190 -178
      vertex 76 199 -196
      vertex 76 199 -178
    endloop
  endfacet
  facet normal 1 0 0
    outer loop
      vertex 76 199 -196
      vertex 76 190 -178
      vertex 76 190 -196
    endloop
  endfacet
  facet normal 0 0 1
    outer loop
      vertex 76 199 -178
      vertex 74.8 194.48 -178
      vertex 76 190 -178
    endloop
  endfacet
  facet normal 0 0 1
    outer loop
      vertex 76 199 -178
      vertex 72.9 197.771 -178
      vertex 74.8 194.48 -178
    endloop
  endfacet
  facet normal 0 0 1
    outer loop
      vertex 76 199 -178
      vertex 69.1 197.771 -178
      vertex 72.9 197.771 -178
    endloop
  endfacet
  facet normal 0 0 1
    outer loop
      vertex 69.1 197.771 -178
      vertex 62.8 194.48 -178
      vertex 67.2 194.48 -178
    endloop
  endfacet
  facet normal 0 0 1
    outer loop
      vertex 69.1 197.771 -178
      vertex 60.9 197.771 -178
      vertex 62.8 194.48 -178
    endloop
  endfacet
  facet normal 0 0 1
    outer loop
      vertex 76 199 -178
      vertex 60.9 197.771 -178
      vertex 69.1 197.771 -178
    endloop
  endfacet
  facet normal -0 0 1
    outer loop
      vertex 54 199 -178
      vertex 60.9 197.771 -178
      vertex 76 199 -178
    endloop
  endfacet
  facet normal 0 0 1
    outer loop
      vertex 57.1 197.771 -178
      vertex 54 199 -178
      vertex 55.2 194.48 -178
    endloop
  endfacet
  facet normal 0 0 1
    outer loop
      vertex 60.9 197.771 -178
      vertex 54 199 -178
      vertex 57.1 197.771 -178
    endloop
  endfacet
  facet normal -0 0 1
    outer loop
      vertex 72.9 191.189 -178
      vertex 76 190 -178
      vertex 74.8 194.48 -178
    endloop
  endfacet
  facet normal -0 0 1
    outer loop
      vertex 69.1 191.189 -178
      vertex 76 190 -178
      vertex 72.9 191.189 -178
    endloop
  endfacet
  facet normal -0 0 1
    outer loop
      vertex 62.8 194.48 -178
      vertex 69.1 191.189 -178
      vertex 67.2 194.48 -178
    endloop
  endfacet
  facet normal 0 0 1
    outer loop
      vertex 60.9 191.189 -178
      vertex 69.1 191.189 -178
      vertex 62.8 194.48 -178
    endloop
  endfacet
  facet normal -0 0 1
    outer loop
      vertex 60.9 191.189 -178
      vertex 76 190 -178
      vertex 69.1 191.189 -178
    endloop
  endfacet
  facet normal 0 0 1
    outer loop
      vertex 54 190 -178
      vertex 60.9 191.189 -178
      vertex 57.1 191.189 -178
    endloop
  endfacet
  facet normal 0 0 1
    outer loop
      vertex 60.9 191.189 -178
      vertex 54 190 -178
      vertex 76 190 -178
    endloop
  endfacet
  facet normal 0 0 1
    outer loop
      vertex 55.2 194.48 -178
      vertex 54 190 -178
      vertex 57.1 191.189 -178
    endloop
  endfacet
  facet normal 0 0 1
    outer loop
      vertex 54 190 -178
      vertex 55.2 194.48 -178
      vertex 54 199 -178
    endloop
  endfacet
  facet normal -1 0 0
    outer loop
      vertex 54 190 -196
      vertex 54 199 -178
      vertex 54 199 -196
    endloop
  endfacet
  facet normal -1 -0 0
    outer loop
      vertex 54 199 -178
      vertex 54 190 -196
      vertex 54 190 -178
    endloop
  endfacet
  facet normal 0 0 -1
    outer loop
      vertex 76 190 -196
      vertex 74.8 194.48 -196
      vertex 76 199 -196
    endloop
  endfacet
  facet normal 0 0 -1
    outer loop
      vertex 76 190 -196
      vertex 72.9 191.189 -196
      vertex 74.8 194.48 -196
    endloop
  endfacet
  facet normal 0 0 -1
    outer loop
      vertex 76 190 -196
      vertex 69.1 191.189 -196
      vertex 72.9 191.189 -196
    endloop
  endfacet
  facet normal 0 0 -1
    outer loop
      vertex 69.1 191.189 -196
      vertex 62.8 194.48 -196
      vertex 67.2 194.48 -196
    endloop
  endfacet
  facet normal 0 0 -1
    outer loop
      vertex 69.1 191.189 -196
      vertex 60.9 191.189 -196
      vertex 62.8 194.48 -196
    endloop
  endfacet
  facet normal 0 0 -1
    outer loop
      vertex 76 190 -196
      vertex 60.9 191.189 -196
      vertex 69.1 191.189 -196
    endloop
  endfacet
  facet normal 0 0 -1
    outer loop
      vertex 54 190 -196
      vertex 60.9 191.189 -196
      vertex 76 190 -196
    endloop
  endfacet
  facet normal -0 0 -1
    outer loop
      vertex 57.1 191.189 -196
      vertex 54 190 -196
      vertex 55.2 194.48 -196
    endloop
  endfacet
  facet normal -0 0 -1
    outer loop
      vertex 60.9 191.189 -196
      vertex 54 190 -196
      vertex 57.1 191.189 -196
    endloop
  endfacet
  facet normal 0 0 -1
    outer loop
      vertex 72.9 197.771 -196
      vertex 76 199 -196
      vertex 74.8 194.48 -196
    endloop
  endfacet
  facet normal 0 0 -1
    outer loop
      vertex 69.1 197.771 -196
      vertex 76 199 -196
      vertex 72.9 197.771 -196
    endloop
  endfacet
  facet normal 0 0 -1
    outer loop
      vertex 62.8 194.48 -196
      vertex 69.1 197.771 -196
      vertex 67.2 194.48 -196
    endloop
  endfacet
  facet normal 0 0 -1
    outer loop
      vertex 60.9 197.771 -196
      vertex 69.1 197.771 -196
      vertex 62.8 194.48 -196
    endloop
  endfacet
  facet normal 0 0 -1
    outer loop
      vertex 60.9 197.771 -196
      vertex 76 199 -196
      vertex 69.1 197.771 -196
    endloop
  endfacet
  facet normal 0 0 -1
    outer loop
      vertex 54 199 -196
      vertex 60.9 197.771 -196
      vertex 57.1 197.771 -196
    endloop
  endfacet
  facet normal 0 0 -1
    outer loop
      vertex 60.9 197.771 -196
      vertex 54 199 -196
      vertex 76 199 -196
    endloop
  endfacet
  facet normal 0 0 -1
    outer loop
      vertex 55.2 194.48 -196
      vertex 54 199 -196
      vertex 57.1 197.771 -196
    endloop
  endfacet
  facet normal 0 0 -1
    outer loop
      vertex 54 199 -196
      vertex 55.2 194.48 -196
      vertex 54 190 -196
    endloop
  endfacet
  facet normal 0 -1 0
    outer loop
      vertex 54 190 -196
      vertex 76 190 -178
      vertex 54 190 -178
    endloop
  endfacet
  facet normal 0 -1 -0
    outer loop
      vertex 76 190 -178
      vertex 54 190 -196
      vertex 76 190 -196
    endloop
  endfacet
  facet normal 0 1 -0
    outer loop
      vertex 76 199 -196
      vertex 54 199 -178
      vertex 76 199 -178
    endloop
  endfacet
  facet normal 0 1 0
    outer loop
      vertex 54 199 -178
      vertex 76 199 -196
      vertex 54 199 -196
    endloop
  endfacet
  facet normal 0.866026 -0.499999 0
    outer loop
      vertex 67.2 194.48 -178
      vertex 69.1 197.771 -196
      vertex 69.1 197.771 -178
    endloop
  endfacet
  facet normal 0.866026 -0.499999 0
    outer loop
      vertex 69.1 197.771 -196
      vertex 67.2 194.48 -178
      vertex 67.2 194.48 -196
    endloop
  endfacet
  facet normal -0.866026 -0.499999 0
    outer loop
      vertex 74.8 194.48 -196
      vertex 72.9 197.771 -178
      vertex 72.9 197.771 -196
    endloop
  endfacet
  facet normal -0.866026 -0.499999 0
    outer loop
      vertex 72.9 197.771 -178
      vertex 74.8 194.48 -196
      vertex 74.8 194.48 -178
    endloop
  endfacet
  facet normal 0 -1 0
    outer loop
      vertex 69.1 197.771 -196
      vertex 72.9 197.771 -178
      vertex 69.1 197.771 -178
    endloop
  endfacet
  facet normal 0 -1 -0
    outer loop
      vertex 72.9 197.771 -178
      vertex 69.1 197.771 -196
      vertex 72.9 197.771 -196
    endloop
  endfacet
  facet normal -0.866025 0.500001 0
    outer loop
      vertex 72.9 191.189 -196
      vertex 74.8 194.48 -178
      vertex 74.8 194.48 -196
    endloop
  endfacet
  facet normal -0.866025 0.500001 0
    outer loop
      vertex 74.8 194.48 -178
      vertex 72.9 191.189 -196
      vertex 72.9 191.189 -178
    endloop
  endfacet
  facet normal 0.866025 0.500001 0
    outer loop
      vertex 69.1 191.189 -178
      vertex 67.2 194.48 -196
      vertex 67.2 194.48 -178
    endloop
  endfacet
  facet normal 0.866025 0.500001 0
    outer loop
      vertex 67.2 194.48 -196
      vertex 69.1 191.189 -178
      vertex 69.1 191.189 -196
    endloop
  endfacet
  facet normal 0 1 -0
    outer loop
      vertex 72.9 191.189 -196
      vertex 69.1 191.189 -178
      vertex 72.9 191.189 -178
    endloop
  endfacet
  facet normal 0 1 0
    outer loop
      vertex 69.1 191.189 -178
      vertex 72.9 191.189 -196
      vertex 69.1 191.189 -196
    endloop
  endfacet
  facet normal 0.866026 -0.499998 0
    outer loop
      vertex 55.2 194.48 -178
      vertex 57.1 197.771 -196
      vertex 57.1 197.771 -178
    endloop
  endfacet
  facet normal 0.866026 -0.499998 0
    outer loop
      vertex 57.1 197.771 -196
      vertex 55.2 194.48 -178
      vertex 55.2 194.48 -196
    endloop
  endfacet
  facet normal -0.866026 -0.499998 0
    outer loop
      vertex 62.8 194.48 -196
      vertex 60.9 197.771 -178
      vertex 60.9 197.771 -196
    endloop
  endfacet
  facet normal -0.866026 -0.499998 0
    outer loop
      vertex 60.9 197.771 -178
      vertex 62.8 194.48 -196
      vertex 62.8 194.48 -178
    endloop
  endfacet
  facet normal 0 -1 0
    outer loop
      vertex 57.1 197.771 -196
      vertex 60.9 197.771 -178
      vertex 57.1 197.771 -178
    endloop
  endfacet
  facet normal 0 -1 -0
    outer loop
      vertex 60.9 197.771 -178
      vertex 57.1 197.771 -196
      vertex 60.9 197.771 -196
    endloop
  endfacet
  facet normal 0.866025 0.5 0
    outer loop
      vertex 57.1 191.189 -178
      vertex 55.2 194.48 -196
      vertex 55.2 194.48 -178
    endloop
  endfacet
  facet normal 0.866025 0.5 0
    outer loop
      vertex 55.2 194.48 -196
      vertex 57.1 191.189 -178
      vertex 57.1 191.189 -196
    endloop
  endfacet
  facet normal 0 1 -0
    outer loop
      vertex 60.9 191.189 -196
      vertex 57.1 191.189 -178
      vertex 60.9 191.189 -178
    endloop
  endfacet
  facet normal 0 1 0
    outer loop
      vertex 57.1 191.189 -178
      vertex 60.9 191.189 -196
      vertex 57.1 191.189 -196
    endloop
  endfacet
  facet normal -0.866025 0.5 0
    outer loop
      vertex 60.9 191.189 -196
      vertex 62.8 194.48 -178
      vertex 62.8 194.48 -196
    endloop
  endfacet
  facet normal -0.866025 0.5 0
    outer loop
      vertex 62.8 194.48 -178
      vertex 60.9 191.189 -196
      vertex 60.9 191.189 -178
    endloop
  endfacet
endsolid OpenSCAD_Model
