solid OpenSCAD_Model
  facet normal -0.980785 0 0.19509
    outer loop
      vertex 36 49 -24
      vertex 36.4567 56 -21.7039
      vertex 36 56 -24
    endloop
  endfacet
  facet normal -0.980785 0 0.19509
    outer loop
      vertex 36.4567 56 -21.7039
      vertex 36 49 -24
      vertex 36.4567 49 -21.7039
    endloop
  endfacet
  facet normal -0.83147 0 0.55557
    outer loop
      vertex 36.4567 49 -21.7039
      vertex 37.7574 56 -19.7574
      vertex 36.4567 56 -21.7039
    endloop
  endfacet
  facet normal -0.83147 0 0.55557
    outer loop
      vertex 37.7574 56 -19.7574
      vertex 36.4567 49 -21.7039
      vertex 37.7574 49 -19.7574
    endloop
  endfacet
  facet normal 1 -0 0
    outer loop
      vertex 49.5 49 -51
      vertex 49.5 56 -54
      vertex 49.5 56 -51
    endloop
  endfacet
  facet normal 1 0 0
    outer loop
      vertex 49.5 56 -54
      vertex 49.5 49 -51
      vertex 49.5 49 -54
    endloop
  endfacet
  facet normal 0 1 0
    outer loop
      vertex 42 56 -22.5
      vertex 42 56 -18
      vertex 44.2961 56 -18.4567
    endloop
  endfacet
  facet normal 0 1 0
    outer loop
      vertex 42.574 56 -22.6142
      vertex 44.2961 56 -18.4567
      vertex 46.2426 56 -19.7574
    endloop
  endfacet
  facet normal 0 1 0
    outer loop
      vertex 42 56 -18
      vertex 42 56 -22.5
      vertex 39.7039 56 -18.4567
    endloop
  endfacet
  facet normal 0 1 0
    outer loop
      vertex 43.0607 56 -22.9393
      vertex 46.2426 56 -19.7574
      vertex 47.5433 56 -21.7039
    endloop
  endfacet
  facet normal 0 1 -0
    outer loop
      vertex 41.426 56 -22.6142
      vertex 39.7039 56 -18.4567
      vertex 42 56 -22.5
    endloop
  endfacet
  facet normal 0 1 0
    outer loop
      vertex 39.7039 56 -18.4567
      vertex 41.426 56 -22.6142
      vertex 37.7574 56 -19.7574
    endloop
  endfacet
  facet normal 0 1 0
    outer loop
      vertex 44.2961 56 -18.4567
      vertex 42.574 56 -22.6142
      vertex 42 56 -22.5
    endloop
  endfacet
  facet normal 0 1 0
    outer loop
      vertex 46.2426 56 -19.7574
      vertex 43.0607 56 -22.9393
      vertex 42.574 56 -22.6142
    endloop
  endfacet
  facet normal 0 1 0
    outer loop
      vertex 47.5433 56 -21.7039
      vertex 43.3858 56 -23.426
      vertex 43.0607 56 -22.9393
    endloop
  endfacet
  facet normal 0 1 0
    outer loop
      vertex 48 56 -24
      vertex 43.3858 56 -23.426
      vertex 47.5433 56 -21.7039
    endloop
  endfacet
  facet normal 0 1 0
    outer loop
      vertex 48 56 -24
      vertex 43.5 56 -24
      vertex 43.3858 56 -23.426
    endloop
  endfacet
  facet normal 0 1 0
    outer loop
      vertex 48 56 -24
      vertex 43.3858 56 -24.574
      vertex 43.5 56 -24
    endloop
  endfacet
  facet normal 0 1 0
    outer loop
      vertex 48 56 -24
      vertex 43.0607 56 -25.0607
      vertex 43.3858 56 -24.574
    endloop
  endfacet
  facet normal 0 1 0
    outer loop
      vertex 48 56 -24
      vertex 42.574 56 -25.3858
      vertex 43.0607 56 -25.0607
    endloop
  endfacet
  facet normal 0 1 0
    outer loop
      vertex 42.574 56 -25.3858
      vertex 49.5 56 -51
      vertex 42 56 -25.5
    endloop
  endfacet
  facet normal 0 1 0
    outer loop
      vertex 49.5 56 -51
      vertex 42.574 56 -25.3858
      vertex 48 56 -24
    endloop
  endfacet
  facet normal 0 1 -0
    outer loop
      vertex 40.9393 56 -22.9393
      vertex 37.7574 56 -19.7574
      vertex 41.426 56 -22.6142
    endloop
  endfacet
  facet normal 0 1 0
    outer loop
      vertex 37.7574 56 -19.7574
      vertex 40.9393 56 -22.9393
      vertex 36.4567 56 -21.7039
    endloop
  endfacet
  facet normal 0 1 -0
    outer loop
      vertex 40.6142 56 -23.426
      vertex 36.4567 56 -21.7039
      vertex 40.9393 56 -22.9393
    endloop
  endfacet
  facet normal 0 1 -0
    outer loop
      vertex 40.5 56 -24
      vertex 36.4567 56 -21.7039
      vertex 40.6142 56 -23.426
    endloop
  endfacet
  facet normal 0 1 0
    outer loop
      vertex 40.5 56 -24
      vertex 36 56 -24
      vertex 36.4567 56 -21.7039
    endloop
  endfacet
  facet normal 0 1 0
    outer loop
      vertex 40.6142 56 -24.574
      vertex 36 56 -24
      vertex 40.5 56 -24
    endloop
  endfacet
  facet normal 0 1 0
    outer loop
      vertex 40.9393 56 -25.0607
      vertex 36 56 -24
      vertex 40.6142 56 -24.574
    endloop
  endfacet
  facet normal 0 1 0
    outer loop
      vertex 41.426 56 -25.3858
      vertex 36 56 -24
      vertex 40.9393 56 -25.0607
    endloop
  endfacet
  facet normal 0 1 0
    outer loop
      vertex 34.5 56 -51
      vertex 42 56 -25.5
      vertex 49.5 56 -51
    endloop
  endfacet
  facet normal 0 1 0
    outer loop
      vertex 42 56 -25.5
      vertex 34.5 56 -51
      vertex 41.426 56 -25.3858
    endloop
  endfacet
  facet normal 0 1 0
    outer loop
      vertex 41.426 56 -25.3858
      vertex 34.5 56 -51
      vertex 36 56 -24
    endloop
  endfacet
  facet normal 0 1 -0
    outer loop
      vertex 49.5 56 -54
      vertex 34.5 56 -51
      vertex 49.5 56 -51
    endloop
  endfacet
  facet normal 0 1 0
    outer loop
      vertex 34.5 56 -51
      vertex 49.5 56 -54
      vertex 34.5 56 -54
    endloop
  endfacet
  facet normal 0.83147 -0 0.55557
    outer loop
      vertex 46.2426 49 -19.7574
      vertex 47.5433 56 -21.7039
      vertex 46.2426 56 -19.7574
    endloop
  endfacet
  facet normal 0.83147 0 0.55557
    outer loop
      vertex 47.5433 56 -21.7039
      vertex 46.2426 49 -19.7574
      vertex 47.5433 49 -21.7039
    endloop
  endfacet
  facet normal 0 0 -1
    outer loop
      vertex 49.5 49 -54
      vertex 43.5 52.5 -54
      vertex 49.5 56 -54
    endloop
  endfacet
  facet normal 0 0 -1
    outer loop
      vertex 49.5 49 -54
      vertex 43.3858 51.926 -54
      vertex 43.5 52.5 -54
    endloop
  endfacet
  facet normal 0 0 -1
    outer loop
      vertex 49.5 49 -54
      vertex 43.0607 51.4393 -54
      vertex 43.3858 51.926 -54
    endloop
  endfacet
  facet normal 0 0 -1
    outer loop
      vertex 49.5 49 -54
      vertex 42.574 51.1142 -54
      vertex 43.0607 51.4393 -54
    endloop
  endfacet
  facet normal 0 0 -1
    outer loop
      vertex 49.5 49 -54
      vertex 42 51 -54
      vertex 42.574 51.1142 -54
    endloop
  endfacet
  facet normal 0 0 -1
    outer loop
      vertex 34.5 49 -54
      vertex 42 51 -54
      vertex 49.5 49 -54
    endloop
  endfacet
  facet normal -0 0 -1
    outer loop
      vertex 40.6142 51.926 -54
      vertex 34.5 49 -54
      vertex 40.5 52.5 -54
    endloop
  endfacet
  facet normal -0 0 -1
    outer loop
      vertex 40.9393 51.4393 -54
      vertex 34.5 49 -54
      vertex 40.6142 51.926 -54
    endloop
  endfacet
  facet normal -0 0 -1
    outer loop
      vertex 41.426 51.1142 -54
      vertex 34.5 49 -54
      vertex 40.9393 51.4393 -54
    endloop
  endfacet
  facet normal -0 0 -1
    outer loop
      vertex 42 51 -54
      vertex 34.5 49 -54
      vertex 41.426 51.1142 -54
    endloop
  endfacet
  facet normal 0 0 -1
    outer loop
      vertex 43.3858 53.074 -54
      vertex 49.5 56 -54
      vertex 43.5 52.5 -54
    endloop
  endfacet
  facet normal 0 0 -1
    outer loop
      vertex 43.0607 53.5607 -54
      vertex 49.5 56 -54
      vertex 43.3858 53.074 -54
    endloop
  endfacet
  facet normal 0 0 -1
    outer loop
      vertex 42.574 53.8858 -54
      vertex 49.5 56 -54
      vertex 43.0607 53.5607 -54
    endloop
  endfacet
  facet normal 0 0 -1
    outer loop
      vertex 42 54 -54
      vertex 49.5 56 -54
      vertex 42.574 53.8858 -54
    endloop
  endfacet
  facet normal 0 0 -1
    outer loop
      vertex 34.5 56 -54
      vertex 42 54 -54
      vertex 41.426 53.8858 -54
    endloop
  endfacet
  facet normal 0 0 -1
    outer loop
      vertex 34.5 56 -54
      vertex 40.5 52.5 -54
      vertex 34.5 49 -54
    endloop
  endfacet
  facet normal 0 0 -1
    outer loop
      vertex 40.5 52.5 -54
      vertex 34.5 56 -54
      vertex 40.6142 53.074 -54
    endloop
  endfacet
  facet normal 0 0 -1
    outer loop
      vertex 42 54 -54
      vertex 34.5 56 -54
      vertex 49.5 56 -54
    endloop
  endfacet
  facet normal 0 0 -1
    outer loop
      vertex 40.9393 53.5607 -54
      vertex 34.5 56 -54
      vertex 41.426 53.8858 -54
    endloop
  endfacet
  facet normal 0 0 -1
    outer loop
      vertex 40.6142 53.074 -54
      vertex 34.5 56 -54
      vertex 40.9393 53.5607 -54
    endloop
  endfacet
  facet normal 0.980785 -0 0.19509
    outer loop
      vertex 47.5433 49 -21.7039
      vertex 48 56 -24
      vertex 47.5433 56 -21.7039
    endloop
  endfacet
  facet normal 0.980785 0 0.19509
    outer loop
      vertex 48 56 -24
      vertex 47.5433 49 -21.7039
      vertex 48 49 -24
    endloop
  endfacet
  facet normal -0.99846 0 0.05547
    outer loop
      vertex 34.5 49 -51
      vertex 36 56 -24
      vertex 34.5 56 -51
    endloop
  endfacet
  facet normal -0.99846 0 0.05547
    outer loop
      vertex 36 56 -24
      vertex 34.5 49 -51
      vertex 36 49 -24
    endloop
  endfacet
  facet normal -0.19509 0 0.980785
    outer loop
      vertex 39.7039 56 -18.4567
      vertex 42 49 -18
      vertex 42 56 -18
    endloop
  endfacet
  facet normal -0.19509 0 0.980785
    outer loop
      vertex 42 49 -18
      vertex 39.7039 56 -18.4567
      vertex 39.7039 49 -18.4567
    endloop
  endfacet
  facet normal -0.55557 0 0.83147
    outer loop
      vertex 37.7574 56 -19.7574
      vertex 39.7039 49 -18.4567
      vertex 39.7039 56 -18.4567
    endloop
  endfacet
  facet normal -0.55557 0 0.83147
    outer loop
      vertex 39.7039 49 -18.4567
      vertex 37.7574 56 -19.7574
      vertex 37.7574 49 -19.7574
    endloop
  endfacet
  facet normal 0 -1 0
    outer loop
      vertex 42 49 -22.5
      vertex 42 49 -18
      vertex 39.7039 49 -18.4567
    endloop
  endfacet
  facet normal 0 -1 0
    outer loop
      vertex 41.426 49 -22.6142
      vertex 39.7039 49 -18.4567
      vertex 37.7574 49 -19.7574
    endloop
  endfacet
  facet normal 0 -1 0
    outer loop
      vertex 42 49 -18
      vertex 42 49 -22.5
      vertex 44.2961 49 -18.4567
    endloop
  endfacet
  facet normal 0 -1 0
    outer loop
      vertex 40.9393 49 -22.9393
      vertex 37.7574 49 -19.7574
      vertex 36.4567 49 -21.7039
    endloop
  endfacet
  facet normal 0 -1 0
    outer loop
      vertex 42.574 49 -22.6142
      vertex 44.2961 49 -18.4567
      vertex 42 49 -22.5
    endloop
  endfacet
  facet normal 0 -1 -0
    outer loop
      vertex 44.2961 49 -18.4567
      vertex 42.574 49 -22.6142
      vertex 46.2426 49 -19.7574
    endloop
  endfacet
  facet normal 0 -1 0
    outer loop
      vertex 39.7039 49 -18.4567
      vertex 41.426 49 -22.6142
      vertex 42 49 -22.5
    endloop
  endfacet
  facet normal 0 -1 0
    outer loop
      vertex 37.7574 49 -19.7574
      vertex 40.9393 49 -22.9393
      vertex 41.426 49 -22.6142
    endloop
  endfacet
  facet normal 0 -1 0
    outer loop
      vertex 36.4567 49 -21.7039
      vertex 40.6142 49 -23.426
      vertex 40.9393 49 -22.9393
    endloop
  endfacet
  facet normal 0 -1 0
    outer loop
      vertex 36 49 -24
      vertex 40.6142 49 -23.426
      vertex 36.4567 49 -21.7039
    endloop
  endfacet
  facet normal 0 -1 0
    outer loop
      vertex 36 49 -24
      vertex 40.5 49 -24
      vertex 40.6142 49 -23.426
    endloop
  endfacet
  facet normal 0 -1 0
    outer loop
      vertex 36 49 -24
      vertex 40.6142 49 -24.574
      vertex 40.5 49 -24
    endloop
  endfacet
  facet normal 0 -1 0
    outer loop
      vertex 36 49 -24
      vertex 40.9393 49 -25.0607
      vertex 40.6142 49 -24.574
    endloop
  endfacet
  facet normal 0 -1 0
    outer loop
      vertex 36 49 -24
      vertex 41.426 49 -25.3858
      vertex 40.9393 49 -25.0607
    endloop
  endfacet
  facet normal 0 -1 -0
    outer loop
      vertex 41.426 49 -25.3858
      vertex 34.5 49 -51
      vertex 42 49 -25.5
    endloop
  endfacet
  facet normal 0 -1 0
    outer loop
      vertex 34.5 49 -51
      vertex 41.426 49 -25.3858
      vertex 36 49 -24
    endloop
  endfacet
  facet normal 0 -1 0
    outer loop
      vertex 43.0607 49 -22.9393
      vertex 46.2426 49 -19.7574
      vertex 42.574 49 -22.6142
    endloop
  endfacet
  facet normal 0 -1 -0
    outer loop
      vertex 46.2426 49 -19.7574
      vertex 43.0607 49 -22.9393
      vertex 47.5433 49 -21.7039
    endloop
  endfacet
  facet normal 0 -1 0
    outer loop
      vertex 43.3858 49 -23.426
      vertex 47.5433 49 -21.7039
      vertex 43.0607 49 -22.9393
    endloop
  endfacet
  facet normal 0 -1 0
    outer loop
      vertex 43.5 49 -24
      vertex 47.5433 49 -21.7039
      vertex 43.3858 49 -23.426
    endloop
  endfacet
  facet normal 0 -1 0
    outer loop
      vertex 43.5 49 -24
      vertex 48 49 -24
      vertex 47.5433 49 -21.7039
    endloop
  endfacet
  facet normal 0 -1 0
    outer loop
      vertex 43.3858 49 -24.574
      vertex 48 49 -24
      vertex 43.5 49 -24
    endloop
  endfacet
  facet normal 0 -1 0
    outer loop
      vertex 43.0607 49 -25.0607
      vertex 48 49 -24
      vertex 43.3858 49 -24.574
    endloop
  endfacet
  facet normal 0 -1 0
    outer loop
      vertex 42.574 49 -25.3858
      vertex 48 49 -24
      vertex 43.0607 49 -25.0607
    endloop
  endfacet
  facet normal 0 -1 0
    outer loop
      vertex 49.5 49 -51
      vertex 42 49 -25.5
      vertex 34.5 49 -51
    endloop
  endfacet
  facet normal 0 -1 0
    outer loop
      vertex 42 49 -25.5
      vertex 49.5 49 -51
      vertex 42.574 49 -25.3858
    endloop
  endfacet
  facet normal 0 -1 0
    outer loop
      vertex 42.574 49 -25.3858
      vertex 49.5 49 -51
      vertex 48 49 -24
    endloop
  endfacet
  facet normal 0 -1 0
    outer loop
      vertex 34.5 49 -54
      vertex 49.5 49 -51
      vertex 34.5 49 -51
    endloop
  endfacet
  facet normal 0 -1 -0
    outer loop
      vertex 49.5 49 -51
      vertex 34.5 49 -54
      vertex 49.5 49 -54
    endloop
  endfacet
  facet normal 0.99846 -0 0.05547
    outer loop
      vertex 48 49 -24
      vertex 49.5 56 -51
      vertex 48 56 -24
    endloop
  endfacet
  facet normal 0.99846 0 0.05547
    outer loop
      vertex 49.5 56 -51
      vertex 48 49 -24
      vertex 49.5 49 -51
    endloop
  endfacet
  facet normal -1 0 0
    outer loop
      vertex 34.5 49 -54
      vertex 34.5 56 -51
      vertex 34.5 56 -54
    endloop
  endfacet
  facet normal -1 -0 0
    outer loop
      vertex 34.5 56 -51
      vertex 34.5 49 -54
      vertex 34.5 49 -51
    endloop
  endfacet
  facet normal 0.19509 0 0.980785
    outer loop
      vertex 42 56 -18
      vertex 44.2961 49 -18.4567
      vertex 44.2961 56 -18.4567
    endloop
  endfacet
  facet normal 0.19509 0 0.980785
    outer loop
      vertex 44.2961 49 -18.4567
      vertex 42 56 -18
      vertex 42 49 -18
    endloop
  endfacet
  facet normal 0.55557 0 0.83147
    outer loop
      vertex 44.2961 56 -18.4567
      vertex 46.2426 49 -19.7574
      vertex 46.2426 56 -19.7574
    endloop
  endfacet
  facet normal 0.55557 0 0.83147
    outer loop
      vertex 46.2426 49 -19.7574
      vertex 44.2961 56 -18.4567
      vertex 44.2961 49 -18.4567
    endloop
  endfacet
  facet normal 0.980785 0 -0.195092
    outer loop
      vertex 40.6142 49 -23.426
      vertex 40.5 56 -24
      vertex 40.6142 56 -23.426
    endloop
  endfacet
  facet normal 0.980785 0 -0.195092
    outer loop
      vertex 40.5 56 -24
      vertex 40.6142 49 -23.426
      vertex 40.5 49 -24
    endloop
  endfacet
  facet normal 0.831471 0 -0.555568
    outer loop
      vertex 40.9393 49 -22.9393
      vertex 40.6142 56 -23.426
      vertex 40.9393 56 -22.9393
    endloop
  endfacet
  facet normal 0.831471 0 -0.555568
    outer loop
      vertex 40.6142 56 -23.426
      vertex 40.9393 49 -22.9393
      vertex 40.6142 49 -23.426
    endloop
  endfacet
  facet normal -0.195092 0 -0.980785
    outer loop
      vertex 42 49 -22.5
      vertex 42.574 56 -22.6142
      vertex 42.574 49 -22.6142
    endloop
  endfacet
  facet normal -0.195092 0 -0.980785
    outer loop
      vertex 42.574 56 -22.6142
      vertex 42 49 -22.5
      vertex 42 56 -22.5
    endloop
  endfacet
  facet normal -0.980785 0 0.195092
    outer loop
      vertex 43.3858 49 -24.574
      vertex 43.5 56 -24
      vertex 43.3858 56 -24.574
    endloop
  endfacet
  facet normal -0.980785 0 0.195092
    outer loop
      vertex 43.5 56 -24
      vertex 43.3858 49 -24.574
      vertex 43.5 49 -24
    endloop
  endfacet
  facet normal 0.555569 0 -0.831471
    outer loop
      vertex 40.9393 49 -22.9393
      vertex 41.426 56 -22.6142
      vertex 41.426 49 -22.6142
    endloop
  endfacet
  facet normal 0.555569 0 -0.831471
    outer loop
      vertex 41.426 56 -22.6142
      vertex 40.9393 49 -22.9393
      vertex 40.9393 56 -22.9393
    endloop
  endfacet
  facet normal -0.831471 0 -0.555568
    outer loop
      vertex 43.3858 49 -23.426
      vertex 43.0607 56 -22.9393
      vertex 43.3858 56 -23.426
    endloop
  endfacet
  facet normal -0.831471 -0 -0.555568
    outer loop
      vertex 43.0607 56 -22.9393
      vertex 43.3858 49 -23.426
      vertex 43.0607 49 -22.9393
    endloop
  endfacet
  facet normal 0.980785 -0 0.195092
    outer loop
      vertex 40.5 49 -24
      vertex 40.6142 56 -24.574
      vertex 40.5 56 -24
    endloop
  endfacet
  facet normal 0.980785 0 0.195092
    outer loop
      vertex 40.6142 56 -24.574
      vertex 40.5 49 -24
      vertex 40.6142 49 -24.574
    endloop
  endfacet
  facet normal -0.831472 0 0.555566
    outer loop
      vertex 43.0607 49 -25.0607
      vertex 43.3858 56 -24.574
      vertex 43.0607 56 -25.0607
    endloop
  endfacet
  facet normal -0.831472 0 0.555566
    outer loop
      vertex 43.3858 56 -24.574
      vertex 43.0607 49 -25.0607
      vertex 43.3858 49 -24.574
    endloop
  endfacet
  facet normal 0.195092 0 -0.980785
    outer loop
      vertex 41.426 49 -22.6142
      vertex 42 56 -22.5
      vertex 42 49 -22.5
    endloop
  endfacet
  facet normal 0.195092 0 -0.980785
    outer loop
      vertex 42 56 -22.5
      vertex 41.426 49 -22.6142
      vertex 41.426 56 -22.6142
    endloop
  endfacet
  facet normal -0.980785 0 -0.195092
    outer loop
      vertex 43.5 49 -24
      vertex 43.3858 56 -23.426
      vertex 43.5 56 -24
    endloop
  endfacet
  facet normal -0.980785 -0 -0.195092
    outer loop
      vertex 43.3858 56 -23.426
      vertex 43.5 49 -24
      vertex 43.3858 49 -23.426
    endloop
  endfacet
  facet normal -0.555569 0 -0.831471
    outer loop
      vertex 42.574 49 -22.6142
      vertex 43.0607 56 -22.9393
      vertex 43.0607 49 -22.9393
    endloop
  endfacet
  facet normal -0.555569 0 -0.831471
    outer loop
      vertex 43.0607 56 -22.9393
      vertex 42.574 49 -22.6142
      vertex 42.574 56 -22.6142
    endloop
  endfacet
  facet normal -0.555566 0 0.831472
    outer loop
      vertex 42.574 56 -25.3858
      vertex 43.0607 49 -25.0607
      vertex 43.0607 56 -25.0607
    endloop
  endfacet
  facet normal -0.555566 0 0.831472
    outer loop
      vertex 43.0607 49 -25.0607
      vertex 42.574 56 -25.3858
      vertex 42.574 49 -25.3858
    endloop
  endfacet
  facet normal 0.195092 0 0.980785
    outer loop
      vertex 41.426 56 -25.3858
      vertex 42 49 -25.5
      vertex 42 56 -25.5
    endloop
  endfacet
  facet normal 0.195092 0 0.980785
    outer loop
      vertex 42 49 -25.5
      vertex 41.426 56 -25.3858
      vertex 41.426 49 -25.3858
    endloop
  endfacet
  facet normal 0.555566 0 0.831472
    outer loop
      vertex 40.9393 56 -25.0607
      vertex 41.426 49 -25.3858
      vertex 41.426 56 -25.3858
    endloop
  endfacet
  facet normal 0.555566 0 0.831472
    outer loop
      vertex 41.426 49 -25.3858
      vertex 40.9393 56 -25.0607
      vertex 40.9393 49 -25.0607
    endloop
  endfacet
  facet normal 0.831472 -0 0.555566
    outer loop
      vertex 40.6142 49 -24.574
      vertex 40.9393 56 -25.0607
      vertex 40.6142 56 -24.574
    endloop
  endfacet
  facet normal 0.831472 0 0.555566
    outer loop
      vertex 40.9393 56 -25.0607
      vertex 40.6142 49 -24.574
      vertex 40.9393 49 -25.0607
    endloop
  endfacet
  facet normal -0.195092 0 0.980785
    outer loop
      vertex 42 56 -25.5
      vertex 42.574 49 -25.3858
      vertex 42.574 56 -25.3858
    endloop
  endfacet
  facet normal -0.195092 0 0.980785
    outer loop
      vertex 42.574 49 -25.3858
      vertex 42 56 -25.5
      vertex 42 49 -25.5
    endloop
  endfacet
  facet normal 0.980785 -0.195092 0
    outer loop
      vertex 40.5 52.5 -38
      vertex 40.6142 53.074 -54
      vertex 40.6142 53.074 -38
    endloop
  endfacet
  facet normal 0.980785 -0.195092 0
    outer loop
      vertex 40.6142 53.074 -54
      vertex 40.5 52.5 -38
      vertex 40.5 52.5 -54
    endloop
  endfacet
  facet normal -0.195092 -0.980785 0
    outer loop
      vertex 42 54 -54
      vertex 42.574 53.8858 -38
      vertex 42 54 -38
    endloop
  endfacet
  facet normal -0.195092 -0.980785 -0
    outer loop
      vertex 42.574 53.8858 -38
      vertex 42 54 -54
      vertex 42.574 53.8858 -54
    endloop
  endfacet
  facet normal -0.980785 0.195092 0
    outer loop
      vertex 43.3858 51.926 -54
      vertex 43.5 52.5 -38
      vertex 43.5 52.5 -54
    endloop
  endfacet
  facet normal -0.980785 0.195092 0
    outer loop
      vertex 43.5 52.5 -38
      vertex 43.3858 51.926 -54
      vertex 43.3858 51.926 -38
    endloop
  endfacet
  facet normal 0.555566 -0.831472 0
    outer loop
      vertex 40.9393 53.5607 -54
      vertex 41.426 53.8858 -38
      vertex 40.9393 53.5607 -38
    endloop
  endfacet
  facet normal 0.555566 -0.831472 0
    outer loop
      vertex 41.426 53.8858 -38
      vertex 40.9393 53.5607 -54
      vertex 41.426 53.8858 -54
    endloop
  endfacet
  facet normal 0.831472 -0.555566 0
    outer loop
      vertex 40.6142 53.074 -38
      vertex 40.9393 53.5607 -54
      vertex 40.9393 53.5607 -38
    endloop
  endfacet
  facet normal 0.831472 -0.555566 0
    outer loop
      vertex 40.9393 53.5607 -54
      vertex 40.6142 53.074 -38
      vertex 40.6142 53.074 -54
    endloop
  endfacet
  facet normal 0.195092 -0.980785 0
    outer loop
      vertex 41.426 53.8858 -54
      vertex 42 54 -38
      vertex 41.426 53.8858 -38
    endloop
  endfacet
  facet normal 0.195092 -0.980785 0
    outer loop
      vertex 42 54 -38
      vertex 41.426 53.8858 -54
      vertex 42 54 -54
    endloop
  endfacet
  facet normal -0.555566 -0.831472 0
    outer loop
      vertex 42.574 53.8858 -54
      vertex 43.0607 53.5607 -38
      vertex 42.574 53.8858 -38
    endloop
  endfacet
  facet normal -0.555566 -0.831472 -0
    outer loop
      vertex 43.0607 53.5607 -38
      vertex 42.574 53.8858 -54
      vertex 43.0607 53.5607 -54
    endloop
  endfacet
  facet normal -0.831472 -0.555566 0
    outer loop
      vertex 43.3858 53.074 -54
      vertex 43.0607 53.5607 -38
      vertex 43.0607 53.5607 -54
    endloop
  endfacet
  facet normal -0.831472 -0.555566 0
    outer loop
      vertex 43.0607 53.5607 -38
      vertex 43.3858 53.074 -54
      vertex 43.3858 53.074 -38
    endloop
  endfacet
  facet normal 0.980785 0.195092 0
    outer loop
      vertex 40.6142 51.926 -38
      vertex 40.5 52.5 -54
      vertex 40.5 52.5 -38
    endloop
  endfacet
  facet normal 0.980785 0.195092 0
    outer loop
      vertex 40.5 52.5 -54
      vertex 40.6142 51.926 -38
      vertex 40.6142 51.926 -54
    endloop
  endfacet
  facet normal -0.831472 0.555566 0
    outer loop
      vertex 43.0607 51.4393 -54
      vertex 43.3858 51.926 -38
      vertex 43.3858 51.926 -54
    endloop
  endfacet
  facet normal -0.831472 0.555566 0
    outer loop
      vertex 43.3858 51.926 -38
      vertex 43.0607 51.4393 -54
      vertex 43.0607 51.4393 -38
    endloop
  endfacet
  facet normal 0 0 -1
    outer loop
      vertex 43.3858 51.926 -38
      vertex 43.3858 53.074 -38
      vertex 43.5 52.5 -38
    endloop
  endfacet
  facet normal 0 0 -1
    outer loop
      vertex 43.0607 51.4393 -38
      vertex 43.3858 53.074 -38
      vertex 43.3858 51.926 -38
    endloop
  endfacet
  facet normal 0 0 -1
    outer loop
      vertex 43.0607 51.4393 -38
      vertex 43.0607 53.5607 -38
      vertex 43.3858 53.074 -38
    endloop
  endfacet
  facet normal 0 0 -1
    outer loop
      vertex 42.574 51.1142 -38
      vertex 43.0607 53.5607 -38
      vertex 43.0607 51.4393 -38
    endloop
  endfacet
  facet normal 0 0 -1
    outer loop
      vertex 42.574 51.1142 -38
      vertex 42.574 53.8858 -38
      vertex 43.0607 53.5607 -38
    endloop
  endfacet
  facet normal 0 0 -1
    outer loop
      vertex 42 51 -38
      vertex 42.574 53.8858 -38
      vertex 42.574 51.1142 -38
    endloop
  endfacet
  facet normal 0 0 -1
    outer loop
      vertex 42 51 -38
      vertex 42 54 -38
      vertex 42.574 53.8858 -38
    endloop
  endfacet
  facet normal 0 0 -1
    outer loop
      vertex 41.426 51.1142 -38
      vertex 42 54 -38
      vertex 42 51 -38
    endloop
  endfacet
  facet normal 0 0 -1
    outer loop
      vertex 41.426 51.1142 -38
      vertex 41.426 53.8858 -38
      vertex 42 54 -38
    endloop
  endfacet
  facet normal 0 0 -1
    outer loop
      vertex 40.9393 51.4393 -38
      vertex 41.426 53.8858 -38
      vertex 41.426 51.1142 -38
    endloop
  endfacet
  facet normal 0 0 -1
    outer loop
      vertex 40.9393 51.4393 -38
      vertex 40.9393 53.5607 -38
      vertex 41.426 53.8858 -38
    endloop
  endfacet
  facet normal 0 0 -1
    outer loop
      vertex 40.6142 51.926 -38
      vertex 40.9393 53.5607 -38
      vertex 40.9393 51.4393 -38
    endloop
  endfacet
  facet normal 0 0 -1
    outer loop
      vertex 40.6142 51.926 -38
      vertex 40.6142 53.074 -38
      vertex 40.9393 53.5607 -38
    endloop
  endfacet
  facet normal 0 -0 -1
    outer loop
      vertex 40.6142 53.074 -38
      vertex 40.6142 51.926 -38
      vertex 40.5 52.5 -38
    endloop
  endfacet
  facet normal -0.980785 -0.195092 0
    outer loop
      vertex 43.5 52.5 -54
      vertex 43.3858 53.074 -38
      vertex 43.3858 53.074 -54
    endloop
  endfacet
  facet normal -0.980785 -0.195092 0
    outer loop
      vertex 43.3858 53.074 -38
      vertex 43.5 52.5 -54
      vertex 43.5 52.5 -38
    endloop
  endfacet
  facet normal 0.555566 0.831472 -0
    outer loop
      vertex 41.426 51.1142 -54
      vertex 40.9393 51.4393 -38
      vertex 41.426 51.1142 -38
    endloop
  endfacet
  facet normal 0.555566 0.831472 0
    outer loop
      vertex 40.9393 51.4393 -38
      vertex 41.426 51.1142 -54
      vertex 40.9393 51.4393 -54
    endloop
  endfacet
  facet normal 0.831472 0.555566 0
    outer loop
      vertex 40.9393 51.4393 -38
      vertex 40.6142 51.926 -54
      vertex 40.6142 51.926 -38
    endloop
  endfacet
  facet normal 0.831472 0.555566 0
    outer loop
      vertex 40.6142 51.926 -54
      vertex 40.9393 51.4393 -38
      vertex 40.9393 51.4393 -54
    endloop
  endfacet
  facet normal -0.555566 0.831472 0
    outer loop
      vertex 43.0607 51.4393 -54
      vertex 42.574 51.1142 -38
      vertex 43.0607 51.4393 -38
    endloop
  endfacet
  facet normal -0.555566 0.831472 0
    outer loop
      vertex 42.574 51.1142 -38
      vertex 43.0607 51.4393 -54
      vertex 42.574 51.1142 -54
    endloop
  endfacet
  facet normal 0.195092 0.980785 -0
    outer loop
      vertex 42 51 -54
      vertex 41.426 51.1142 -38
      vertex 42 51 -38
    endloop
  endfacet
  facet normal 0.195092 0.980785 0
    outer loop
      vertex 41.426 51.1142 -38
      vertex 42 51 -54
      vertex 41.426 51.1142 -54
    endloop
  endfacet
  facet normal -0.195092 0.980785 0
    outer loop
      vertex 42.574 51.1142 -54
      vertex 42 51 -38
      vertex 42.574 51.1142 -38
    endloop
  endfacet
  facet normal -0.195092 0.980785 0
    outer loop
      vertex 42 51 -38
      vertex 42.574 51.1142 -54
      vertex 42 51 -54
    endloop
  endfacet
endsolid OpenSCAD_Model
