solid OpenSCAD_Model
  facet normal 0 -0.707107 0.707107
    outer loop
      vertex 36 36.1503 -58.1
      vertex 48 41.1 -53.1503
      vertex 36 41.1 -53.1503
    endloop
  endfacet
  facet normal 0 -0.707107 0.707107
    outer loop
      vertex 48 41.1 -53.1503
      vertex 36 36.1503 -58.1
      vertex 48 36.1503 -58.1
    endloop
  endfacet
  facet normal 0 -0.707107 -0.707107
    outer loop
      vertex 36 41.1 -20.8497
      vertex 48 36.3665 -16.1162
      vertex 36 36.3665 -16.1162
    endloop
  endfacet
  facet normal 0 -0.707107 -0.707107
    outer loop
      vertex 48 36.3665 -16.1162
      vertex 36 41.1 -20.8497
      vertex 48 41.1 -20.8497
    endloop
  endfacet
  facet normal -0 0.707105 0.707109
    outer loop
      vertex 36 3.84975 -58.1
      vertex 48 3.27101 -57.5213
      vertex 48 3.84975 -58.1
    endloop
  endfacet
  facet normal 0 0.707105 0.707109
    outer loop
      vertex 48 3.27101 -57.5213
      vertex 36 3.84975 -58.1
      vertex 36 3.27101 -57.5213
    endloop
  endfacet
  facet normal -0 0 1
    outer loop
      vertex 36 36.1503 -58.1
      vertex 48 3.84975 -58.1
      vertex 48 36.1503 -58.1
    endloop
  endfacet
  facet normal 0 0 1
    outer loop
      vertex 48 3.84975 -58.1
      vertex 36 36.1503 -58.1
      vertex 36 3.84975 -58.1
    endloop
  endfacet
  facet normal 0 -1 0
    outer loop
      vertex 36 41.1 -20.8497
      vertex 42 41.1 -22.5
      vertex 48 41.1 -20.8497
    endloop
  endfacet
  facet normal 0 -1 0
    outer loop
      vertex 36 41.1 -20.8497
      vertex 41.426 41.1 -22.6142
      vertex 42 41.1 -22.5
    endloop
  endfacet
  facet normal 0 -1 0
    outer loop
      vertex 36 41.1 -20.8497
      vertex 40.9393 41.1 -22.9393
      vertex 41.426 41.1 -22.6142
    endloop
  endfacet
  facet normal 0 -1 0
    outer loop
      vertex 36 41.1 -20.8497
      vertex 40.6142 41.1 -23.426
      vertex 40.9393 41.1 -22.9393
    endloop
  endfacet
  facet normal 0 -1 0
    outer loop
      vertex 36 41.1 -20.8497
      vertex 40.5 41.1 -24
      vertex 40.6142 41.1 -23.426
    endloop
  endfacet
  facet normal 0 -1 0
    outer loop
      vertex 36 41.1 -20.8497
      vertex 40.6142 41.1 -24.574
      vertex 40.5 41.1 -24
    endloop
  endfacet
  facet normal 0 -1 0
    outer loop
      vertex 36 41.1 -20.8497
      vertex 40.9393 41.1 -25.0607
      vertex 40.6142 41.1 -24.574
    endloop
  endfacet
  facet normal 0 -1 -0
    outer loop
      vertex 41.426 41.1 -25.3858
      vertex 36 41.1 -53.1503
      vertex 42 41.1 -25.5
    endloop
  endfacet
  facet normal 0 -1 -0
    outer loop
      vertex 40.9393 41.1 -25.0607
      vertex 36 41.1 -53.1503
      vertex 41.426 41.1 -25.3858
    endloop
  endfacet
  facet normal 0 -1 0
    outer loop
      vertex 36 41.1 -53.1503
      vertex 40.9393 41.1 -25.0607
      vertex 36 41.1 -20.8497
    endloop
  endfacet
  facet normal 0 -1 0
    outer loop
      vertex 42.574 41.1 -22.6142
      vertex 48 41.1 -20.8497
      vertex 42 41.1 -22.5
    endloop
  endfacet
  facet normal 0 -1 0
    outer loop
      vertex 43.0607 41.1 -22.9393
      vertex 48 41.1 -20.8497
      vertex 42.574 41.1 -22.6142
    endloop
  endfacet
  facet normal 0 -1 0
    outer loop
      vertex 43.3858 41.1 -23.426
      vertex 48 41.1 -20.8497
      vertex 43.0607 41.1 -22.9393
    endloop
  endfacet
  facet normal 0 -1 0
    outer loop
      vertex 43.5 41.1 -24
      vertex 48 41.1 -20.8497
      vertex 43.3858 41.1 -23.426
    endloop
  endfacet
  facet normal 0 -1 0
    outer loop
      vertex 43.3858 41.1 -24.574
      vertex 48 41.1 -20.8497
      vertex 43.5 41.1 -24
    endloop
  endfacet
  facet normal 0 -1 0
    outer loop
      vertex 43.0607 41.1 -25.0607
      vertex 48 41.1 -20.8497
      vertex 43.3858 41.1 -24.574
    endloop
  endfacet
  facet normal 0 -1 0
    outer loop
      vertex 48 41.1 -53.1503
      vertex 42 41.1 -25.5
      vertex 36 41.1 -53.1503
    endloop
  endfacet
  facet normal 0 -1 0
    outer loop
      vertex 42 41.1 -25.5
      vertex 48 41.1 -53.1503
      vertex 42.574 41.1 -25.3858
    endloop
  endfacet
  facet normal 0 -1 0
    outer loop
      vertex 42.574 41.1 -25.3858
      vertex 48 41.1 -53.1503
      vertex 43.0607 41.1 -25.0607
    endloop
  endfacet
  facet normal 0 -1 0
    outer loop
      vertex 43.0607 41.1 -25.0607
      vertex 48 41.1 -53.1503
      vertex 48 41.1 -20.8497
    endloop
  endfacet
  facet normal -0 0 1
    outer loop
      vertex 36 45.9573 -16.1162
      vertex 48 36.3665 -16.1162
      vertex 48 45.9573 -16.1162
    endloop
  endfacet
  facet normal 0 0 1
    outer loop
      vertex 48 36.3665 -16.1162
      vertex 36 45.9573 -16.1162
      vertex 36 36.3665 -16.1162
    endloop
  endfacet
  facet normal -1 0 0
    outer loop
      vertex 36 35.5 -61
      vertex 36 41.2919 -63.2723
      vertex 36 39.8589 -64.5418
    endloop
  endfacet
  facet normal -1 0 0
    outer loop
      vertex 36 35.3858 -61.574
      vertex 36 39.8589 -64.5418
      vertex 36 38 -65
    endloop
  endfacet
  facet normal -1 0 0
    outer loop
      vertex 36 41.2919 -63.2723
      vertex 36 36.1503 -58.1
      vertex 36 41.1 -53.1503
    endloop
  endfacet
  facet normal -1 0 0
    outer loop
      vertex 36 41.2919 -63.2723
      vertex 36 35.5 -61
      vertex 36 36.1503 -58.1
    endloop
  endfacet
  facet normal -1 0 0
    outer loop
      vertex 36 39.8589 -64.5418
      vertex 36 35.4737 -61.132
      vertex 36 35.5 -61
    endloop
  endfacet
  facet normal -1 0 0
    outer loop
      vertex 36 39.8589 -64.5418
      vertex 36 35.3858 -61.574
      vertex 36 35.4737 -61.132
    endloop
  endfacet
  facet normal -1 0 0
    outer loop
      vertex 36 38 -65
      vertex 36 35.0607 -62.0607
      vertex 36 35.3858 -61.574
    endloop
  endfacet
  facet normal -1 0 0
    outer loop
      vertex 36 38 -65
      vertex 36 34.574 -62.3858
      vertex 36 35.0607 -62.0607
    endloop
  endfacet
  facet normal -1 0 0
    outer loop
      vertex 36 38 -65
      vertex 36 34.132 -62.4737
      vertex 36 34.574 -62.3858
    endloop
  endfacet
  facet normal -1 0 0
    outer loop
      vertex 36 38 -65
      vertex 36 34 -62.5
      vertex 36 34.132 -62.4737
    endloop
  endfacet
  facet normal -1 0 0
    outer loop
      vertex 36 38 -65
      vertex 36 33.868 -62.4737
      vertex 36 34 -62.5
    endloop
  endfacet
  facet normal -1 0 0
    outer loop
      vertex 36 38 -65
      vertex 36 33.426 -62.3858
      vertex 36 33.868 -62.4737
    endloop
  endfacet
  facet normal -1 0 0
    outer loop
      vertex 36 32.5263 -61.132
      vertex 36 8 -61
      vertex 36 32.5 -61
    endloop
  endfacet
  facet normal -1 0 0
    outer loop
      vertex 36 7.98801 -61.0603
      vertex 36 32.5263 -61.132
      vertex 36 32.6142 -61.574
    endloop
  endfacet
  facet normal -1 0 0
    outer loop
      vertex 36 7.88582 -61.574
      vertex 36 32.6142 -61.574
      vertex 36 32.9393 -62.0607
    endloop
  endfacet
  facet normal -1 0 0
    outer loop
      vertex 36 5 -65
      vertex 36 32.9393 -62.0607
      vertex 36 33.426 -62.3858
    endloop
  endfacet
  facet normal -1 0 0
    outer loop
      vertex 36 5 -65
      vertex 36 33.426 -62.3858
      vertex 36 38 -65
    endloop
  endfacet
  facet normal -1 0 0
    outer loop
      vertex 36 32.5263 -61.132
      vertex 36 7.98801 -61.0603
      vertex 36 8 -61
    endloop
  endfacet
  facet normal -1 0 0
    outer loop
      vertex 36 32.6142 -61.574
      vertex 36 7.88582 -61.574
      vertex 36 7.98801 -61.0603
    endloop
  endfacet
  facet normal -1 0 0
    outer loop
      vertex 36 32.9393 -62.0607
      vertex 36 7.56066 -62.0607
      vertex 36 7.88582 -61.574
    endloop
  endfacet
  facet normal -1 -0 0
    outer loop
      vertex 36 32.9393 -62.0607
      vertex 36 5 -65
      vertex 36 7.56066 -62.0607
    endloop
  endfacet
  facet normal -1 0 0
    outer loop
      vertex 36 7.56066 -62.0607
      vertex 36 5 -65
      vertex 36 7.07403 -62.3858
    endloop
  endfacet
  facet normal -1 0 0
    outer loop
      vertex 36 7.07403 -62.3858
      vertex 36 5 -65
      vertex 36 6.56027 -62.488
    endloop
  endfacet
  facet normal -1 0 0
    outer loop
      vertex 36 5 -65
      vertex 36 6.43973 -62.488
      vertex 36 6.5 -62.5
    endloop
  endfacet
  facet normal -1 0 0
    outer loop
      vertex 36 6.56027 -62.488
      vertex 36 5 -65
      vertex 36 6.5 -62.5
    endloop
  endfacet
  facet normal -1 -0 0
    outer loop
      vertex 36 6.43973 -62.488
      vertex 36 5 -65
      vertex 36 5.92598 -62.3858
    endloop
  endfacet
  facet normal -1 0 0
    outer loop
      vertex 36 5 -65
      vertex 36 5.43934 -62.0607
      vertex 36 5.92598 -62.3858
    endloop
  endfacet
  facet normal -1 0 0
    outer loop
      vertex 36 3.14111 -64.5418
      vertex 36 5.43934 -62.0607
      vertex 36 5 -65
    endloop
  endfacet
  facet normal -1 -0 0
    outer loop
      vertex 36 5.43934 -62.0607
      vertex 36 3.14111 -64.5418
      vertex 36 5.11418 -61.574
    endloop
  endfacet
  facet normal -1 0 0
    outer loop
      vertex 36 1.70807 -63.2723
      vertex 36 5.11418 -61.574
      vertex 36 3.14111 -64.5418
    endloop
  endfacet
  facet normal -1 -0 0
    outer loop
      vertex 36 5.11418 -61.574
      vertex 36 1.70807 -63.2723
      vertex 36 5.01199 -61.0603
    endloop
  endfacet
  facet normal -1 0 0
    outer loop
      vertex 36 1.02917 -61.4821
      vertex 36 5.01199 -61.0603
      vertex 36 1.70807 -63.2723
    endloop
  endfacet
  facet normal -1 -0 0
    outer loop
      vertex 36 5.01199 -61.0603
      vertex 36 1.02917 -61.4821
      vertex 36 5 -61
    endloop
  endfacet
  facet normal -1 0 -0
    outer loop
      vertex 36 1.25994 -59.5816
      vertex 36 5 -61
      vertex 36 1.02917 -61.4821
    endloop
  endfacet
  facet normal -1 0 0
    outer loop
      vertex 36 5 -61
      vertex 36 1.25994 -59.5816
      vertex 36 3.84975 -58.1
    endloop
  endfacet
  facet normal -1 0 0
    outer loop
      vertex 36 3.84975 -58.1
      vertex 36 2.34751 -58.006
      vertex 36 3.27101 -57.5213
    endloop
  endfacet
  facet normal -1 0 -0
    outer loop
      vertex 36 2.34751 -58.006
      vertex 36 3.84975 -58.1
      vertex 36 1.25994 -59.5816
    endloop
  endfacet
  facet normal -1 0 0
    outer loop
      vertex 36 35.4121 -60.558
      vertex 36 36.1503 -58.1
      vertex 36 35.5 -61
    endloop
  endfacet
  facet normal -1 0 0
    outer loop
      vertex 36 35.3858 -60.426
      vertex 36 36.1503 -58.1
      vertex 36 35.4121 -60.558
    endloop
  endfacet
  facet normal -1 0 0
    outer loop
      vertex 36 35.0607 -59.9393
      vertex 36 36.1503 -58.1
      vertex 36 35.3858 -60.426
    endloop
  endfacet
  facet normal -1 0 0
    outer loop
      vertex 36 34.574 -59.6142
      vertex 36 36.1503 -58.1
      vertex 36 35.0607 -59.9393
    endloop
  endfacet
  facet normal -1 0 0
    outer loop
      vertex 36 34.442 -59.5879
      vertex 36 36.1503 -58.1
      vertex 36 34.574 -59.6142
    endloop
  endfacet
  facet normal -1 0 0
    outer loop
      vertex 36 34 -59.5
      vertex 36 36.1503 -58.1
      vertex 36 34.442 -59.5879
    endloop
  endfacet
  facet normal -1 0 0
    outer loop
      vertex 36 33.558 -59.5879
      vertex 36 36.1503 -58.1
      vertex 36 34 -59.5
    endloop
  endfacet
  facet normal -1 0 0
    outer loop
      vertex 36 33.426 -59.6142
      vertex 36 36.1503 -58.1
      vertex 36 33.558 -59.5879
    endloop
  endfacet
  facet normal -1 0 0
    outer loop
      vertex 36 8 -61
      vertex 36 32.5879 -60.558
      vertex 36 32.5 -61
    endloop
  endfacet
  facet normal -1 0 0
    outer loop
      vertex 36 7.89781 -60.4862
      vertex 36 32.5879 -60.558
      vertex 36 8 -61
    endloop
  endfacet
  facet normal -1 0 0
    outer loop
      vertex 36 32.5879 -60.558
      vertex 36 7.89781 -60.4862
      vertex 36 32.6142 -60.426
    endloop
  endfacet
  facet normal -1 0 0
    outer loop
      vertex 36 7.88582 -60.426
      vertex 36 32.6142 -60.426
      vertex 36 7.89781 -60.4862
    endloop
  endfacet
  facet normal -1 0 0
    outer loop
      vertex 36 32.6142 -60.426
      vertex 36 7.88582 -60.426
      vertex 36 32.9393 -59.9393
    endloop
  endfacet
  facet normal -1 0 0
    outer loop
      vertex 36 7.56066 -59.9393
      vertex 36 32.9393 -59.9393
      vertex 36 7.88582 -60.426
    endloop
  endfacet
  facet normal -1 0 0
    outer loop
      vertex 36 32.9393 -59.9393
      vertex 36 7.56066 -59.9393
      vertex 36 33.426 -59.6142
    endloop
  endfacet
  facet normal -1 0 0
    outer loop
      vertex 36 7.07403 -59.6142
      vertex 36 33.426 -59.6142
      vertex 36 7.56066 -59.9393
    endloop
  endfacet
  facet normal -1 0 0
    outer loop
      vertex 36 33.426 -59.6142
      vertex 36 7.07403 -59.6142
      vertex 36 36.1503 -58.1
    endloop
  endfacet
  facet normal -1 0 0
    outer loop
      vertex 36 3.84975 -58.1
      vertex 36 7.07403 -59.6142
      vertex 36 7.01375 -59.6022
    endloop
  endfacet
  facet normal -1 0 0
    outer loop
      vertex 36 3.84975 -58.1
      vertex 36 7.01375 -59.6022
      vertex 36 6.5 -59.5
    endloop
  endfacet
  facet normal -1 0 0
    outer loop
      vertex 36 7.07403 -59.6142
      vertex 36 3.84975 -58.1
      vertex 36 36.1503 -58.1
    endloop
  endfacet
  facet normal -1 0 0
    outer loop
      vertex 36 5.98625 -59.6022
      vertex 36 3.84975 -58.1
      vertex 36 6.5 -59.5
    endloop
  endfacet
  facet normal -1 0 0
    outer loop
      vertex 36 5.92598 -59.6142
      vertex 36 3.84975 -58.1
      vertex 36 5.98625 -59.6022
    endloop
  endfacet
  facet normal -1 0 0
    outer loop
      vertex 36 5.43934 -59.9393
      vertex 36 3.84975 -58.1
      vertex 36 5.92598 -59.6142
    endloop
  endfacet
  facet normal -1 0 0
    outer loop
      vertex 36 5.11418 -60.426
      vertex 36 3.84975 -58.1
      vertex 36 5.43934 -59.9393
    endloop
  endfacet
  facet normal -1 0 0
    outer loop
      vertex 36 5.10219 -60.4862
      vertex 36 3.84975 -58.1
      vertex 36 5.11418 -60.426
    endloop
  endfacet
  facet normal -1 0 0
    outer loop
      vertex 36 3.84975 -58.1
      vertex 36 5.10219 -60.4862
      vertex 36 5 -61
    endloop
  endfacet
  facet normal -1 0 0
    outer loop
      vertex 36 45.074 -22.3858
      vertex 36 48.9708 -20.4821
      vertex 36 48.9708 -53.4821
    endloop
  endfacet
  facet normal -1 0 0
    outer loop
      vertex 36 41.1 -53.1503
      vertex 36 48.9708 -53.4821
      vertex 36 48.2919 -55.2723
    endloop
  endfacet
  facet normal -1 0 -0
    outer loop
      vertex 36 45.8858 -21.574
      vertex 36 48.9708 -20.4821
      vertex 36 45.5607 -22.0607
    endloop
  endfacet
  facet normal -1 0 0
    outer loop
      vertex 36 45.8858 -20.426
      vertex 36 48.9708 -20.4821
      vertex 36 46 -21
    endloop
  endfacet
  facet normal -1 0 0
    outer loop
      vertex 36 48.9708 -20.4821
      vertex 36 45.8858 -20.426
      vertex 36 48.7401 -18.5816
    endloop
  endfacet
  facet normal -1 0 -0
    outer loop
      vertex 36 46 -21
      vertex 36 48.9708 -20.4821
      vertex 36 45.8858 -21.574
    endloop
  endfacet
  facet normal -1 0 0
    outer loop
      vertex 36 48.9708 -20.4821
      vertex 36 45.074 -22.3858
      vertex 36 45.5607 -22.0607
    endloop
  endfacet
  facet normal -1 0 -0
    outer loop
      vertex 36 44.5 -22.5
      vertex 36 48.9708 -53.4821
      vertex 36 41.1 -53.1503
    endloop
  endfacet
  facet normal -1 0 0
    outer loop
      vertex 36 48.9708 -53.4821
      vertex 36 44.5 -22.5
      vertex 36 45.074 -22.3858
    endloop
  endfacet
  facet normal -1 -0 0
    outer loop
      vertex 36 44.5 -22.5
      vertex 36 41.1 -53.1503
      vertex 36 43.926 -22.3858
    endloop
  endfacet
  facet normal -1 0 0
    outer loop
      vertex 36 41.1 -20.8497
      vertex 36 43.926 -22.3858
      vertex 36 41.1 -53.1503
    endloop
  endfacet
  facet normal -1 0 0
    outer loop
      vertex 36 43.926 -22.3858
      vertex 36 41.1 -20.8497
      vertex 36 43.4393 -22.0607
    endloop
  endfacet
  facet normal -1 0 0
    outer loop
      vertex 36 41.1 -53.1503
      vertex 36 48.2919 -55.2723
      vertex 36 41.2919 -63.2723
    endloop
  endfacet
  facet normal -1 0 0
    outer loop
      vertex 36 45.5607 -19.9393
      vertex 36 48.7401 -18.5816
      vertex 36 45.8858 -20.426
    endloop
  endfacet
  facet normal -1 -0 0
    outer loop
      vertex 36 48.7401 -18.5816
      vertex 36 45.5607 -19.9393
      vertex 36 47.6525 -17.006
    endloop
  endfacet
  facet normal -1 0 0
    outer loop
      vertex 36 45.074 -19.6142
      vertex 36 47.6525 -17.006
      vertex 36 45.5607 -19.9393
    endloop
  endfacet
  facet normal -1 -0 0
    outer loop
      vertex 36 47.6525 -17.006
      vertex 36 45.074 -19.6142
      vertex 36 45.9573 -16.1162
    endloop
  endfacet
  facet normal -1 0 0
    outer loop
      vertex 36 44.5 -19.5
      vertex 36 45.9573 -16.1162
      vertex 36 45.074 -19.6142
    endloop
  endfacet
  facet normal -1 0 0
    outer loop
      vertex 36 43.926 -19.6142
      vertex 36 45.9573 -16.1162
      vertex 36 44.5 -19.5
    endloop
  endfacet
  facet normal -1 0 0
    outer loop
      vertex 36 36.3665 -16.1162
      vertex 36 43.926 -19.6142
      vertex 36 43.4393 -19.9393
    endloop
  endfacet
  facet normal -1 0 0
    outer loop
      vertex 36 41.1 -20.8497
      vertex 36 43.4393 -19.9393
      vertex 36 43.1142 -20.426
    endloop
  endfacet
  facet normal -1 0 0
    outer loop
      vertex 36 43.4393 -22.0607
      vertex 36 41.1 -20.8497
      vertex 36 43.1142 -21.574
    endloop
  endfacet
  facet normal -1 0 0
    outer loop
      vertex 36 43.1142 -21.574
      vertex 36 41.1 -20.8497
      vertex 36 43 -21
    endloop
  endfacet
  facet normal -1 0 0
    outer loop
      vertex 36 41.1 -20.8497
      vertex 36 43.1142 -20.426
      vertex 36 43 -21
    endloop
  endfacet
  facet normal -1 0 0
    outer loop
      vertex 36 36.3665 -16.1162
      vertex 36 43.4393 -19.9393
      vertex 36 41.1 -20.8497
    endloop
  endfacet
  facet normal -1 0 0
    outer loop
      vertex 36 43.926 -19.6142
      vertex 36 36.3665 -16.1162
      vertex 36 45.9573 -16.1162
    endloop
  endfacet
  facet normal 0 0.663123 -0.74851
    outer loop
      vertex 36 39.8589 -64.5418
      vertex 48 41.2919 -63.2723
      vertex 48 39.8589 -64.5418
    endloop
  endfacet
  facet normal 0 0.663123 -0.74851
    outer loop
      vertex 48 41.2919 -63.2723
      vertex 36 39.8589 -64.5418
      vertex 36 41.2919 -63.2723
    endloop
  endfacet
  facet normal -0 0.464723 0.885456
    outer loop
      vertex 36 47.6525 -17.006
      vertex 48 45.9573 -16.1162
      vertex 48 47.6525 -17.006
    endloop
  endfacet
  facet normal 0 0.464723 0.885456
    outer loop
      vertex 48 45.9573 -16.1162
      vertex 36 47.6525 -17.006
      vertex 36 45.9573 -16.1162
    endloop
  endfacet
  facet normal 0 0.752577 -0.658505
    outer loop
      vertex 48 41.2919 -63.2723
      vertex 36 48.2919 -55.2723
      vertex 48 48.2919 -55.2723
    endloop
  endfacet
  facet normal 0 0.752577 -0.658505
    outer loop
      vertex 36 48.2919 -55.2723
      vertex 48 41.2919 -63.2723
      vertex 36 41.2919 -63.2723
    endloop
  endfacet
  facet normal 0 0.822983 0.568066
    outer loop
      vertex 48 48.7401 -18.5816
      vertex 36 47.6525 -17.006
      vertex 48 47.6525 -17.006
    endloop
  endfacet
  facet normal 0 0.822983 0.568066
    outer loop
      vertex 36 47.6525 -17.006
      vertex 48 48.7401 -18.5816
      vertex 36 48.7401 -18.5816
    endloop
  endfacet
  facet normal 0 0.992709 0.120535
    outer loop
      vertex 48 48.9708 -20.4821
      vertex 36 48.7401 -18.5816
      vertex 48 48.7401 -18.5816
    endloop
  endfacet
  facet normal 0 0.992709 0.120535
    outer loop
      vertex 36 48.7401 -18.5816
      vertex 48 48.9708 -20.4821
      vertex 36 48.9708 -20.4821
    endloop
  endfacet
  facet normal 0 1 0
    outer loop
      vertex 48 48.9708 -20.4821
      vertex 42 48.9708 -22.5
      vertex 36 48.9708 -20.4821
    endloop
  endfacet
  facet normal 0 1 0
    outer loop
      vertex 48 48.9708 -20.4821
      vertex 42.574 48.9708 -22.6142
      vertex 42 48.9708 -22.5
    endloop
  endfacet
  facet normal 0 1 0
    outer loop
      vertex 48 48.9708 -20.4821
      vertex 43.0607 48.9708 -22.9393
      vertex 42.574 48.9708 -22.6142
    endloop
  endfacet
  facet normal 0 1 0
    outer loop
      vertex 48 48.9708 -20.4821
      vertex 43.3858 48.9708 -23.426
      vertex 43.0607 48.9708 -22.9393
    endloop
  endfacet
  facet normal 0 1 0
    outer loop
      vertex 48 48.9708 -20.4821
      vertex 43.5 48.9708 -24
      vertex 43.3858 48.9708 -23.426
    endloop
  endfacet
  facet normal 0 1 0
    outer loop
      vertex 48 48.9708 -20.4821
      vertex 43.3858 48.9708 -24.574
      vertex 43.5 48.9708 -24
    endloop
  endfacet
  facet normal 0 1 0
    outer loop
      vertex 48 48.9708 -20.4821
      vertex 43.0607 48.9708 -25.0607
      vertex 43.3858 48.9708 -24.574
    endloop
  endfacet
  facet normal 0 1 0
    outer loop
      vertex 42.574 48.9708 -25.3858
      vertex 48 48.9708 -53.4821
      vertex 42 48.9708 -25.5
    endloop
  endfacet
  facet normal 0 1 0
    outer loop
      vertex 43.0607 48.9708 -25.0607
      vertex 48 48.9708 -53.4821
      vertex 42.574 48.9708 -25.3858
    endloop
  endfacet
  facet normal 0 1 -0
    outer loop
      vertex 48 48.9708 -53.4821
      vertex 43.0607 48.9708 -25.0607
      vertex 48 48.9708 -20.4821
    endloop
  endfacet
  facet normal 0 1 -0
    outer loop
      vertex 41.426 48.9708 -22.6142
      vertex 36 48.9708 -20.4821
      vertex 42 48.9708 -22.5
    endloop
  endfacet
  facet normal 0 1 -0
    outer loop
      vertex 40.9393 48.9708 -22.9393
      vertex 36 48.9708 -20.4821
      vertex 41.426 48.9708 -22.6142
    endloop
  endfacet
  facet normal 0 1 -0
    outer loop
      vertex 40.6142 48.9708 -23.426
      vertex 36 48.9708 -20.4821
      vertex 40.9393 48.9708 -22.9393
    endloop
  endfacet
  facet normal 0 1 -0
    outer loop
      vertex 40.5 48.9708 -24
      vertex 36 48.9708 -20.4821
      vertex 40.6142 48.9708 -23.426
    endloop
  endfacet
  facet normal 0 1 0
    outer loop
      vertex 40.6142 48.9708 -24.574
      vertex 36 48.9708 -20.4821
      vertex 40.5 48.9708 -24
    endloop
  endfacet
  facet normal 0 1 0
    outer loop
      vertex 40.9393 48.9708 -25.0607
      vertex 36 48.9708 -20.4821
      vertex 40.6142 48.9708 -24.574
    endloop
  endfacet
  facet normal 0 1 0
    outer loop
      vertex 36 48.9708 -53.4821
      vertex 42 48.9708 -25.5
      vertex 48 48.9708 -53.4821
    endloop
  endfacet
  facet normal 0 1 0
    outer loop
      vertex 42 48.9708 -25.5
      vertex 36 48.9708 -53.4821
      vertex 41.426 48.9708 -25.3858
    endloop
  endfacet
  facet normal 0 1 0
    outer loop
      vertex 41.426 48.9708 -25.3858
      vertex 36 48.9708 -53.4821
      vertex 40.9393 48.9708 -25.0607
    endloop
  endfacet
  facet normal 0 1 0
    outer loop
      vertex 40.9393 48.9708 -25.0607
      vertex 36 48.9708 -53.4821
      vertex 36 48.9708 -20.4821
    endloop
  endfacet
  facet normal 0 0.935017 -0.354604
    outer loop
      vertex 48 48.2919 -55.2723
      vertex 36 48.9708 -53.4821
      vertex 48 48.9708 -53.4821
    endloop
  endfacet
  facet normal 0 0.935017 -0.354604
    outer loop
      vertex 36 48.9708 -53.4821
      vertex 48 48.2919 -55.2723
      vertex 36 48.2919 -55.2723
    endloop
  endfacet
  facet normal 0 0 -1
    outer loop
      vertex 36 5 -65
      vertex 48 38 -65
      vertex 48 5 -65
    endloop
  endfacet
  facet normal -0 0 -1
    outer loop
      vertex 48 38 -65
      vertex 36 5 -65
      vertex 36 38 -65
    endloop
  endfacet
  facet normal 1 0 0
    outer loop
      vertex 48 36.1503 -58.1
      vertex 48 35.4189 -60.5924
      vertex 48 35.5 -61
    endloop
  endfacet
  facet normal 1 0 0
    outer loop
      vertex 48 36.1503 -58.1
      vertex 48 35.3858 -60.426
      vertex 48 35.4189 -60.5924
    endloop
  endfacet
  facet normal 1 0 0
    outer loop
      vertex 48 36.1503 -58.1
      vertex 48 35.0607 -59.9393
      vertex 48 35.3858 -60.426
    endloop
  endfacet
  facet normal 1 0 0
    outer loop
      vertex 48 36.1503 -58.1
      vertex 48 34.574 -59.6142
      vertex 48 35.0607 -59.9393
    endloop
  endfacet
  facet normal 1 0 0
    outer loop
      vertex 48 36.1503 -58.1
      vertex 48 34.4076 -59.5811
      vertex 48 34.574 -59.6142
    endloop
  endfacet
  facet normal 1 0 0
    outer loop
      vertex 48 36.1503 -58.1
      vertex 48 34 -59.5
      vertex 48 34.4076 -59.5811
    endloop
  endfacet
  facet normal 1 0 0
    outer loop
      vertex 48 36.1503 -58.1
      vertex 48 33.5924 -59.5811
      vertex 48 34 -59.5
    endloop
  endfacet
  facet normal 1 0 0
    outer loop
      vertex 48 36.1503 -58.1
      vertex 48 33.426 -59.6142
      vertex 48 33.5924 -59.5811
    endloop
  endfacet
  facet normal 1 -0 0
    outer loop
      vertex 48 7.90466 -60.5207
      vertex 48 32.5811 -60.5924
      vertex 48 32.6142 -60.426
    endloop
  endfacet
  facet normal 1 0 0
    outer loop
      vertex 48 32.5811 -60.5924
      vertex 48 8 -61
      vertex 48 32.5 -61
    endloop
  endfacet
  facet normal 1 0 0
    outer loop
      vertex 48 7.88582 -60.426
      vertex 48 32.6142 -60.426
      vertex 48 32.9393 -59.9393
    endloop
  endfacet
  facet normal 1 0 0
    outer loop
      vertex 48 7.56066 -59.9393
      vertex 48 32.9393 -59.9393
      vertex 48 33.426 -59.6142
    endloop
  endfacet
  facet normal 1 0 0
    outer loop
      vertex 48 7.07403 -59.6142
      vertex 48 33.426 -59.6142
      vertex 48 36.1503 -58.1
    endloop
  endfacet
  facet normal 1 0 0
    outer loop
      vertex 48 32.5811 -60.5924
      vertex 48 7.90466 -60.5207
      vertex 48 8 -61
    endloop
  endfacet
  facet normal 1 0 0
    outer loop
      vertex 48 32.6142 -60.426
      vertex 48 7.88582 -60.426
      vertex 48 7.90466 -60.5207
    endloop
  endfacet
  facet normal 1 0 0
    outer loop
      vertex 48 32.9393 -59.9393
      vertex 48 7.56066 -59.9393
      vertex 48 7.88582 -60.426
    endloop
  endfacet
  facet normal 1 0 0
    outer loop
      vertex 48 33.426 -59.6142
      vertex 48 7.07403 -59.6142
      vertex 48 7.56066 -59.9393
    endloop
  endfacet
  facet normal 1 -0 0
    outer loop
      vertex 48 3.84975 -58.1
      vertex 48 7.07403 -59.6142
      vertex 48 36.1503 -58.1
    endloop
  endfacet
  facet normal 1 0 0
    outer loop
      vertex 48 7.07403 -59.6142
      vertex 48 3.84975 -58.1
      vertex 48 6.97931 -59.5953
    endloop
  endfacet
  facet normal 1 0 0
    outer loop
      vertex 48 6.97931 -59.5953
      vertex 48 3.84975 -58.1
      vertex 48 6.5 -59.5
    endloop
  endfacet
  facet normal 1 0 0
    outer loop
      vertex 48 3.84975 -58.1
      vertex 48 6.02069 -59.5953
      vertex 48 6.5 -59.5
    endloop
  endfacet
  facet normal 1 0 0
    outer loop
      vertex 48 3.84975 -58.1
      vertex 48 5.92598 -59.6142
      vertex 48 6.02069 -59.5953
    endloop
  endfacet
  facet normal 1 0 0
    outer loop
      vertex 48 3.84975 -58.1
      vertex 48 5.43934 -59.9393
      vertex 48 5.92598 -59.6142
    endloop
  endfacet
  facet normal 1 0 0
    outer loop
      vertex 48 3.84975 -58.1
      vertex 48 5.11418 -60.426
      vertex 48 5.43934 -59.9393
    endloop
  endfacet
  facet normal 1 -0 0
    outer loop
      vertex 48 1.25994 -59.5816
      vertex 48 5.11418 -60.426
      vertex 48 3.84975 -58.1
    endloop
  endfacet
  facet normal 1 0 0
    outer loop
      vertex 48 5.11418 -60.426
      vertex 48 1.25994 -59.5816
      vertex 48 5.09534 -60.5207
    endloop
  endfacet
  facet normal 1 0 0
    outer loop
      vertex 48 1.02917 -61.4821
      vertex 48 5 -61
      vertex 48 1.25994 -59.5816
    endloop
  endfacet
  facet normal 1 -0 0
    outer loop
      vertex 48 2.34751 -58.006
      vertex 48 3.84975 -58.1
      vertex 48 3.27101 -57.5213
    endloop
  endfacet
  facet normal 1 0 0
    outer loop
      vertex 48 5.01884 -61.0947
      vertex 48 3.14111 -64.5418
      vertex 48 5 -65
    endloop
  endfacet
  facet normal 1 0 0
    outer loop
      vertex 48 3.84975 -58.1
      vertex 48 2.34751 -58.006
      vertex 48 1.25994 -59.5816
    endloop
  endfacet
  facet normal 1 0 0
    outer loop
      vertex 48 5.01884 -61.0947
      vertex 48 1.70807 -63.2723
      vertex 48 3.14111 -64.5418
    endloop
  endfacet
  facet normal 1 0 0
    outer loop
      vertex 48 5 -61
      vertex 48 1.02917 -61.4821
      vertex 48 5.01884 -61.0947
    endloop
  endfacet
  facet normal 1 0 0
    outer loop
      vertex 48 5.01884 -61.0947
      vertex 48 1.02917 -61.4821
      vertex 48 1.70807 -63.2723
    endloop
  endfacet
  facet normal 1 0 0
    outer loop
      vertex 48 45.074 -19.6142
      vertex 48 47.6525 -17.006
      vertex 48 45.9573 -16.1162
    endloop
  endfacet
  facet normal 1 0 0
    outer loop
      vertex 48 47.6525 -17.006
      vertex 48 45.8858 -20.426
      vertex 48 46 -21
    endloop
  endfacet
  facet normal 1 0 0
    outer loop
      vertex 48 47.6525 -17.006
      vertex 48 45.5607 -19.9393
      vertex 48 45.8858 -20.426
    endloop
  endfacet
  facet normal 1 0 0
    outer loop
      vertex 48 47.6525 -17.006
      vertex 48 45.074 -19.6142
      vertex 48 45.5607 -19.9393
    endloop
  endfacet
  facet normal 1 0 0
    outer loop
      vertex 48 45.9573 -16.1162
      vertex 48 44.5 -19.5
      vertex 48 45.074 -19.6142
    endloop
  endfacet
  facet normal 1 0 0
    outer loop
      vertex 48 45.9573 -16.1162
      vertex 48 43.926 -19.6142
      vertex 48 44.5 -19.5
    endloop
  endfacet
  facet normal 1 -0 0
    outer loop
      vertex 48 36.3665 -16.1162
      vertex 48 43.926 -19.6142
      vertex 48 45.9573 -16.1162
    endloop
  endfacet
  facet normal 1 0 0
    outer loop
      vertex 48 43.926 -19.6142
      vertex 48 36.3665 -16.1162
      vertex 48 43.4393 -19.9393
    endloop
  endfacet
  facet normal 1 0 0
    outer loop
      vertex 48 44.5 -22.5
      vertex 48 41.1 -53.1503
      vertex 48 48.9708 -53.4821
    endloop
  endfacet
  facet normal 1 0 0
    outer loop
      vertex 48 43.1142 -20.426
      vertex 48 41.1 -20.8497
      vertex 48 43 -21
    endloop
  endfacet
  facet normal 1 0 0
    outer loop
      vertex 48 43.4393 -19.9393
      vertex 48 41.1 -20.8497
      vertex 48 43.1142 -20.426
    endloop
  endfacet
  facet normal 1 0 0
    outer loop
      vertex 48 43.4393 -19.9393
      vertex 48 36.3665 -16.1162
      vertex 48 41.1 -20.8497
    endloop
  endfacet
  facet normal 1 0 0
    outer loop
      vertex 48 46 -21
      vertex 48 48.9708 -20.4821
      vertex 48 48.7401 -18.5816
    endloop
  endfacet
  facet normal 1 0 0
    outer loop
      vertex 48 45.074 -22.3858
      vertex 48 48.9708 -20.4821
      vertex 48 45.5607 -22.0607
    endloop
  endfacet
  facet normal 1 0 0
    outer loop
      vertex 48 46 -21
      vertex 48 48.7401 -18.5816
      vertex 48 47.6525 -17.006
    endloop
  endfacet
  facet normal 1 0 0
    outer loop
      vertex 48 48.9708 -20.4821
      vertex 48 46 -21
      vertex 48 45.8858 -21.574
    endloop
  endfacet
  facet normal 1 0 0
    outer loop
      vertex 48 48.9708 -20.4821
      vertex 48 45.8858 -21.574
      vertex 48 45.5607 -22.0607
    endloop
  endfacet
  facet normal 1 0 0
    outer loop
      vertex 48 48.9708 -20.4821
      vertex 48 45.074 -22.3858
      vertex 48 48.9708 -53.4821
    endloop
  endfacet
  facet normal 1 -0 0
    outer loop
      vertex 48 44.5 -22.5
      vertex 48 48.9708 -53.4821
      vertex 48 45.074 -22.3858
    endloop
  endfacet
  facet normal 1 0 0
    outer loop
      vertex 48 41.1 -53.1503
      vertex 48 44.5 -22.5
      vertex 48 43.926 -22.3858
    endloop
  endfacet
  facet normal 1 0 0
    outer loop
      vertex 48 41.1 -20.8497
      vertex 48 43.926 -22.3858
      vertex 48 43.4393 -22.0607
    endloop
  endfacet
  facet normal 1 0 0
    outer loop
      vertex 48 41.1 -53.1503
      vertex 48 43.926 -22.3858
      vertex 48 41.1 -20.8497
    endloop
  endfacet
  facet normal 1 0 0
    outer loop
      vertex 48 41.1 -20.8497
      vertex 48 43.4393 -22.0607
      vertex 48 43.1142 -21.574
    endloop
  endfacet
  facet normal 1 0 0
    outer loop
      vertex 48 41.1 -20.8497
      vertex 48 43.1142 -21.574
      vertex 48 43 -21
    endloop
  endfacet
  facet normal 1 0 0
    outer loop
      vertex 48 48.9708 -53.4821
      vertex 48 41.2919 -63.2723
      vertex 48 48.2919 -55.2723
    endloop
  endfacet
  facet normal 1 0 0
    outer loop
      vertex 48 48.9708 -53.4821
      vertex 48 41.1 -53.1503
      vertex 48 41.2919 -63.2723
    endloop
  endfacet
  facet normal 1 -0 0
    outer loop
      vertex 48 36.1503 -58.1
      vertex 48 41.2919 -63.2723
      vertex 48 41.1 -53.1503
    endloop
  endfacet
  facet normal 1 -0 0
    outer loop
      vertex 48 35.5 -61
      vertex 48 41.2919 -63.2723
      vertex 48 36.1503 -58.1
    endloop
  endfacet
  facet normal 1 0 0
    outer loop
      vertex 48 41.2919 -63.2723
      vertex 48 35.5 -61
      vertex 48 39.8589 -64.5418
    endloop
  endfacet
  facet normal 1 -0 0
    outer loop
      vertex 48 35.4669 -61.1665
      vertex 48 39.8589 -64.5418
      vertex 48 35.5 -61
    endloop
  endfacet
  facet normal 1 -0 0
    outer loop
      vertex 48 35.3858 -61.574
      vertex 48 39.8589 -64.5418
      vertex 48 35.4669 -61.1665
    endloop
  endfacet
  facet normal 1 0 0
    outer loop
      vertex 48 39.8589 -64.5418
      vertex 48 35.3858 -61.574
      vertex 48 38 -65
    endloop
  endfacet
  facet normal 1 -0 0
    outer loop
      vertex 48 35.0607 -62.0607
      vertex 48 38 -65
      vertex 48 35.3858 -61.574
    endloop
  endfacet
  facet normal 1 -0 0
    outer loop
      vertex 48 34.574 -62.3858
      vertex 48 38 -65
      vertex 48 35.0607 -62.0607
    endloop
  endfacet
  facet normal 1 -0 0
    outer loop
      vertex 48 34.1665 -62.4669
      vertex 48 38 -65
      vertex 48 34.574 -62.3858
    endloop
  endfacet
  facet normal 1 -0 0
    outer loop
      vertex 48 34 -62.5
      vertex 48 38 -65
      vertex 48 34.1665 -62.4669
    endloop
  endfacet
  facet normal 1 0 0
    outer loop
      vertex 48 33.8335 -62.4669
      vertex 48 38 -65
      vertex 48 34 -62.5
    endloop
  endfacet
  facet normal 1 0 0
    outer loop
      vertex 48 33.426 -62.3858
      vertex 48 38 -65
      vertex 48 33.8335 -62.4669
    endloop
  endfacet
  facet normal 1 -0 0
    outer loop
      vertex 48 8 -61
      vertex 48 32.5331 -61.1665
      vertex 48 32.5 -61
    endloop
  endfacet
  facet normal 1 -0 0
    outer loop
      vertex 48 7.98116 -61.0947
      vertex 48 32.5331 -61.1665
      vertex 48 8 -61
    endloop
  endfacet
  facet normal 1 0 0
    outer loop
      vertex 48 32.5331 -61.1665
      vertex 48 7.98116 -61.0947
      vertex 48 32.6142 -61.574
    endloop
  endfacet
  facet normal 1 0 0
    outer loop
      vertex 48 7.88582 -61.574
      vertex 48 32.6142 -61.574
      vertex 48 7.98116 -61.0947
    endloop
  endfacet
  facet normal 1 0 0
    outer loop
      vertex 48 32.6142 -61.574
      vertex 48 7.88582 -61.574
      vertex 48 32.9393 -62.0607
    endloop
  endfacet
  facet normal 1 0 0
    outer loop
      vertex 48 7.56066 -62.0607
      vertex 48 32.9393 -62.0607
      vertex 48 7.88582 -61.574
    endloop
  endfacet
  facet normal 1 0 0
    outer loop
      vertex 48 5 -65
      vertex 48 32.9393 -62.0607
      vertex 48 7.56066 -62.0607
    endloop
  endfacet
  facet normal 1 0 0
    outer loop
      vertex 48 32.9393 -62.0607
      vertex 48 5 -65
      vertex 48 33.426 -62.3858
    endloop
  endfacet
  facet normal 1 0 0
    outer loop
      vertex 48 5 -65
      vertex 48 7.56066 -62.0607
      vertex 48 7.07403 -62.3858
    endloop
  endfacet
  facet normal 1 0 0
    outer loop
      vertex 48 5 -65
      vertex 48 7.07403 -62.3858
      vertex 48 6.59471 -62.4812
    endloop
  endfacet
  facet normal 1 0 0
    outer loop
      vertex 48 5 -65
      vertex 48 6.59471 -62.4812
      vertex 48 6.5 -62.5
    endloop
  endfacet
  facet normal 1 0 0
    outer loop
      vertex 48 5 -65
      vertex 48 6.40529 -62.4812
      vertex 48 5.92598 -62.3858
    endloop
  endfacet
  facet normal 1 0 0
    outer loop
      vertex 48 33.426 -62.3858
      vertex 48 5 -65
      vertex 48 38 -65
    endloop
  endfacet
  facet normal 1 0 0
    outer loop
      vertex 48 6.40529 -62.4812
      vertex 48 5 -65
      vertex 48 6.5 -62.5
    endloop
  endfacet
  facet normal 1 0 0
    outer loop
      vertex 48 5.43934 -62.0607
      vertex 48 5 -65
      vertex 48 5.92598 -62.3858
    endloop
  endfacet
  facet normal 1 0 0
    outer loop
      vertex 48 5.11418 -61.574
      vertex 48 5 -65
      vertex 48 5.43934 -62.0607
    endloop
  endfacet
  facet normal 1 0 0
    outer loop
      vertex 48 5.01884 -61.0947
      vertex 48 5 -65
      vertex 48 5.11418 -61.574
    endloop
  endfacet
  facet normal 1 0 0
    outer loop
      vertex 48 5.09534 -60.5207
      vertex 48 1.25994 -59.5816
      vertex 48 5 -61
    endloop
  endfacet
  facet normal 0 0.239315 -0.970942
    outer loop
      vertex 36 39.8589 -64.5418
      vertex 48 39.8589 -64.5418
      vertex 48 38 -65
    endloop
  endfacet
  facet normal 0 0.239315 -0.970942
    outer loop
      vertex 36 38 -65
      vertex 36 39.8589 -64.5418
      vertex 48 38 -65
    endloop
  endfacet
  facet normal 0 -0.464723 0.885456
    outer loop
      vertex 36 3.27101 -57.5213
      vertex 48 2.34751 -58.006
      vertex 48 3.27101 -57.5213
    endloop
  endfacet
  facet normal 0 -0.464723 0.885456
    outer loop
      vertex 48 2.34751 -58.006
      vertex 36 3.27101 -57.5213
      vertex 36 2.34751 -58.006
    endloop
  endfacet
  facet normal 0 -0.935016 -0.354605
    outer loop
      vertex 36 1.70807 -63.2723
      vertex 48 1.02917 -61.4821
      vertex 36 1.02917 -61.4821
    endloop
  endfacet
  facet normal 0 -0.935016 -0.354605
    outer loop
      vertex 48 1.02917 -61.4821
      vertex 36 1.70807 -63.2723
      vertex 48 1.70807 -63.2723
    endloop
  endfacet
  facet normal 0 -0.822984 0.568065
    outer loop
      vertex 36 1.25994 -59.5816
      vertex 48 2.34751 -58.006
      vertex 36 2.34751 -58.006
    endloop
  endfacet
  facet normal 0 -0.822984 0.568065
    outer loop
      vertex 48 2.34751 -58.006
      vertex 36 1.25994 -59.5816
      vertex 48 1.25994 -59.5816
    endloop
  endfacet
  facet normal 0 -0.239316 -0.970942
    outer loop
      vertex 36 3.14111 -64.5418
      vertex 36 5 -65
      vertex 48 5 -65
    endloop
  endfacet
  facet normal 0 -0.992709 0.120536
    outer loop
      vertex 36 1.02917 -61.4821
      vertex 48 1.25994 -59.5816
      vertex 36 1.25994 -59.5816
    endloop
  endfacet
  facet normal 0 -0.992709 0.120536
    outer loop
      vertex 48 1.25994 -59.5816
      vertex 36 1.02917 -61.4821
      vertex 48 1.02917 -61.4821
    endloop
  endfacet
  facet normal 0 -0.239316 -0.970942
    outer loop
      vertex 36 3.14111 -64.5418
      vertex 48 5 -65
      vertex 48 3.14111 -64.5418
    endloop
  endfacet
  facet normal 0 -0.663123 -0.748511
    outer loop
      vertex 36 1.70807 -63.2723
      vertex 48 3.14111 -64.5418
      vertex 48 1.70807 -63.2723
    endloop
  endfacet
  facet normal -0 -0.663123 -0.748511
    outer loop
      vertex 48 3.14111 -64.5418
      vertex 36 1.70807 -63.2723
      vertex 36 3.14111 -64.5418
    endloop
  endfacet
  facet normal 0.980785 0 -0.195092
    outer loop
      vertex 40.6142 41.1 -23.426
      vertex 40.5 48.9708 -24
      vertex 40.6142 48.9708 -23.426
    endloop
  endfacet
  facet normal 0.980785 0 -0.195092
    outer loop
      vertex 40.5 48.9708 -24
      vertex 40.6142 41.1 -23.426
      vertex 40.5 41.1 -24
    endloop
  endfacet
  facet normal 0.831471 0 -0.555568
    outer loop
      vertex 40.9393 41.1 -22.9393
      vertex 40.6142 48.9708 -23.426
      vertex 40.9393 48.9708 -22.9393
    endloop
  endfacet
  facet normal 0.831471 0 -0.555568
    outer loop
      vertex 40.6142 48.9708 -23.426
      vertex 40.9393 41.1 -22.9393
      vertex 40.6142 41.1 -23.426
    endloop
  endfacet
  facet normal -0.195092 -0 -0.980785
    outer loop
      vertex 42 44.5 -22.5
      vertex 42.574 41.1 -22.6142
      vertex 42 41.1 -22.5
    endloop
  endfacet
  facet normal -0.195092 0 -0.980785
    outer loop
      vertex 42.574 41.1 -22.6142
      vertex 42 44.5 -22.5
      vertex 42.574 48.9708 -22.6142
    endloop
  endfacet
  facet normal -0.195092 0 -0.980785
    outer loop
      vertex 42.574 48.9708 -22.6142
      vertex 42 44.5 -22.5
      vertex 42 48.9708 -22.5
    endloop
  endfacet
  facet normal 0.555569 0 -0.831471
    outer loop
      vertex 40.9393 41.1 -22.9393
      vertex 41.426 48.9708 -22.6142
      vertex 41.426 41.1 -22.6142
    endloop
  endfacet
  facet normal 0.555569 0 -0.831471
    outer loop
      vertex 41.426 48.9708 -22.6142
      vertex 40.9393 41.1 -22.9393
      vertex 40.9393 48.9708 -22.9393
    endloop
  endfacet
  facet normal -0.831471 0 -0.555568
    outer loop
      vertex 43.3858 41.1 -23.426
      vertex 43.0607 48.9708 -22.9393
      vertex 43.3858 48.9708 -23.426
    endloop
  endfacet
  facet normal -0.831471 -0 -0.555568
    outer loop
      vertex 43.0607 48.9708 -22.9393
      vertex 43.3858 41.1 -23.426
      vertex 43.0607 41.1 -22.9393
    endloop
  endfacet
  facet normal -0.555569 0 -0.831471
    outer loop
      vertex 42.574 41.1 -22.6142
      vertex 43.0607 48.9708 -22.9393
      vertex 43.0607 41.1 -22.9393
    endloop
  endfacet
  facet normal -0.555569 0 -0.831471
    outer loop
      vertex 43.0607 48.9708 -22.9393
      vertex 42.574 41.1 -22.6142
      vertex 42.574 48.9708 -22.6142
    endloop
  endfacet
  facet normal 0.831472 -0 0.555566
    outer loop
      vertex 40.6142 41.1 -24.574
      vertex 40.9393 48.9708 -25.0607
      vertex 40.6142 48.9708 -24.574
    endloop
  endfacet
  facet normal 0.831472 0 0.555566
    outer loop
      vertex 40.9393 48.9708 -25.0607
      vertex 40.6142 41.1 -24.574
      vertex 40.9393 41.1 -25.0607
    endloop
  endfacet
  facet normal 0.980785 -0 0.195092
    outer loop
      vertex 40.5 41.1 -24
      vertex 40.6142 48.9708 -24.574
      vertex 40.5 48.9708 -24
    endloop
  endfacet
  facet normal 0.980785 0 0.195092
    outer loop
      vertex 40.6142 48.9708 -24.574
      vertex 40.5 41.1 -24
      vertex 40.6142 41.1 -24.574
    endloop
  endfacet
  facet normal -0.831472 0 0.555566
    outer loop
      vertex 43.0607 41.1 -25.0607
      vertex 43.3858 48.9708 -24.574
      vertex 43.0607 48.9708 -25.0607
    endloop
  endfacet
  facet normal -0.831472 0 0.555566
    outer loop
      vertex 43.3858 48.9708 -24.574
      vertex 43.0607 41.1 -25.0607
      vertex 43.3858 41.1 -24.574
    endloop
  endfacet
  facet normal 0.195092 0 -0.980785
    outer loop
      vertex 41.426 41.1 -22.6142
      vertex 42 44.5 -22.5
      vertex 42 41.1 -22.5
    endloop
  endfacet
  facet normal 0.195092 0 -0.980785
    outer loop
      vertex 41.426 48.9708 -22.6142
      vertex 42 44.5 -22.5
      vertex 41.426 41.1 -22.6142
    endloop
  endfacet
  facet normal 0.195092 0 -0.980785
    outer loop
      vertex 42 44.5 -22.5
      vertex 41.426 48.9708 -22.6142
      vertex 42 48.9708 -22.5
    endloop
  endfacet
  facet normal -0.980785 0 -0.195092
    outer loop
      vertex 43.5 41.1 -24
      vertex 43.3858 48.9708 -23.426
      vertex 43.5 48.9708 -24
    endloop
  endfacet
  facet normal -0.980785 -0 -0.195092
    outer loop
      vertex 43.3858 48.9708 -23.426
      vertex 43.5 41.1 -24
      vertex 43.3858 41.1 -23.426
    endloop
  endfacet
  facet normal -0.980785 0 0.195092
    outer loop
      vertex 43.3858 41.1 -24.574
      vertex 43.5 48.9708 -24
      vertex 43.3858 48.9708 -24.574
    endloop
  endfacet
  facet normal -0.980785 0 0.195092
    outer loop
      vertex 43.5 48.9708 -24
      vertex 43.3858 41.1 -24.574
      vertex 43.5 41.1 -24
    endloop
  endfacet
  facet normal 0.555566 0 0.831472
    outer loop
      vertex 40.9393 48.9708 -25.0607
      vertex 41.426 41.1 -25.3858
      vertex 41.426 48.9708 -25.3858
    endloop
  endfacet
  facet normal 0.555566 0 0.831472
    outer loop
      vertex 41.426 41.1 -25.3858
      vertex 40.9393 48.9708 -25.0607
      vertex 40.9393 41.1 -25.0607
    endloop
  endfacet
  facet normal 0.195092 0 0.980785
    outer loop
      vertex 41.426 48.9708 -25.3858
      vertex 42 41.1 -25.5
      vertex 42 48.9708 -25.5
    endloop
  endfacet
  facet normal 0.195092 0 0.980785
    outer loop
      vertex 42 41.1 -25.5
      vertex 41.426 48.9708 -25.3858
      vertex 41.426 41.1 -25.3858
    endloop
  endfacet
  facet normal -0.555566 0 0.831472
    outer loop
      vertex 42.574 48.9708 -25.3858
      vertex 43.0607 41.1 -25.0607
      vertex 43.0607 48.9708 -25.0607
    endloop
  endfacet
  facet normal -0.555566 0 0.831472
    outer loop
      vertex 43.0607 41.1 -25.0607
      vertex 42.574 48.9708 -25.3858
      vertex 42.574 41.1 -25.3858
    endloop
  endfacet
  facet normal -0.195092 0 0.980785
    outer loop
      vertex 42 48.9708 -25.5
      vertex 42.574 41.1 -25.3858
      vertex 42.574 48.9708 -25.3858
    endloop
  endfacet
  facet normal -0.195092 0 0.980785
    outer loop
      vertex 42.574 41.1 -25.3858
      vertex 42 48.9708 -25.5
      vertex 42 41.1 -25.5
    endloop
  endfacet
  facet normal 0 -0.195092 0.980785
    outer loop
      vertex 48 45.074 -22.3858
      vertex 42 44.5 -22.5
      vertex 48 44.5 -22.5
    endloop
  endfacet
  facet normal 0 -0.195092 0.980785
    outer loop
      vertex 36 45.074 -22.3858
      vertex 42 44.5 -22.5
      vertex 48 45.074 -22.3858
    endloop
  endfacet
  facet normal 0 -0.195092 0.980785
    outer loop
      vertex 42 44.5 -22.5
      vertex 36 45.074 -22.3858
      vertex 36 44.5 -22.5
    endloop
  endfacet
  facet normal 0 0.555569 -0.831471
    outer loop
      vertex 36 43.4393 -19.9393
      vertex 48 43.926 -19.6142
      vertex 48 43.4393 -19.9393
    endloop
  endfacet
  facet normal 0 0.555569 -0.831471
    outer loop
      vertex 48 43.926 -19.6142
      vertex 36 43.4393 -19.9393
      vertex 36 43.926 -19.6142
    endloop
  endfacet
  facet normal 0 0.980785 0.195092
    outer loop
      vertex 48 43.1142 -21.574
      vertex 36 43 -21
      vertex 48 43 -21
    endloop
  endfacet
  facet normal 0 0.980785 0.195092
    outer loop
      vertex 36 43 -21
      vertex 48 43.1142 -21.574
      vertex 36 43.1142 -21.574
    endloop
  endfacet
  facet normal 0 -0.195092 -0.980785
    outer loop
      vertex 36 44.5 -19.5
      vertex 48 45.074 -19.6142
      vertex 48 44.5 -19.5
    endloop
  endfacet
  facet normal -0 -0.195092 -0.980785
    outer loop
      vertex 48 45.074 -19.6142
      vertex 36 44.5 -19.5
      vertex 36 45.074 -19.6142
    endloop
  endfacet
  facet normal 0 -0.555566 0.831472
    outer loop
      vertex 36 45.5607 -22.0607
      vertex 48 45.074 -22.3858
      vertex 48 45.5607 -22.0607
    endloop
  endfacet
  facet normal 0 -0.555566 0.831472
    outer loop
      vertex 48 45.074 -22.3858
      vertex 36 45.5607 -22.0607
      vertex 36 45.074 -22.3858
    endloop
  endfacet
  facet normal 0 0.831471 -0.555568
    outer loop
      vertex 48 43.1142 -20.426
      vertex 36 43.4393 -19.9393
      vertex 48 43.4393 -19.9393
    endloop
  endfacet
  facet normal 0 0.831471 -0.555568
    outer loop
      vertex 36 43.4393 -19.9393
      vertex 48 43.1142 -20.426
      vertex 36 43.1142 -20.426
    endloop
  endfacet
  facet normal 0 0.195092 -0.980785
    outer loop
      vertex 36 43.926 -19.6142
      vertex 48 44.5 -19.5
      vertex 48 43.926 -19.6142
    endloop
  endfacet
  facet normal 0 0.195092 -0.980785
    outer loop
      vertex 48 44.5 -19.5
      vertex 36 43.926 -19.6142
      vertex 36 44.5 -19.5
    endloop
  endfacet
  facet normal 0 0.980785 -0.195092
    outer loop
      vertex 48 43 -21
      vertex 36 43.1142 -20.426
      vertex 48 43.1142 -20.426
    endloop
  endfacet
  facet normal 0 0.980785 -0.195092
    outer loop
      vertex 36 43.1142 -20.426
      vertex 48 43 -21
      vertex 36 43 -21
    endloop
  endfacet
  facet normal 0 0.831472 0.555566
    outer loop
      vertex 48 43.4393 -22.0607
      vertex 36 43.1142 -21.574
      vertex 48 43.1142 -21.574
    endloop
  endfacet
  facet normal 0 0.831472 0.555566
    outer loop
      vertex 36 43.1142 -21.574
      vertex 48 43.4393 -22.0607
      vertex 36 43.4393 -22.0607
    endloop
  endfacet
  facet normal -0 0.555566 0.831472
    outer loop
      vertex 36 43.926 -22.3858
      vertex 48 43.4393 -22.0607
      vertex 48 43.926 -22.3858
    endloop
  endfacet
  facet normal 0 0.555566 0.831472
    outer loop
      vertex 48 43.4393 -22.0607
      vertex 36 43.926 -22.3858
      vertex 36 43.4393 -22.0607
    endloop
  endfacet
  facet normal 0 -0.980785 0.195092
    outer loop
      vertex 36 45.8858 -21.574
      vertex 48 46 -21
      vertex 36 46 -21
    endloop
  endfacet
  facet normal 0 -0.980785 0.195092
    outer loop
      vertex 48 46 -21
      vertex 36 45.8858 -21.574
      vertex 48 45.8858 -21.574
    endloop
  endfacet
  facet normal 0 -0.831472 0.555566
    outer loop
      vertex 36 45.5607 -22.0607
      vertex 48 45.8858 -21.574
      vertex 36 45.8858 -21.574
    endloop
  endfacet
  facet normal 0 -0.831472 0.555566
    outer loop
      vertex 48 45.8858 -21.574
      vertex 36 45.5607 -22.0607
      vertex 48 45.5607 -22.0607
    endloop
  endfacet
  facet normal -0 0.195092 0.980785
    outer loop
      vertex 42 44.5 -22.5
      vertex 48 43.926 -22.3858
      vertex 48 44.5 -22.5
    endloop
  endfacet
  facet normal 0 0.195092 0.980785
    outer loop
      vertex 36 43.926 -22.3858
      vertex 42 44.5 -22.5
      vertex 36 44.5 -22.5
    endloop
  endfacet
  facet normal 0 0.195092 0.980785
    outer loop
      vertex 42 44.5 -22.5
      vertex 36 43.926 -22.3858
      vertex 48 43.926 -22.3858
    endloop
  endfacet
  facet normal 0 -0.555569 -0.831471
    outer loop
      vertex 36 45.074 -19.6142
      vertex 48 45.5607 -19.9393
      vertex 48 45.074 -19.6142
    endloop
  endfacet
  facet normal -0 -0.555569 -0.831471
    outer loop
      vertex 48 45.5607 -19.9393
      vertex 36 45.074 -19.6142
      vertex 36 45.5607 -19.9393
    endloop
  endfacet
  facet normal 0 -0.831471 -0.555568
    outer loop
      vertex 36 45.8858 -20.426
      vertex 48 45.5607 -19.9393
      vertex 36 45.5607 -19.9393
    endloop
  endfacet
  facet normal 0 -0.831471 -0.555568
    outer loop
      vertex 48 45.5607 -19.9393
      vertex 36 45.8858 -20.426
      vertex 48 45.8858 -20.426
    endloop
  endfacet
  facet normal 0 -0.980785 -0.195092
    outer loop
      vertex 36 46 -21
      vertex 48 45.8858 -20.426
      vertex 36 45.8858 -20.426
    endloop
  endfacet
  facet normal 0 -0.980785 -0.195092
    outer loop
      vertex 48 45.8858 -20.426
      vertex 36 46 -21
      vertex 48 46 -21
    endloop
  endfacet
  facet normal -7.0478e-010 -0.1951 0.980783
    outer loop
      vertex 36 6.56027 -62.488
      vertex 48 6.5 -62.5
      vertex 48 6.59471 -62.4812
    endloop
  endfacet
  facet normal 0 -0.1951 0.980783
    outer loop
      vertex 48 6.5 -62.5
      vertex 36 6.56027 -62.488
      vertex 36 6.5 -62.5
    endloop
  endfacet
  facet normal 0 -0.19509 0.980785
    outer loop
      vertex 36 7.07403 -62.3858
      vertex 48 6.59471 -62.4812
      vertex 48 7.07403 -62.3858
    endloop
  endfacet
  facet normal -2.84319e-008 -0.195091 0.980785
    outer loop
      vertex 48 6.59471 -62.4812
      vertex 36 7.07403 -62.3858
      vertex 36 6.56027 -62.488
    endloop
  endfacet
  facet normal 0 0.555568 -0.831471
    outer loop
      vertex 36 5.43934 -59.9393
      vertex 48 5.92598 -59.6142
      vertex 48 5.43934 -59.9393
    endloop
  endfacet
  facet normal 0 0.555568 -0.831471
    outer loop
      vertex 48 5.92598 -59.6142
      vertex 36 5.43934 -59.9393
      vertex 36 5.92598 -59.6142
    endloop
  endfacet
  facet normal 0 0.980785 0.195094
    outer loop
      vertex 48 5 -61
      vertex 36 5.01199 -61.0603
      vertex 36 5 -61
    endloop
  endfacet
  facet normal 2.75427e-008 0.980786 0.195089
    outer loop
      vertex 36 5.01199 -61.0603
      vertex 48 5 -61
      vertex 48 5.01884 -61.0947
    endloop
  endfacet
  facet normal 3.95839e-008 0.980785 0.195093
    outer loop
      vertex 48 5.11418 -61.574
      vertex 36 5.01199 -61.0603
      vertex 48 5.01884 -61.0947
    endloop
  endfacet
  facet normal 0 0.980785 0.195092
    outer loop
      vertex 36 5.01199 -61.0603
      vertex 48 5.11418 -61.574
      vertex 36 5.11418 -61.574
    endloop
  endfacet
  facet normal -0 0.1951 0.980783
    outer loop
      vertex 36 6.5 -62.5
      vertex 48 6.40529 -62.4812
      vertex 48 6.5 -62.5
    endloop
  endfacet
  facet normal -1.10751e-009 0.1951 0.980783
    outer loop
      vertex 48 6.40529 -62.4812
      vertex 36 6.5 -62.5
      vertex 36 6.43973 -62.488
    endloop
  endfacet
  facet normal 0 -0.980785 -0.195094
    outer loop
      vertex 36 7.89781 -60.4862
      vertex 48 7.88582 -60.426
      vertex 36 7.88582 -60.426
    endloop
  endfacet
  facet normal 1.19235e-008 -0.980784 -0.195096
    outer loop
      vertex 48 7.88582 -60.426
      vertex 36 7.89781 -60.4862
      vertex 48 7.90466 -60.5207
    endloop
  endfacet
  facet normal 0 -0.831471 0.555569
    outer loop
      vertex 36 7.56066 -62.0607
      vertex 48 7.88582 -61.574
      vertex 36 7.88582 -61.574
    endloop
  endfacet
  facet normal 0 -0.831471 0.555569
    outer loop
      vertex 48 7.88582 -61.574
      vertex 36 7.56066 -62.0607
      vertex 48 7.56066 -62.0607
    endloop
  endfacet
  facet normal 3.03129e-008 -0.980785 -0.19509
    outer loop
      vertex 36 8 -61
      vertex 48 7.90466 -60.5207
      vertex 36 7.89781 -60.4862
    endloop
  endfacet
  facet normal 0 -0.980785 -0.195089
    outer loop
      vertex 48 7.90466 -60.5207
      vertex 36 8 -61
      vertex 48 8 -61
    endloop
  endfacet
  facet normal 0 -0.555568 0.831471
    outer loop
      vertex 36 7.56066 -62.0607
      vertex 48 7.07403 -62.3858
      vertex 48 7.56066 -62.0607
    endloop
  endfacet
  facet normal 0 -0.555568 0.831471
    outer loop
      vertex 48 7.07403 -62.3858
      vertex 36 7.56066 -62.0607
      vertex 36 7.07403 -62.3858
    endloop
  endfacet
  facet normal 7.0478e-010 -0.1951 -0.980783
    outer loop
      vertex 36 7.01375 -59.6022
      vertex 48 7.07403 -59.6142
      vertex 48 6.97931 -59.5953
    endloop
  endfacet
  facet normal -0 -0.1951 -0.980783
    outer loop
      vertex 48 7.07403 -59.6142
      vertex 36 7.01375 -59.6022
      vertex 36 7.07403 -59.6142
    endloop
  endfacet
  facet normal 0 0.831471 0.555569
    outer loop
      vertex 48 5.43934 -62.0607
      vertex 36 5.11418 -61.574
      vertex 48 5.11418 -61.574
    endloop
  endfacet
  facet normal 0 0.831471 0.555569
    outer loop
      vertex 36 5.11418 -61.574
      vertex 48 5.43934 -62.0607
      vertex 36 5.43934 -62.0607
    endloop
  endfacet
  facet normal 0 -0.831471 -0.555569
    outer loop
      vertex 36 7.88582 -60.426
      vertex 48 7.56066 -59.9393
      vertex 36 7.56066 -59.9393
    endloop
  endfacet
  facet normal 0 -0.831471 -0.555569
    outer loop
      vertex 48 7.56066 -59.9393
      vertex 36 7.88582 -60.426
      vertex 48 7.88582 -60.426
    endloop
  endfacet
  facet normal 0 -0.980785 0.195094
    outer loop
      vertex 36 7.98801 -61.0603
      vertex 48 8 -61
      vertex 36 8 -61
    endloop
  endfacet
  facet normal 2.75427e-008 -0.980786 0.195089
    outer loop
      vertex 48 8 -61
      vertex 36 7.98801 -61.0603
      vertex 48 7.98116 -61.0947
    endloop
  endfacet
  facet normal 0 -0.19509 -0.980785
    outer loop
      vertex 36 6.5 -59.5
      vertex 48 6.97931 -59.5953
      vertex 48 6.5 -59.5
    endloop
  endfacet
  facet normal 2.84319e-008 -0.195091 -0.980785
    outer loop
      vertex 48 6.97931 -59.5953
      vertex 36 6.5 -59.5
      vertex 36 7.01375 -59.6022
    endloop
  endfacet
  facet normal 0 -0.555568 -0.831471
    outer loop
      vertex 36 7.07403 -59.6142
      vertex 48 7.56066 -59.9393
      vertex 48 7.07403 -59.6142
    endloop
  endfacet
  facet normal -0 -0.555568 -0.831471
    outer loop
      vertex 48 7.56066 -59.9393
      vertex 36 7.07403 -59.6142
      vertex 36 7.56066 -59.9393
    endloop
  endfacet
  facet normal 0 0.831471 -0.555569
    outer loop
      vertex 48 5.11418 -60.426
      vertex 36 5.43934 -59.9393
      vertex 48 5.43934 -59.9393
    endloop
  endfacet
  facet normal 0 0.831471 -0.555569
    outer loop
      vertex 36 5.43934 -59.9393
      vertex 48 5.11418 -60.426
      vertex 36 5.11418 -60.426
    endloop
  endfacet
  facet normal 0 0.1951 -0.980783
    outer loop
      vertex 36 5.92598 -59.6142
      vertex 48 6.02069 -59.5953
      vertex 48 5.92598 -59.6142
    endloop
  endfacet
  facet normal 1.10751e-009 0.1951 -0.980783
    outer loop
      vertex 48 6.02069 -59.5953
      vertex 36 5.92598 -59.6142
      vertex 36 5.98625 -59.6022
    endloop
  endfacet
  facet normal 2.68904e-008 0.980785 -0.195091
    outer loop
      vertex 48 5 -61
      vertex 36 5.10219 -60.4862
      vertex 48 5.09534 -60.5207
    endloop
  endfacet
  facet normal 0 0.980785 -0.195092
    outer loop
      vertex 36 5.10219 -60.4862
      vertex 48 5 -61
      vertex 36 5 -61
    endloop
  endfacet
  facet normal -0 0.555568 0.831471
    outer loop
      vertex 36 5.92598 -62.3858
      vertex 48 5.43934 -62.0607
      vertex 48 5.92598 -62.3858
    endloop
  endfacet
  facet normal 0 0.555568 0.831471
    outer loop
      vertex 48 5.43934 -62.0607
      vertex 36 5.92598 -62.3858
      vertex 36 5.43934 -62.0607
    endloop
  endfacet
  facet normal 3.17045e-008 -0.980785 0.19509
    outer loop
      vertex 36 7.88582 -61.574
      vertex 48 7.98116 -61.0947
      vertex 36 7.98801 -61.0603
    endloop
  endfacet
  facet normal 0 -0.980785 0.195091
    outer loop
      vertex 48 7.98116 -61.0947
      vertex 36 7.88582 -61.574
      vertex 48 7.88582 -61.574
    endloop
  endfacet
  facet normal 2.93608e-008 0.19509 -0.980785
    outer loop
      vertex 36 5.98625 -59.6022
      vertex 48 6.5 -59.5
      vertex 48 6.02069 -59.5953
    endloop
  endfacet
  facet normal 0 0.195091 -0.980785
    outer loop
      vertex 48 6.5 -59.5
      vertex 36 5.98625 -59.6022
      vertex 36 6.5 -59.5
    endloop
  endfacet
  facet normal 0 0.980785 -0.195094
    outer loop
      vertex 48 5.11418 -60.426
      vertex 36 5.10219 -60.4862
      vertex 36 5.11418 -60.426
    endloop
  endfacet
  facet normal 1.19235e-008 0.980784 -0.195096
    outer loop
      vertex 36 5.10219 -60.4862
      vertex 48 5.11418 -60.426
      vertex 48 5.09534 -60.5207
    endloop
  endfacet
  facet normal -2.93608e-008 0.19509 0.980785
    outer loop
      vertex 36 6.43973 -62.488
      vertex 48 5.92598 -62.3858
      vertex 48 6.40529 -62.4812
    endloop
  endfacet
  facet normal 0 0.195091 0.980785
    outer loop
      vertex 48 5.92598 -62.3858
      vertex 36 6.43973 -62.488
      vertex 36 5.92598 -62.3858
    endloop
  endfacet
  facet normal -7.72207e-008 -0.195087 0.980786
    outer loop
      vertex 36 34.132 -62.4737
      vertex 48 34 -62.5
      vertex 48 34.1665 -62.4669
    endloop
  endfacet
  facet normal 0 -0.195081 0.980787
    outer loop
      vertex 48 34 -62.5
      vertex 36 34.132 -62.4737
      vertex 36 34 -62.5
    endloop
  endfacet
  facet normal 0 -0.195094 0.980785
    outer loop
      vertex 36 34.574 -62.3858
      vertex 48 34.1665 -62.4669
      vertex 48 34.574 -62.3858
    endloop
  endfacet
  facet normal -5.32469e-008 -0.195095 0.980784
    outer loop
      vertex 48 34.1665 -62.4669
      vertex 36 34.574 -62.3858
      vertex 36 34.132 -62.4737
    endloop
  endfacet
  facet normal 1.27176e-008 -0.195109 -0.980782
    outer loop
      vertex 36 34.442 -59.5879
      vertex 48 34.574 -59.6142
      vertex 48 34.4076 -59.5811
    endloop
  endfacet
  facet normal -0 -0.195108 -0.980782
    outer loop
      vertex 48 34.574 -59.6142
      vertex 36 34.442 -59.5879
      vertex 36 34.574 -59.6142
    endloop
  endfacet
  facet normal 0 0.831472 0.555566
    outer loop
      vertex 48 32.9393 -62.0607
      vertex 36 32.6142 -61.574
      vertex 48 32.6142 -61.574
    endloop
  endfacet
  facet normal 0 0.831472 0.555566
    outer loop
      vertex 36 32.6142 -61.574
      vertex 48 32.9393 -62.0607
      vertex 36 32.9393 -62.0607
    endloop
  endfacet
  facet normal -3.9394e-009 -0.980785 -0.195094
    outer loop
      vertex 36 35.5 -61
      vertex 48 35.4189 -60.5924
      vertex 36 35.4121 -60.558
    endloop
  endfacet
  facet normal 0 -0.980785 -0.195094
    outer loop
      vertex 48 35.4189 -60.5924
      vertex 36 35.5 -61
      vertex 48 35.5 -61
    endloop
  endfacet
  facet normal 0 0.980787 0.195081
    outer loop
      vertex 48 32.5 -61
      vertex 36 32.5263 -61.132
      vertex 36 32.5 -61
    endloop
  endfacet
  facet normal -7.72207e-008 0.980786 0.195087
    outer loop
      vertex 36 32.5263 -61.132
      vertex 48 32.5 -61
      vertex 48 32.5331 -61.1665
    endloop
  endfacet
  facet normal 0 -0.555566 -0.831472
    outer loop
      vertex 36 34.574 -59.6142
      vertex 48 35.0607 -59.9393
      vertex 48 34.574 -59.6142
    endloop
  endfacet
  facet normal -0 -0.555566 -0.831472
    outer loop
      vertex 48 35.0607 -59.9393
      vertex 36 34.574 -59.6142
      vertex 36 35.0607 -59.9393
    endloop
  endfacet
  facet normal 0 -0.980787 0.195081
    outer loop
      vertex 36 35.4737 -61.132
      vertex 48 35.5 -61
      vertex 36 35.5 -61
    endloop
  endfacet
  facet normal -7.72207e-008 -0.980786 0.195087
    outer loop
      vertex 48 35.5 -61
      vertex 36 35.4737 -61.132
      vertex 48 35.4669 -61.1665
    endloop
  endfacet
  facet normal -0 0.555566 0.831472
    outer loop
      vertex 36 33.426 -62.3858
      vertex 48 32.9393 -62.0607
      vertex 48 33.426 -62.3858
    endloop
  endfacet
  facet normal 0 0.555566 0.831472
    outer loop
      vertex 48 32.9393 -62.0607
      vertex 36 33.426 -62.3858
      vertex 36 32.9393 -62.0607
    endloop
  endfacet
  facet normal -0 0.195087 0.980786
    outer loop
      vertex 36 34 -62.5
      vertex 48 33.8335 -62.4669
      vertex 48 34 -62.5
    endloop
  endfacet
  facet normal -9.73638e-008 0.195081 0.980787
    outer loop
      vertex 48 33.8335 -62.4669
      vertex 36 34 -62.5
      vertex 36 33.868 -62.4737
    endloop
  endfacet
  facet normal 0 0.555566 -0.831472
    outer loop
      vertex 36 32.9393 -59.9393
      vertex 48 33.426 -59.6142
      vertex 48 32.9393 -59.9393
    endloop
  endfacet
  facet normal 0 0.555566 -0.831472
    outer loop
      vertex 48 33.426 -59.6142
      vertex 36 32.9393 -59.9393
      vertex 36 33.426 -59.6142
    endloop
  endfacet
  facet normal -3.16055e-007 0.980785 -0.195094
    outer loop
      vertex 48 32.5 -61
      vertex 36 32.5879 -60.558
      vertex 48 32.5811 -60.5924
    endloop
  endfacet
  facet normal 0 0.980786 -0.195086
    outer loop
      vertex 36 32.5879 -60.558
      vertex 48 32.5 -61
      vertex 36 32.5 -61
    endloop
  endfacet
  facet normal 8.40925e-008 0.195085 -0.980786
    outer loop
      vertex 36 33.558 -59.5879
      vertex 48 34 -59.5
      vertex 48 33.5924 -59.5811
    endloop
  endfacet
  facet normal 0 0.195087 -0.980786
    outer loop
      vertex 48 34 -59.5
      vertex 36 33.558 -59.5879
      vertex 36 34 -59.5
    endloop
  endfacet
  facet normal 0 -0.195085 -0.980786
    outer loop
      vertex 36 34 -59.5
      vertex 48 34.4076 -59.5811
      vertex 48 34 -59.5
    endloop
  endfacet
  facet normal 7.75402e-008 -0.195087 -0.980786
    outer loop
      vertex 48 34.4076 -59.5811
      vertex 36 34 -59.5
      vertex 36 34.442 -59.5879
    endloop
  endfacet
  facet normal -5.77464e-008 0.980785 0.195094
    outer loop
      vertex 48 32.6142 -61.574
      vertex 36 32.5263 -61.132
      vertex 48 32.5331 -61.1665
    endloop
  endfacet
  facet normal 0 0.980784 0.195095
    outer loop
      vertex 36 32.5263 -61.132
      vertex 48 32.6142 -61.574
      vertex 36 32.6142 -61.574
    endloop
  endfacet
  facet normal -5.77464e-008 0.195094 0.980785
    outer loop
      vertex 36 33.868 -62.4737
      vertex 48 33.426 -62.3858
      vertex 48 33.8335 -62.4669
    endloop
  endfacet
  facet normal 0 0.195095 0.980784
    outer loop
      vertex 48 33.426 -62.3858
      vertex 36 33.868 -62.4737
      vertex 36 33.426 -62.3858
    endloop
  endfacet
  facet normal 0 0.195109 -0.980782
    outer loop
      vertex 36 33.426 -59.6142
      vertex 48 33.5924 -59.5811
      vertex 48 33.426 -59.6142
    endloop
  endfacet
  facet normal 1.6035e-008 0.195108 -0.980782
    outer loop
      vertex 48 33.5924 -59.5811
      vertex 36 33.426 -59.6142
      vertex 36 33.558 -59.5879
    endloop
  endfacet
  facet normal 0 -0.831472 -0.555566
    outer loop
      vertex 36 35.3858 -60.426
      vertex 48 35.0607 -59.9393
      vertex 36 35.0607 -59.9393
    endloop
  endfacet
  facet normal 0 -0.831472 -0.555566
    outer loop
      vertex 48 35.0607 -59.9393
      vertex 36 35.3858 -60.426
      vertex 48 35.3858 -60.426
    endloop
  endfacet
  facet normal 0 -0.980786 -0.195086
    outer loop
      vertex 36 35.4121 -60.558
      vertex 48 35.3858 -60.426
      vertex 36 35.3858 -60.426
    endloop
  endfacet
  facet normal 1.52041e-008 -0.980786 -0.195087
    outer loop
      vertex 48 35.3858 -60.426
      vertex 36 35.4121 -60.558
      vertex 48 35.4189 -60.5924
    endloop
  endfacet
  facet normal -5.32469e-008 -0.980784 0.195095
    outer loop
      vertex 36 35.3858 -61.574
      vertex 48 35.4669 -61.1665
      vertex 36 35.4737 -61.132
    endloop
  endfacet
  facet normal 0 -0.980785 0.195094
    outer loop
      vertex 48 35.4669 -61.1665
      vertex 36 35.3858 -61.574
      vertex 48 35.3858 -61.574
    endloop
  endfacet
  facet normal 0 -0.831472 0.555566
    outer loop
      vertex 36 35.0607 -62.0607
      vertex 48 35.3858 -61.574
      vertex 36 35.3858 -61.574
    endloop
  endfacet
  facet normal 0 -0.831472 0.555566
    outer loop
      vertex 48 35.3858 -61.574
      vertex 36 35.0607 -62.0607
      vertex 48 35.0607 -62.0607
    endloop
  endfacet
  facet normal 0 -0.555566 0.831472
    outer loop
      vertex 36 35.0607 -62.0607
      vertex 48 34.574 -62.3858
      vertex 48 35.0607 -62.0607
    endloop
  endfacet
  facet normal 0 -0.555566 0.831472
    outer loop
      vertex 48 34.574 -62.3858
      vertex 36 35.0607 -62.0607
      vertex 36 34.574 -62.3858
    endloop
  endfacet
  facet normal 0 0.980781 -0.195113
    outer loop
      vertex 48 32.6142 -60.426
      vertex 36 32.5879 -60.558
      vertex 36 32.6142 -60.426
    endloop
  endfacet
  facet normal -2.96579e-007 0.980786 -0.195087
    outer loop
      vertex 36 32.5879 -60.558
      vertex 48 32.6142 -60.426
      vertex 48 32.5811 -60.5924
    endloop
  endfacet
  facet normal 0 0.831472 -0.555566
    outer loop
      vertex 48 32.6142 -60.426
      vertex 36 32.9393 -59.9393
      vertex 48 32.9393 -59.9393
    endloop
  endfacet
  facet normal 0 0.831472 -0.555566
    outer loop
      vertex 36 32.9393 -59.9393
      vertex 48 32.6142 -60.426
      vertex 36 32.6142 -60.426
    endloop
  endfacet
endsolid OpenSCAD_Model
