solid OpenSCAD_Model
  facet normal -0.471385 -0.881927 0
    outer loop
      vertex 25.574 73.3858 -170
      vertex 25.8334 73.2472 -167
      vertex 25.574 73.3858 -167
    endloop
  endfacet
  facet normal -0.471385 -0.881927 -0
    outer loop
      vertex 25.8334 73.2472 -167
      vertex 25.574 73.3858 -170
      vertex 25.8334 73.2472 -170
    endloop
  endfacet
  facet normal 0.995185 -0.0980175 0
    outer loop
      vertex 23.5 72 -167
      vertex 23.5288 72.2926 -170
      vertex 23.5288 72.2926 -167
    endloop
  endfacet
  facet normal 0.995185 -0.0980175 0
    outer loop
      vertex 23.5288 72.2926 -170
      vertex 23.5 72 -167
      vertex 23.5 72 -170
    endloop
  endfacet
  facet normal -0.995184 0.0980239 0
    outer loop
      vertex 26.4712 71.7074 -170
      vertex 26.5 72 -167
      vertex 26.5 72 -170
    endloop
  endfacet
  facet normal -0.995184 0.0980239 0
    outer loop
      vertex 26.5 72 -167
      vertex 26.4712 71.7074 -170
      vertex 26.4712 71.7074 -167
    endloop
  endfacet
  facet normal 0.0980227 0.995184 -0
    outer loop
      vertex 25 70.5 -170
      vertex 24.7074 70.5288 -167
      vertex 25 70.5 -167
    endloop
  endfacet
  facet normal 0.0980227 0.995184 0
    outer loop
      vertex 24.7074 70.5288 -167
      vertex 25 70.5 -170
      vertex 24.7074 70.5288 -170
    endloop
  endfacet
  facet normal 0.471385 -0.881927 0
    outer loop
      vertex 24.1666 73.2472 -170
      vertex 24.426 73.3858 -167
      vertex 24.1666 73.2472 -167
    endloop
  endfacet
  facet normal 0.471385 -0.881927 0
    outer loop
      vertex 24.426 73.3858 -167
      vertex 24.1666 73.2472 -170
      vertex 24.426 73.3858 -170
    endloop
  endfacet
  facet normal 0.956939 -0.29029 0
    outer loop
      vertex 23.5288 72.2926 -167
      vertex 23.6142 72.574 -170
      vertex 23.6142 72.574 -167
    endloop
  endfacet
  facet normal 0.956939 -0.29029 0
    outer loop
      vertex 23.6142 72.574 -170
      vertex 23.5288 72.2926 -167
      vertex 23.5288 72.2926 -170
    endloop
  endfacet
  facet normal 0.77301 0.634394 0
    outer loop
      vertex 23.9393 70.9393 -167
      vertex 23.7528 71.1666 -170
      vertex 23.7528 71.1666 -167
    endloop
  endfacet
  facet normal 0.77301 0.634394 0
    outer loop
      vertex 23.7528 71.1666 -170
      vertex 23.9393 70.9393 -167
      vertex 23.9393 70.9393 -170
    endloop
  endfacet
  facet normal -0.956941 -0.290284 0
    outer loop
      vertex 26.4712 72.2926 -170
      vertex 26.3858 72.574 -167
      vertex 26.3858 72.574 -170
    endloop
  endfacet
  facet normal -0.956941 -0.290284 0
    outer loop
      vertex 26.3858 72.574 -167
      vertex 26.4712 72.2926 -170
      vertex 26.4712 72.2926 -167
    endloop
  endfacet
  facet normal -0.881928 -0.471385 0
    outer loop
      vertex 26.3858 72.574 -170
      vertex 26.2472 72.8334 -167
      vertex 26.2472 72.8334 -170
    endloop
  endfacet
  facet normal -0.881928 -0.471385 0
    outer loop
      vertex 26.2472 72.8334 -167
      vertex 26.3858 72.574 -170
      vertex 26.3858 72.574 -167
    endloop
  endfacet
  facet normal -0.773007 -0.634397 0
    outer loop
      vertex 26.2472 72.8334 -170
      vertex 26.0607 73.0607 -167
      vertex 26.0607 73.0607 -170
    endloop
  endfacet
  facet normal -0.773007 -0.634397 0
    outer loop
      vertex 26.0607 73.0607 -167
      vertex 26.2472 72.8334 -170
      vertex 26.2472 72.8334 -167
    endloop
  endfacet
  facet normal -0.634398 -0.773006 0
    outer loop
      vertex 25.8334 73.2472 -170
      vertex 26.0607 73.0607 -167
      vertex 25.8334 73.2472 -167
    endloop
  endfacet
  facet normal -0.634398 -0.773006 -0
    outer loop
      vertex 26.0607 73.0607 -167
      vertex 25.8334 73.2472 -170
      vertex 26.0607 73.0607 -170
    endloop
  endfacet
  facet normal -0.290282 -0.956941 0
    outer loop
      vertex 25.2926 73.4712 -170
      vertex 25.574 73.3858 -167
      vertex 25.2926 73.4712 -167
    endloop
  endfacet
  facet normal -0.290282 -0.956941 -0
    outer loop
      vertex 25.574 73.3858 -167
      vertex 25.2926 73.4712 -170
      vertex 25.574 73.3858 -170
    endloop
  endfacet
  facet normal 0.0980227 -0.995184 0
    outer loop
      vertex 24.7074 73.4712 -170
      vertex 25 73.5 -167
      vertex 24.7074 73.4712 -167
    endloop
  endfacet
  facet normal 0.0980227 -0.995184 0
    outer loop
      vertex 25 73.5 -167
      vertex 24.7074 73.4712 -170
      vertex 25 73.5 -170
    endloop
  endfacet
  facet normal 0.995185 0.0980175 0
    outer loop
      vertex 23.5288 71.7074 -167
      vertex 23.5 72 -170
      vertex 23.5 72 -167
    endloop
  endfacet
  facet normal 0.995185 0.0980175 0
    outer loop
      vertex 23.5 72 -170
      vertex 23.5288 71.7074 -167
      vertex 23.5288 71.7074 -170
    endloop
  endfacet
  facet normal 0.881928 -0.471385 0
    outer loop
      vertex 23.6142 72.574 -167
      vertex 23.7528 72.8334 -170
      vertex 23.7528 72.8334 -167
    endloop
  endfacet
  facet normal 0.881928 -0.471385 0
    outer loop
      vertex 23.7528 72.8334 -170
      vertex 23.6142 72.574 -167
      vertex 23.6142 72.574 -170
    endloop
  endfacet
  facet normal 0.634395 -0.773009 0
    outer loop
      vertex 23.9393 73.0607 -170
      vertex 24.1666 73.2472 -167
      vertex 23.9393 73.0607 -167
    endloop
  endfacet
  facet normal 0.634395 -0.773009 0
    outer loop
      vertex 24.1666 73.2472 -167
      vertex 23.9393 73.0607 -170
      vertex 24.1666 73.2472 -170
    endloop
  endfacet
  facet normal 0.290284 -0.956941 0
    outer loop
      vertex 24.426 73.3858 -170
      vertex 24.7074 73.4712 -167
      vertex 24.426 73.3858 -167
    endloop
  endfacet
  facet normal 0.290284 -0.956941 0
    outer loop
      vertex 24.7074 73.4712 -167
      vertex 24.426 73.3858 -170
      vertex 24.7074 73.4712 -170
    endloop
  endfacet
  facet normal 0.77301 -0.634394 0
    outer loop
      vertex 23.7528 72.8334 -167
      vertex 23.9393 73.0607 -170
      vertex 23.9393 73.0607 -167
    endloop
  endfacet
  facet normal 0.77301 -0.634394 0
    outer loop
      vertex 23.9393 73.0607 -170
      vertex 23.7528 72.8334 -167
      vertex 23.7528 72.8334 -170
    endloop
  endfacet
  facet normal -0.995184 -0.0980239 0
    outer loop
      vertex 26.5 72 -170
      vertex 26.4712 72.2926 -167
      vertex 26.4712 72.2926 -170
    endloop
  endfacet
  facet normal -0.995184 -0.0980239 0
    outer loop
      vertex 26.4712 72.2926 -167
      vertex 26.5 72 -170
      vertex 26.5 72 -167
    endloop
  endfacet
  facet normal -0.290282 0.956941 0
    outer loop
      vertex 25.574 70.6142 -170
      vertex 25.2926 70.5288 -167
      vertex 25.574 70.6142 -167
    endloop
  endfacet
  facet normal -0.290282 0.956941 0
    outer loop
      vertex 25.2926 70.5288 -167
      vertex 25.574 70.6142 -170
      vertex 25.2926 70.5288 -170
    endloop
  endfacet
  facet normal -0.881922 0.471395 0
    outer loop
      vertex 26.2472 71.1666 -170
      vertex 26.3858 71.426 -167
      vertex 26.3858 71.426 -170
    endloop
  endfacet
  facet normal -0.881922 0.471395 0
    outer loop
      vertex 26.3858 71.426 -167
      vertex 26.2472 71.1666 -170
      vertex 26.2472 71.1666 -167
    endloop
  endfacet
  facet normal -0.956943 0.290277 0
    outer loop
      vertex 26.3858 71.426 -170
      vertex 26.4712 71.7074 -167
      vertex 26.4712 71.7074 -170
    endloop
  endfacet
  facet normal -0.956943 0.290277 0
    outer loop
      vertex 26.4712 71.7074 -167
      vertex 26.3858 71.426 -170
      vertex 26.3858 71.426 -167
    endloop
  endfacet
  facet normal -0.471385 0.881927 0
    outer loop
      vertex 25.8334 70.7528 -170
      vertex 25.574 70.6142 -167
      vertex 25.8334 70.7528 -167
    endloop
  endfacet
  facet normal -0.471385 0.881927 0
    outer loop
      vertex 25.574 70.6142 -167
      vertex 25.8334 70.7528 -170
      vertex 25.574 70.6142 -170
    endloop
  endfacet
  facet normal -0.634398 0.773006 0
    outer loop
      vertex 26.0607 70.9393 -170
      vertex 25.8334 70.7528 -167
      vertex 26.0607 70.9393 -167
    endloop
  endfacet
  facet normal -0.634398 0.773006 0
    outer loop
      vertex 25.8334 70.7528 -167
      vertex 26.0607 70.9393 -170
      vertex 25.8334 70.7528 -170
    endloop
  endfacet
  facet normal -0.0980233 0.995184 0
    outer loop
      vertex 25.2926 70.5288 -170
      vertex 25 70.5 -167
      vertex 25.2926 70.5288 -167
    endloop
  endfacet
  facet normal -0.0980233 0.995184 0
    outer loop
      vertex 25 70.5 -167
      vertex 25.2926 70.5288 -170
      vertex 25 70.5 -170
    endloop
  endfacet
  facet normal 0.290284 0.956941 -0
    outer loop
      vertex 24.7074 70.5288 -170
      vertex 24.426 70.6142 -167
      vertex 24.7074 70.5288 -167
    endloop
  endfacet
  facet normal 0.290284 0.956941 0
    outer loop
      vertex 24.426 70.6142 -167
      vertex 24.7074 70.5288 -170
      vertex 24.426 70.6142 -170
    endloop
  endfacet
  facet normal 0.471385 0.881927 -0
    outer loop
      vertex 24.426 70.6142 -170
      vertex 24.1666 70.7528 -167
      vertex 24.426 70.6142 -167
    endloop
  endfacet
  facet normal 0.471385 0.881927 0
    outer loop
      vertex 24.1666 70.7528 -167
      vertex 24.426 70.6142 -170
      vertex 24.1666 70.7528 -170
    endloop
  endfacet
  facet normal 0.956941 0.290283 0
    outer loop
      vertex 23.6142 71.426 -167
      vertex 23.5288 71.7074 -170
      vertex 23.5288 71.7074 -167
    endloop
  endfacet
  facet normal 0.956941 0.290283 0
    outer loop
      vertex 23.5288 71.7074 -170
      vertex 23.6142 71.426 -167
      vertex 23.6142 71.426 -170
    endloop
  endfacet
  facet normal -0.0980233 -0.995184 0
    outer loop
      vertex 25 73.5 -170
      vertex 25.2926 73.4712 -167
      vertex 25 73.5 -167
    endloop
  endfacet
  facet normal -0.0980233 -0.995184 -0
    outer loop
      vertex 25.2926 73.4712 -167
      vertex 25 73.5 -170
      vertex 25.2926 73.4712 -170
    endloop
  endfacet
  facet normal -0.773007 0.634397 0
    outer loop
      vertex 26.0607 70.9393 -170
      vertex 26.2472 71.1666 -167
      vertex 26.2472 71.1666 -170
    endloop
  endfacet
  facet normal -0.773007 0.634397 0
    outer loop
      vertex 26.2472 71.1666 -167
      vertex 26.0607 70.9393 -170
      vertex 26.0607 70.9393 -167
    endloop
  endfacet
  facet normal 0.881922 0.471395 0
    outer loop
      vertex 23.7528 71.1666 -167
      vertex 23.6142 71.426 -170
      vertex 23.6142 71.426 -167
    endloop
  endfacet
  facet normal 0.881922 0.471395 0
    outer loop
      vertex 23.6142 71.426 -170
      vertex 23.7528 71.1666 -167
      vertex 23.7528 71.1666 -170
    endloop
  endfacet
  facet normal 0.634395 0.773009 -0
    outer loop
      vertex 24.1666 70.7528 -170
      vertex 23.9393 70.9393 -167
      vertex 24.1666 70.7528 -167
    endloop
  endfacet
  facet normal 0.634395 0.773009 0
    outer loop
      vertex 23.9393 70.9393 -167
      vertex 24.1666 70.7528 -170
      vertex 23.9393 70.9393 -170
    endloop
  endfacet
  facet normal -0.471385 -0.881927 0
    outer loop
      vertex 35.574 73.3858 -170
      vertex 35.8334 73.2472 -167
      vertex 35.574 73.3858 -167
    endloop
  endfacet
  facet normal -0.471385 -0.881927 -0
    outer loop
      vertex 35.8334 73.2472 -167
      vertex 35.574 73.3858 -170
      vertex 35.8334 73.2472 -170
    endloop
  endfacet
  facet normal -0.995184 0.0980239 0
    outer loop
      vertex 36.4712 71.7074 -170
      vertex 36.5 72 -167
      vertex 36.5 72 -170
    endloop
  endfacet
  facet normal -0.995184 0.0980239 0
    outer loop
      vertex 36.5 72 -167
      vertex 36.4712 71.7074 -170
      vertex 36.4712 71.7074 -167
    endloop
  endfacet
  facet normal 0.0980227 0.995184 -0
    outer loop
      vertex 35 70.5 -170
      vertex 34.7074 70.5288 -167
      vertex 35 70.5 -167
    endloop
  endfacet
  facet normal 0.0980227 0.995184 0
    outer loop
      vertex 34.7074 70.5288 -167
      vertex 35 70.5 -170
      vertex 34.7074 70.5288 -170
    endloop
  endfacet
  facet normal 0.471385 -0.881927 0
    outer loop
      vertex 34.1666 73.2472 -170
      vertex 34.426 73.3858 -167
      vertex 34.1666 73.2472 -167
    endloop
  endfacet
  facet normal 0.471385 -0.881927 0
    outer loop
      vertex 34.426 73.3858 -167
      vertex 34.1666 73.2472 -170
      vertex 34.426 73.3858 -170
    endloop
  endfacet
  facet normal 0.956941 -0.290284 0
    outer loop
      vertex 33.5288 72.2926 -167
      vertex 33.6142 72.574 -170
      vertex 33.6142 72.574 -167
    endloop
  endfacet
  facet normal 0.956941 -0.290284 0
    outer loop
      vertex 33.6142 72.574 -170
      vertex 33.5288 72.2926 -167
      vertex 33.5288 72.2926 -170
    endloop
  endfacet
  facet normal 0.77301 0.634394 0
    outer loop
      vertex 33.9393 70.9393 -167
      vertex 33.7528 71.1666 -170
      vertex 33.7528 71.1666 -167
    endloop
  endfacet
  facet normal 0.77301 0.634394 0
    outer loop
      vertex 33.7528 71.1666 -170
      vertex 33.9393 70.9393 -167
      vertex 33.9393 70.9393 -170
    endloop
  endfacet
  facet normal -0.881928 -0.471385 0
    outer loop
      vertex 36.3858 72.574 -170
      vertex 36.2472 72.8334 -167
      vertex 36.2472 72.8334 -170
    endloop
  endfacet
  facet normal -0.881928 -0.471385 0
    outer loop
      vertex 36.2472 72.8334 -167
      vertex 36.3858 72.574 -170
      vertex 36.3858 72.574 -167
    endloop
  endfacet
  facet normal -0.77301 -0.634394 0
    outer loop
      vertex 36.2472 72.8334 -170
      vertex 36.0607 73.0607 -167
      vertex 36.0607 73.0607 -170
    endloop
  endfacet
  facet normal -0.77301 -0.634394 0
    outer loop
      vertex 36.0607 73.0607 -167
      vertex 36.2472 72.8334 -170
      vertex 36.2472 72.8334 -167
    endloop
  endfacet
  facet normal -0.634395 -0.773009 0
    outer loop
      vertex 35.8334 73.2472 -170
      vertex 36.0607 73.0607 -167
      vertex 35.8334 73.2472 -167
    endloop
  endfacet
  facet normal -0.634395 -0.773009 -0
    outer loop
      vertex 36.0607 73.0607 -167
      vertex 35.8334 73.2472 -170
      vertex 36.0607 73.0607 -170
    endloop
  endfacet
  facet normal -0.29028 -0.956942 0
    outer loop
      vertex 35.2926 73.4712 -170
      vertex 35.574 73.3858 -167
      vertex 35.2926 73.4712 -167
    endloop
  endfacet
  facet normal -0.29028 -0.956942 -0
    outer loop
      vertex 35.574 73.3858 -167
      vertex 35.2926 73.4712 -170
      vertex 35.574 73.3858 -170
    endloop
  endfacet
  facet normal 0.0980227 -0.995184 0
    outer loop
      vertex 34.7074 73.4712 -170
      vertex 35 73.5 -167
      vertex 34.7074 73.4712 -167
    endloop
  endfacet
  facet normal 0.0980227 -0.995184 0
    outer loop
      vertex 35 73.5 -167
      vertex 34.7074 73.4712 -170
      vertex 35 73.5 -170
    endloop
  endfacet
  facet normal -0.0980239 -0.995184 0
    outer loop
      vertex 35 73.5 -170
      vertex 35.2926 73.4712 -167
      vertex 35 73.5 -167
    endloop
  endfacet
  facet normal -0.0980239 -0.995184 -0
    outer loop
      vertex 35.2926 73.4712 -167
      vertex 35 73.5 -170
      vertex 35.2926 73.4712 -170
    endloop
  endfacet
  facet normal 0.995184 0.0980239 0
    outer loop
      vertex 33.5288 71.7074 -167
      vertex 33.5 72 -170
      vertex 33.5 72 -167
    endloop
  endfacet
  facet normal 0.995184 0.0980239 0
    outer loop
      vertex 33.5 72 -170
      vertex 33.5288 71.7074 -167
      vertex 33.5288 71.7074 -170
    endloop
  endfacet
  facet normal 0.881928 -0.471385 0
    outer loop
      vertex 33.6142 72.574 -167
      vertex 33.7528 72.8334 -170
      vertex 33.7528 72.8334 -167
    endloop
  endfacet
  facet normal 0.881928 -0.471385 0
    outer loop
      vertex 33.7528 72.8334 -170
      vertex 33.6142 72.574 -167
      vertex 33.6142 72.574 -170
    endloop
  endfacet
  facet normal 0.634395 -0.773009 0
    outer loop
      vertex 33.9393 73.0607 -170
      vertex 34.1666 73.2472 -167
      vertex 33.9393 73.0607 -167
    endloop
  endfacet
  facet normal 0.634395 -0.773009 0
    outer loop
      vertex 34.1666 73.2472 -167
      vertex 33.9393 73.0607 -170
      vertex 34.1666 73.2472 -170
    endloop
  endfacet
  facet normal 0.290284 -0.956941 0
    outer loop
      vertex 34.426 73.3858 -170
      vertex 34.7074 73.4712 -167
      vertex 34.426 73.3858 -167
    endloop
  endfacet
  facet normal 0.290284 -0.956941 0
    outer loop
      vertex 34.7074 73.4712 -167
      vertex 34.426 73.3858 -170
      vertex 34.7074 73.4712 -170
    endloop
  endfacet
  facet normal 0.77301 -0.634394 0
    outer loop
      vertex 33.7528 72.8334 -167
      vertex 33.9393 73.0607 -170
      vertex 33.9393 73.0607 -167
    endloop
  endfacet
  facet normal 0.77301 -0.634394 0
    outer loop
      vertex 33.9393 73.0607 -170
      vertex 33.7528 72.8334 -167
      vertex 33.7528 72.8334 -170
    endloop
  endfacet
  facet normal -0.995184 -0.0980239 0
    outer loop
      vertex 36.5 72 -170
      vertex 36.4712 72.2926 -167
      vertex 36.4712 72.2926 -170
    endloop
  endfacet
  facet normal -0.995184 -0.0980239 0
    outer loop
      vertex 36.4712 72.2926 -167
      vertex 36.5 72 -170
      vertex 36.5 72 -167
    endloop
  endfacet
  facet normal -0.29028 0.956942 0
    outer loop
      vertex 35.574 70.6142 -170
      vertex 35.2926 70.5288 -167
      vertex 35.574 70.6142 -167
    endloop
  endfacet
  facet normal -0.29028 0.956942 0
    outer loop
      vertex 35.2926 70.5288 -167
      vertex 35.574 70.6142 -170
      vertex 35.2926 70.5288 -170
    endloop
  endfacet
  facet normal -0.881922 0.471395 0
    outer loop
      vertex 36.2472 71.1666 -170
      vertex 36.3858 71.426 -167
      vertex 36.3858 71.426 -170
    endloop
  endfacet
  facet normal -0.881922 0.471395 0
    outer loop
      vertex 36.3858 71.426 -167
      vertex 36.2472 71.1666 -170
      vertex 36.2472 71.1666 -167
    endloop
  endfacet
  facet normal -0.956943 0.290277 0
    outer loop
      vertex 36.3858 71.426 -170
      vertex 36.4712 71.7074 -167
      vertex 36.4712 71.7074 -170
    endloop
  endfacet
  facet normal -0.956943 0.290277 0
    outer loop
      vertex 36.4712 71.7074 -167
      vertex 36.3858 71.426 -170
      vertex 36.3858 71.426 -167
    endloop
  endfacet
  facet normal -0.471385 0.881927 0
    outer loop
      vertex 35.8334 70.7528 -170
      vertex 35.574 70.6142 -167
      vertex 35.8334 70.7528 -167
    endloop
  endfacet
  facet normal -0.471385 0.881927 0
    outer loop
      vertex 35.574 70.6142 -167
      vertex 35.8334 70.7528 -170
      vertex 35.574 70.6142 -170
    endloop
  endfacet
  facet normal -0.634395 0.773009 0
    outer loop
      vertex 36.0607 70.9393 -170
      vertex 35.8334 70.7528 -167
      vertex 36.0607 70.9393 -167
    endloop
  endfacet
  facet normal -0.634395 0.773009 0
    outer loop
      vertex 35.8334 70.7528 -167
      vertex 36.0607 70.9393 -170
      vertex 35.8334 70.7528 -170
    endloop
  endfacet
  facet normal -0.0980239 0.995184 0
    outer loop
      vertex 35.2926 70.5288 -170
      vertex 35 70.5 -167
      vertex 35.2926 70.5288 -167
    endloop
  endfacet
  facet normal -0.0980239 0.995184 0
    outer loop
      vertex 35 70.5 -167
      vertex 35.2926 70.5288 -170
      vertex 35 70.5 -170
    endloop
  endfacet
  facet normal 0.290284 0.956941 -0
    outer loop
      vertex 34.7074 70.5288 -170
      vertex 34.426 70.6142 -167
      vertex 34.7074 70.5288 -167
    endloop
  endfacet
  facet normal 0.290284 0.956941 0
    outer loop
      vertex 34.426 70.6142 -167
      vertex 34.7074 70.5288 -170
      vertex 34.426 70.6142 -170
    endloop
  endfacet
  facet normal 0.471385 0.881927 -0
    outer loop
      vertex 34.426 70.6142 -170
      vertex 34.1666 70.7528 -167
      vertex 34.426 70.6142 -167
    endloop
  endfacet
  facet normal 0.471385 0.881927 0
    outer loop
      vertex 34.1666 70.7528 -167
      vertex 34.426 70.6142 -170
      vertex 34.1666 70.7528 -170
    endloop
  endfacet
  facet normal 0.956943 0.290277 0
    outer loop
      vertex 33.6142 71.426 -167
      vertex 33.5288 71.7074 -170
      vertex 33.5288 71.7074 -167
    endloop
  endfacet
  facet normal 0.956943 0.290277 0
    outer loop
      vertex 33.5288 71.7074 -170
      vertex 33.6142 71.426 -167
      vertex 33.6142 71.426 -170
    endloop
  endfacet
  facet normal -0.956941 -0.290284 0
    outer loop
      vertex 36.4712 72.2926 -170
      vertex 36.3858 72.574 -167
      vertex 36.3858 72.574 -170
    endloop
  endfacet
  facet normal -0.956941 -0.290284 0
    outer loop
      vertex 36.3858 72.574 -167
      vertex 36.4712 72.2926 -170
      vertex 36.4712 72.2926 -167
    endloop
  endfacet
  facet normal 0.995184 -0.0980239 0
    outer loop
      vertex 33.5 72 -167
      vertex 33.5288 72.2926 -170
      vertex 33.5288 72.2926 -167
    endloop
  endfacet
  facet normal 0.995184 -0.0980239 0
    outer loop
      vertex 33.5288 72.2926 -170
      vertex 33.5 72 -167
      vertex 33.5 72 -170
    endloop
  endfacet
  facet normal -0.77301 0.634394 0
    outer loop
      vertex 36.0607 70.9393 -170
      vertex 36.2472 71.1666 -167
      vertex 36.2472 71.1666 -170
    endloop
  endfacet
  facet normal -0.77301 0.634394 0
    outer loop
      vertex 36.2472 71.1666 -167
      vertex 36.0607 70.9393 -170
      vertex 36.0607 70.9393 -167
    endloop
  endfacet
  facet normal 0.881922 0.471395 0
    outer loop
      vertex 33.7528 71.1666 -167
      vertex 33.6142 71.426 -170
      vertex 33.6142 71.426 -167
    endloop
  endfacet
  facet normal 0.881922 0.471395 0
    outer loop
      vertex 33.6142 71.426 -170
      vertex 33.7528 71.1666 -167
      vertex 33.7528 71.1666 -170
    endloop
  endfacet
  facet normal 0.634395 0.773009 -0
    outer loop
      vertex 34.1666 70.7528 -170
      vertex 33.9393 70.9393 -167
      vertex 34.1666 70.7528 -167
    endloop
  endfacet
  facet normal 0.634395 0.773009 0
    outer loop
      vertex 33.9393 70.9393 -167
      vertex 34.1666 70.7528 -170
      vertex 33.9393 70.9393 -170
    endloop
  endfacet
  facet normal -0.471385 -0.881927 0
    outer loop
      vertex 50.574 73.3858 -170
      vertex 50.8334 73.2472 -167
      vertex 50.574 73.3858 -167
    endloop
  endfacet
  facet normal -0.471385 -0.881927 -0
    outer loop
      vertex 50.8334 73.2472 -167
      vertex 50.574 73.3858 -170
      vertex 50.8334 73.2472 -170
    endloop
  endfacet
  facet normal -0.995184 0.0980239 0
    outer loop
      vertex 51.4712 71.7074 -170
      vertex 51.5 72 -167
      vertex 51.5 72 -170
    endloop
  endfacet
  facet normal -0.995184 0.0980239 0
    outer loop
      vertex 51.5 72 -167
      vertex 51.4712 71.7074 -170
      vertex 51.4712 71.7074 -167
    endloop
  endfacet
  facet normal 0.0980227 0.995184 -0
    outer loop
      vertex 50 70.5 -170
      vertex 49.7074 70.5288 -167
      vertex 50 70.5 -167
    endloop
  endfacet
  facet normal 0.0980227 0.995184 0
    outer loop
      vertex 49.7074 70.5288 -167
      vertex 50 70.5 -170
      vertex 49.7074 70.5288 -170
    endloop
  endfacet
  facet normal 0.471385 -0.881927 0
    outer loop
      vertex 49.1666 73.2472 -170
      vertex 49.426 73.3858 -167
      vertex 49.1666 73.2472 -167
    endloop
  endfacet
  facet normal 0.471385 -0.881927 0
    outer loop
      vertex 49.426 73.3858 -167
      vertex 49.1666 73.2472 -170
      vertex 49.426 73.3858 -170
    endloop
  endfacet
  facet normal 0.956941 -0.290284 0
    outer loop
      vertex 48.5288 72.2926 -167
      vertex 48.6142 72.574 -170
      vertex 48.6142 72.574 -167
    endloop
  endfacet
  facet normal 0.956941 -0.290284 0
    outer loop
      vertex 48.6142 72.574 -170
      vertex 48.5288 72.2926 -167
      vertex 48.5288 72.2926 -170
    endloop
  endfacet
  facet normal -0.956941 -0.290284 0
    outer loop
      vertex 51.4712 72.2926 -170
      vertex 51.3858 72.574 -167
      vertex 51.3858 72.574 -170
    endloop
  endfacet
  facet normal -0.956941 -0.290284 0
    outer loop
      vertex 51.3858 72.574 -167
      vertex 51.4712 72.2926 -170
      vertex 51.4712 72.2926 -167
    endloop
  endfacet
  facet normal -0.881928 -0.471385 0
    outer loop
      vertex 51.3858 72.574 -170
      vertex 51.2472 72.8334 -167
      vertex 51.2472 72.8334 -170
    endloop
  endfacet
  facet normal -0.881928 -0.471385 0
    outer loop
      vertex 51.2472 72.8334 -167
      vertex 51.3858 72.574 -170
      vertex 51.3858 72.574 -167
    endloop
  endfacet
  facet normal -0.77301 -0.634394 0
    outer loop
      vertex 51.2472 72.8334 -170
      vertex 51.0607 73.0607 -167
      vertex 51.0607 73.0607 -170
    endloop
  endfacet
  facet normal -0.77301 -0.634394 0
    outer loop
      vertex 51.0607 73.0607 -167
      vertex 51.2472 72.8334 -170
      vertex 51.2472 72.8334 -167
    endloop
  endfacet
  facet normal -0.634395 -0.773009 0
    outer loop
      vertex 50.8334 73.2472 -170
      vertex 51.0607 73.0607 -167
      vertex 50.8334 73.2472 -167
    endloop
  endfacet
  facet normal -0.634395 -0.773009 -0
    outer loop
      vertex 51.0607 73.0607 -167
      vertex 50.8334 73.2472 -170
      vertex 51.0607 73.0607 -170
    endloop
  endfacet
  facet normal -0.29028 -0.956942 0
    outer loop
      vertex 50.2926 73.4712 -170
      vertex 50.574 73.3858 -167
      vertex 50.2926 73.4712 -167
    endloop
  endfacet
  facet normal -0.29028 -0.956942 -0
    outer loop
      vertex 50.574 73.3858 -167
      vertex 50.2926 73.4712 -170
      vertex 50.574 73.3858 -170
    endloop
  endfacet
  facet normal 0.0980227 -0.995184 0
    outer loop
      vertex 49.7074 73.4712 -170
      vertex 50 73.5 -167
      vertex 49.7074 73.4712 -167
    endloop
  endfacet
  facet normal 0.0980227 -0.995184 0
    outer loop
      vertex 50 73.5 -167
      vertex 49.7074 73.4712 -170
      vertex 50 73.5 -170
    endloop
  endfacet
  facet normal 0.995184 0.0980239 0
    outer loop
      vertex 48.5288 71.7074 -167
      vertex 48.5 72 -170
      vertex 48.5 72 -167
    endloop
  endfacet
  facet normal 0.995184 0.0980239 0
    outer loop
      vertex 48.5 72 -170
      vertex 48.5288 71.7074 -167
      vertex 48.5288 71.7074 -170
    endloop
  endfacet
  facet normal 0.881928 -0.471385 0
    outer loop
      vertex 48.6142 72.574 -167
      vertex 48.7528 72.8334 -170
      vertex 48.7528 72.8334 -167
    endloop
  endfacet
  facet normal 0.881928 -0.471385 0
    outer loop
      vertex 48.7528 72.8334 -170
      vertex 48.6142 72.574 -167
      vertex 48.6142 72.574 -170
    endloop
  endfacet
  facet normal 0.634395 -0.773009 0
    outer loop
      vertex 48.9393 73.0607 -170
      vertex 49.1666 73.2472 -167
      vertex 48.9393 73.0607 -167
    endloop
  endfacet
  facet normal 0.634395 -0.773009 0
    outer loop
      vertex 49.1666 73.2472 -167
      vertex 48.9393 73.0607 -170
      vertex 49.1666 73.2472 -170
    endloop
  endfacet
  facet normal 0.290284 -0.956941 0
    outer loop
      vertex 49.426 73.3858 -170
      vertex 49.7074 73.4712 -167
      vertex 49.426 73.3858 -167
    endloop
  endfacet
  facet normal 0.290284 -0.956941 0
    outer loop
      vertex 49.7074 73.4712 -167
      vertex 49.426 73.3858 -170
      vertex 49.7074 73.4712 -170
    endloop
  endfacet
  facet normal 0.77301 -0.634394 0
    outer loop
      vertex 48.7528 72.8334 -167
      vertex 48.9393 73.0607 -170
      vertex 48.9393 73.0607 -167
    endloop
  endfacet
  facet normal 0.77301 -0.634394 0
    outer loop
      vertex 48.9393 73.0607 -170
      vertex 48.7528 72.8334 -167
      vertex 48.7528 72.8334 -170
    endloop
  endfacet
  facet normal -0.995184 -0.0980239 0
    outer loop
      vertex 51.5 72 -170
      vertex 51.4712 72.2926 -167
      vertex 51.4712 72.2926 -170
    endloop
  endfacet
  facet normal -0.995184 -0.0980239 0
    outer loop
      vertex 51.4712 72.2926 -167
      vertex 51.5 72 -170
      vertex 51.5 72 -167
    endloop
  endfacet
  facet normal -0.29028 0.956942 0
    outer loop
      vertex 50.574 70.6142 -170
      vertex 50.2926 70.5288 -167
      vertex 50.574 70.6142 -167
    endloop
  endfacet
  facet normal -0.29028 0.956942 0
    outer loop
      vertex 50.2926 70.5288 -167
      vertex 50.574 70.6142 -170
      vertex 50.2926 70.5288 -170
    endloop
  endfacet
  facet normal -0.881922 0.471395 0
    outer loop
      vertex 51.2472 71.1666 -170
      vertex 51.3858 71.426 -167
      vertex 51.3858 71.426 -170
    endloop
  endfacet
  facet normal -0.881922 0.471395 0
    outer loop
      vertex 51.3858 71.426 -167
      vertex 51.2472 71.1666 -170
      vertex 51.2472 71.1666 -167
    endloop
  endfacet
  facet normal -0.956943 0.290277 0
    outer loop
      vertex 51.3858 71.426 -170
      vertex 51.4712 71.7074 -167
      vertex 51.4712 71.7074 -170
    endloop
  endfacet
  facet normal -0.956943 0.290277 0
    outer loop
      vertex 51.4712 71.7074 -167
      vertex 51.3858 71.426 -170
      vertex 51.3858 71.426 -167
    endloop
  endfacet
  facet normal -0.471385 0.881927 0
    outer loop
      vertex 50.8334 70.7528 -170
      vertex 50.574 70.6142 -167
      vertex 50.8334 70.7528 -167
    endloop
  endfacet
  facet normal -0.471385 0.881927 0
    outer loop
      vertex 50.574 70.6142 -167
      vertex 50.8334 70.7528 -170
      vertex 50.574 70.6142 -170
    endloop
  endfacet
  facet normal -0.634395 0.773009 0
    outer loop
      vertex 51.0607 70.9393 -170
      vertex 50.8334 70.7528 -167
      vertex 51.0607 70.9393 -167
    endloop
  endfacet
  facet normal -0.634395 0.773009 0
    outer loop
      vertex 50.8334 70.7528 -167
      vertex 51.0607 70.9393 -170
      vertex 50.8334 70.7528 -170
    endloop
  endfacet
  facet normal -0.0980239 0.995184 0
    outer loop
      vertex 50.2926 70.5288 -170
      vertex 50 70.5 -167
      vertex 50.2926 70.5288 -167
    endloop
  endfacet
  facet normal -0.0980239 0.995184 0
    outer loop
      vertex 50 70.5 -167
      vertex 50.2926 70.5288 -170
      vertex 50 70.5 -170
    endloop
  endfacet
  facet normal 0.471385 0.881927 -0
    outer loop
      vertex 49.426 70.6142 -170
      vertex 49.1666 70.7528 -167
      vertex 49.426 70.6142 -167
    endloop
  endfacet
  facet normal 0.471385 0.881927 0
    outer loop
      vertex 49.1666 70.7528 -167
      vertex 49.426 70.6142 -170
      vertex 49.1666 70.7528 -170
    endloop
  endfacet
  facet normal 0.77301 0.634394 0
    outer loop
      vertex 48.9393 70.9393 -167
      vertex 48.7528 71.1666 -170
      vertex 48.7528 71.1666 -167
    endloop
  endfacet
  facet normal 0.77301 0.634394 0
    outer loop
      vertex 48.7528 71.1666 -170
      vertex 48.9393 70.9393 -167
      vertex 48.9393 70.9393 -170
    endloop
  endfacet
  facet normal 0.956943 0.290277 0
    outer loop
      vertex 48.6142 71.426 -167
      vertex 48.5288 71.7074 -170
      vertex 48.5288 71.7074 -167
    endloop
  endfacet
  facet normal 0.956943 0.290277 0
    outer loop
      vertex 48.5288 71.7074 -170
      vertex 48.6142 71.426 -167
      vertex 48.6142 71.426 -170
    endloop
  endfacet
  facet normal -0.0980239 -0.995184 0
    outer loop
      vertex 50 73.5 -170
      vertex 50.2926 73.4712 -167
      vertex 50 73.5 -167
    endloop
  endfacet
  facet normal -0.0980239 -0.995184 -0
    outer loop
      vertex 50.2926 73.4712 -167
      vertex 50 73.5 -170
      vertex 50.2926 73.4712 -170
    endloop
  endfacet
  facet normal 0.995184 -0.0980239 0
    outer loop
      vertex 48.5 72 -167
      vertex 48.5288 72.2926 -170
      vertex 48.5288 72.2926 -167
    endloop
  endfacet
  facet normal 0.995184 -0.0980239 0
    outer loop
      vertex 48.5288 72.2926 -170
      vertex 48.5 72 -167
      vertex 48.5 72 -170
    endloop
  endfacet
  facet normal -0.77301 0.634394 0
    outer loop
      vertex 51.0607 70.9393 -170
      vertex 51.2472 71.1666 -167
      vertex 51.2472 71.1666 -170
    endloop
  endfacet
  facet normal -0.77301 0.634394 0
    outer loop
      vertex 51.2472 71.1666 -167
      vertex 51.0607 70.9393 -170
      vertex 51.0607 70.9393 -167
    endloop
  endfacet
  facet normal 0.290284 0.956941 -0
    outer loop
      vertex 49.7074 70.5288 -170
      vertex 49.426 70.6142 -167
      vertex 49.7074 70.5288 -167
    endloop
  endfacet
  facet normal 0.290284 0.956941 0
    outer loop
      vertex 49.426 70.6142 -167
      vertex 49.7074 70.5288 -170
      vertex 49.426 70.6142 -170
    endloop
  endfacet
  facet normal 0.881922 0.471395 0
    outer loop
      vertex 48.7528 71.1666 -167
      vertex 48.6142 71.426 -170
      vertex 48.6142 71.426 -167
    endloop
  endfacet
  facet normal 0.881922 0.471395 0
    outer loop
      vertex 48.6142 71.426 -170
      vertex 48.7528 71.1666 -167
      vertex 48.7528 71.1666 -170
    endloop
  endfacet
  facet normal 0.634395 0.773009 -0
    outer loop
      vertex 49.1666 70.7528 -170
      vertex 48.9393 70.9393 -167
      vertex 49.1666 70.7528 -167
    endloop
  endfacet
  facet normal 0.634395 0.773009 0
    outer loop
      vertex 48.9393 70.9393 -167
      vertex 49.1666 70.7528 -170
      vertex 48.9393 70.9393 -170
    endloop
  endfacet
  facet normal -0.471385 -0.881927 0
    outer loop
      vertex 60.574 73.3858 -170
      vertex 60.8334 73.2472 -167
      vertex 60.574 73.3858 -167
    endloop
  endfacet
  facet normal -0.471385 -0.881927 -0
    outer loop
      vertex 60.8334 73.2472 -167
      vertex 60.574 73.3858 -170
      vertex 60.8334 73.2472 -170
    endloop
  endfacet
  facet normal -0.995184 0.0980239 0
    outer loop
      vertex 61.4712 71.7074 -170
      vertex 61.5 72 -167
      vertex 61.5 72 -170
    endloop
  endfacet
  facet normal -0.995184 0.0980239 0
    outer loop
      vertex 61.5 72 -167
      vertex 61.4712 71.7074 -170
      vertex 61.4712 71.7074 -167
    endloop
  endfacet
  facet normal 0.0980227 0.995184 -0
    outer loop
      vertex 60 70.5 -170
      vertex 59.7074 70.5288 -167
      vertex 60 70.5 -167
    endloop
  endfacet
  facet normal 0.0980227 0.995184 0
    outer loop
      vertex 59.7074 70.5288 -167
      vertex 60 70.5 -170
      vertex 59.7074 70.5288 -170
    endloop
  endfacet
  facet normal 0.471385 -0.881927 0
    outer loop
      vertex 59.1666 73.2472 -170
      vertex 59.426 73.3858 -167
      vertex 59.1666 73.2472 -167
    endloop
  endfacet
  facet normal 0.471385 -0.881927 0
    outer loop
      vertex 59.426 73.3858 -167
      vertex 59.1666 73.2472 -170
      vertex 59.426 73.3858 -170
    endloop
  endfacet
  facet normal 0.956941 -0.290284 0
    outer loop
      vertex 58.5288 72.2926 -167
      vertex 58.6142 72.574 -170
      vertex 58.6142 72.574 -167
    endloop
  endfacet
  facet normal 0.956941 -0.290284 0
    outer loop
      vertex 58.6142 72.574 -170
      vertex 58.5288 72.2926 -167
      vertex 58.5288 72.2926 -170
    endloop
  endfacet
  facet normal 0.77301 0.634394 0
    outer loop
      vertex 58.9393 70.9393 -167
      vertex 58.7528 71.1666 -170
      vertex 58.7528 71.1666 -167
    endloop
  endfacet
  facet normal 0.77301 0.634394 0
    outer loop
      vertex 58.7528 71.1666 -170
      vertex 58.9393 70.9393 -167
      vertex 58.9393 70.9393 -170
    endloop
  endfacet
  facet normal -0.956941 -0.290284 0
    outer loop
      vertex 61.4712 72.2926 -170
      vertex 61.3858 72.574 -167
      vertex 61.3858 72.574 -170
    endloop
  endfacet
  facet normal -0.956941 -0.290284 0
    outer loop
      vertex 61.3858 72.574 -167
      vertex 61.4712 72.2926 -170
      vertex 61.4712 72.2926 -167
    endloop
  endfacet
  facet normal -0.881928 -0.471385 0
    outer loop
      vertex 61.3858 72.574 -170
      vertex 61.2472 72.8334 -167
      vertex 61.2472 72.8334 -170
    endloop
  endfacet
  facet normal -0.881928 -0.471385 0
    outer loop
      vertex 61.2472 72.8334 -167
      vertex 61.3858 72.574 -170
      vertex 61.3858 72.574 -167
    endloop
  endfacet
  facet normal -0.77301 -0.634394 0
    outer loop
      vertex 61.2472 72.8334 -170
      vertex 61.0607 73.0607 -167
      vertex 61.0607 73.0607 -170
    endloop
  endfacet
  facet normal -0.77301 -0.634394 0
    outer loop
      vertex 61.0607 73.0607 -167
      vertex 61.2472 72.8334 -170
      vertex 61.2472 72.8334 -167
    endloop
  endfacet
  facet normal -0.634395 -0.773009 0
    outer loop
      vertex 60.8334 73.2472 -170
      vertex 61.0607 73.0607 -167
      vertex 60.8334 73.2472 -167
    endloop
  endfacet
  facet normal -0.634395 -0.773009 -0
    outer loop
      vertex 61.0607 73.0607 -167
      vertex 60.8334 73.2472 -170
      vertex 61.0607 73.0607 -170
    endloop
  endfacet
  facet normal -0.29028 -0.956942 0
    outer loop
      vertex 60.2926 73.4712 -170
      vertex 60.574 73.3858 -167
      vertex 60.2926 73.4712 -167
    endloop
  endfacet
  facet normal -0.29028 -0.956942 -0
    outer loop
      vertex 60.574 73.3858 -167
      vertex 60.2926 73.4712 -170
      vertex 60.574 73.3858 -170
    endloop
  endfacet
  facet normal 0.0980227 -0.995184 0
    outer loop
      vertex 59.7074 73.4712 -170
      vertex 60 73.5 -167
      vertex 59.7074 73.4712 -167
    endloop
  endfacet
  facet normal 0.0980227 -0.995184 0
    outer loop
      vertex 60 73.5 -167
      vertex 59.7074 73.4712 -170
      vertex 60 73.5 -170
    endloop
  endfacet
  facet normal -0.0980239 -0.995184 0
    outer loop
      vertex 60 73.5 -170
      vertex 60.2926 73.4712 -167
      vertex 60 73.5 -167
    endloop
  endfacet
  facet normal -0.0980239 -0.995184 -0
    outer loop
      vertex 60.2926 73.4712 -167
      vertex 60 73.5 -170
      vertex 60.2926 73.4712 -170
    endloop
  endfacet
  facet normal 0.995184 0.0980239 0
    outer loop
      vertex 58.5288 71.7074 -167
      vertex 58.5 72 -170
      vertex 58.5 72 -167
    endloop
  endfacet
  facet normal 0.995184 0.0980239 0
    outer loop
      vertex 58.5 72 -170
      vertex 58.5288 71.7074 -167
      vertex 58.5288 71.7074 -170
    endloop
  endfacet
  facet normal 0.881928 -0.471385 0
    outer loop
      vertex 58.6142 72.574 -167
      vertex 58.7528 72.8334 -170
      vertex 58.7528 72.8334 -167
    endloop
  endfacet
  facet normal 0.881928 -0.471385 0
    outer loop
      vertex 58.7528 72.8334 -170
      vertex 58.6142 72.574 -167
      vertex 58.6142 72.574 -170
    endloop
  endfacet
  facet normal 0.634395 -0.773009 0
    outer loop
      vertex 58.9393 73.0607 -170
      vertex 59.1666 73.2472 -167
      vertex 58.9393 73.0607 -167
    endloop
  endfacet
  facet normal 0.634395 -0.773009 0
    outer loop
      vertex 59.1666 73.2472 -167
      vertex 58.9393 73.0607 -170
      vertex 59.1666 73.2472 -170
    endloop
  endfacet
  facet normal 0.290284 -0.956941 0
    outer loop
      vertex 59.426 73.3858 -170
      vertex 59.7074 73.4712 -167
      vertex 59.426 73.3858 -167
    endloop
  endfacet
  facet normal 0.290284 -0.956941 0
    outer loop
      vertex 59.7074 73.4712 -167
      vertex 59.426 73.3858 -170
      vertex 59.7074 73.4712 -170
    endloop
  endfacet
  facet normal 0.77301 -0.634394 0
    outer loop
      vertex 58.7528 72.8334 -167
      vertex 58.9393 73.0607 -170
      vertex 58.9393 73.0607 -167
    endloop
  endfacet
  facet normal 0.77301 -0.634394 0
    outer loop
      vertex 58.9393 73.0607 -170
      vertex 58.7528 72.8334 -167
      vertex 58.7528 72.8334 -170
    endloop
  endfacet
  facet normal -0.995184 -0.0980239 0
    outer loop
      vertex 61.5 72 -170
      vertex 61.4712 72.2926 -167
      vertex 61.4712 72.2926 -170
    endloop
  endfacet
  facet normal -0.995184 -0.0980239 0
    outer loop
      vertex 61.4712 72.2926 -167
      vertex 61.5 72 -170
      vertex 61.5 72 -167
    endloop
  endfacet
  facet normal -0.29028 0.956942 0
    outer loop
      vertex 60.574 70.6142 -170
      vertex 60.2926 70.5288 -167
      vertex 60.574 70.6142 -167
    endloop
  endfacet
  facet normal -0.29028 0.956942 0
    outer loop
      vertex 60.2926 70.5288 -167
      vertex 60.574 70.6142 -170
      vertex 60.2926 70.5288 -170
    endloop
  endfacet
  facet normal -0.881922 0.471395 0
    outer loop
      vertex 61.2472 71.1666 -170
      vertex 61.3858 71.426 -167
      vertex 61.3858 71.426 -170
    endloop
  endfacet
  facet normal -0.881922 0.471395 0
    outer loop
      vertex 61.3858 71.426 -167
      vertex 61.2472 71.1666 -170
      vertex 61.2472 71.1666 -167
    endloop
  endfacet
  facet normal -0.956943 0.290277 0
    outer loop
      vertex 61.3858 71.426 -170
      vertex 61.4712 71.7074 -167
      vertex 61.4712 71.7074 -170
    endloop
  endfacet
  facet normal -0.956943 0.290277 0
    outer loop
      vertex 61.4712 71.7074 -167
      vertex 61.3858 71.426 -170
      vertex 61.3858 71.426 -167
    endloop
  endfacet
  facet normal -0.471385 0.881927 0
    outer loop
      vertex 60.8334 70.7528 -170
      vertex 60.574 70.6142 -167
      vertex 60.8334 70.7528 -167
    endloop
  endfacet
  facet normal -0.471385 0.881927 0
    outer loop
      vertex 60.574 70.6142 -167
      vertex 60.8334 70.7528 -170
      vertex 60.574 70.6142 -170
    endloop
  endfacet
  facet normal -0.634395 0.773009 0
    outer loop
      vertex 61.0607 70.9393 -170
      vertex 60.8334 70.7528 -167
      vertex 61.0607 70.9393 -167
    endloop
  endfacet
  facet normal -0.634395 0.773009 0
    outer loop
      vertex 60.8334 70.7528 -167
      vertex 61.0607 70.9393 -170
      vertex 60.8334 70.7528 -170
    endloop
  endfacet
  facet normal -0.0980239 0.995184 0
    outer loop
      vertex 60.2926 70.5288 -170
      vertex 60 70.5 -167
      vertex 60.2926 70.5288 -167
    endloop
  endfacet
  facet normal -0.0980239 0.995184 0
    outer loop
      vertex 60 70.5 -167
      vertex 60.2926 70.5288 -170
      vertex 60 70.5 -170
    endloop
  endfacet
  facet normal 0.290284 0.956941 -0
    outer loop
      vertex 59.7074 70.5288 -170
      vertex 59.426 70.6142 -167
      vertex 59.7074 70.5288 -167
    endloop
  endfacet
  facet normal 0.290284 0.956941 0
    outer loop
      vertex 59.426 70.6142 -167
      vertex 59.7074 70.5288 -170
      vertex 59.426 70.6142 -170
    endloop
  endfacet
  facet normal 0.471385 0.881927 -0
    outer loop
      vertex 59.426 70.6142 -170
      vertex 59.1666 70.7528 -167
      vertex 59.426 70.6142 -167
    endloop
  endfacet
  facet normal 0.471385 0.881927 0
    outer loop
      vertex 59.1666 70.7528 -167
      vertex 59.426 70.6142 -170
      vertex 59.1666 70.7528 -170
    endloop
  endfacet
  facet normal 0.956943 0.290277 0
    outer loop
      vertex 58.6142 71.426 -167
      vertex 58.5288 71.7074 -170
      vertex 58.5288 71.7074 -167
    endloop
  endfacet
  facet normal 0.956943 0.290277 0
    outer loop
      vertex 58.5288 71.7074 -170
      vertex 58.6142 71.426 -167
      vertex 58.6142 71.426 -170
    endloop
  endfacet
  facet normal 0.995184 -0.0980239 0
    outer loop
      vertex 58.5 72 -167
      vertex 58.5288 72.2926 -170
      vertex 58.5288 72.2926 -167
    endloop
  endfacet
  facet normal 0.995184 -0.0980239 0
    outer loop
      vertex 58.5288 72.2926 -170
      vertex 58.5 72 -167
      vertex 58.5 72 -170
    endloop
  endfacet
  facet normal -0.77301 0.634394 0
    outer loop
      vertex 61.0607 70.9393 -170
      vertex 61.2472 71.1666 -167
      vertex 61.2472 71.1666 -170
    endloop
  endfacet
  facet normal -0.77301 0.634394 0
    outer loop
      vertex 61.2472 71.1666 -167
      vertex 61.0607 70.9393 -170
      vertex 61.0607 70.9393 -167
    endloop
  endfacet
  facet normal 0.881922 0.471395 0
    outer loop
      vertex 58.7528 71.1666 -167
      vertex 58.6142 71.426 -170
      vertex 58.6142 71.426 -167
    endloop
  endfacet
  facet normal 0.881922 0.471395 0
    outer loop
      vertex 58.6142 71.426 -170
      vertex 58.7528 71.1666 -167
      vertex 58.7528 71.1666 -170
    endloop
  endfacet
  facet normal 0.634395 0.773009 -0
    outer loop
      vertex 59.1666 70.7528 -170
      vertex 58.9393 70.9393 -167
      vertex 59.1666 70.7528 -167
    endloop
  endfacet
  facet normal 0.634395 0.773009 0
    outer loop
      vertex 58.9393 70.9393 -167
      vertex 59.1666 70.7528 -170
      vertex 58.9393 70.9393 -170
    endloop
  endfacet
  facet normal -1 0 0
    outer loop
      vertex 20 78 -170
      vertex 20 68 -167
      vertex 20 78 -167
    endloop
  endfacet
  facet normal -1 0 0
    outer loop
      vertex 20 64 -170
      vertex 20 68 -167
      vertex 20 78 -170
    endloop
  endfacet
  facet normal -1 0 0
    outer loop
      vertex 20 64 -164
      vertex 20 68 -167
      vertex 20 64 -170
    endloop
  endfacet
  facet normal -1 0 0
    outer loop
      vertex 20 68 -167
      vertex 20 64 -164
      vertex 20 68 -164
    endloop
  endfacet
  facet normal -0 0 1
    outer loop
      vertex 20 68 -164
      vertex 65 64 -164
      vertex 65 68 -164
    endloop
  endfacet
  facet normal 0 0 1
    outer loop
      vertex 65 64 -164
      vertex 20 68 -164
      vertex 20 64 -164
    endloop
  endfacet
  facet normal 1 0 0
    outer loop
      vertex 65 68 -164
      vertex 65 64 -164
      vertex 65 68 -167
    endloop
  endfacet
  facet normal 1 -0 0
    outer loop
      vertex 65 68 -167
      vertex 65 78 -170
      vertex 65 78 -167
    endloop
  endfacet
  facet normal 1 0 0
    outer loop
      vertex 65 68 -167
      vertex 65 64 -170
      vertex 65 78 -170
    endloop
  endfacet
  facet normal 1 0 0
    outer loop
      vertex 65 64 -170
      vertex 65 68 -167
      vertex 65 64 -164
    endloop
  endfacet
  facet normal 0 1 -0
    outer loop
      vertex 65 68 -167
      vertex 20 68 -164
      vertex 65 68 -164
    endloop
  endfacet
  facet normal 0 1 0
    outer loop
      vertex 20 68 -164
      vertex 65 68 -167
      vertex 20 68 -167
    endloop
  endfacet
  facet normal -0 0 1
    outer loop
      vertex 61.4712 72.2926 -167
      vertex 65 68 -167
      vertex 65 78 -167
    endloop
  endfacet
  facet normal 0 0 1
    outer loop
      vertex 65 68 -167
      vertex 61.4712 72.2926 -167
      vertex 61.5 72 -167
    endloop
  endfacet
  facet normal 0 0 1
    outer loop
      vertex 65 78 -167
      vertex 61.3858 72.574 -167
      vertex 61.4712 72.2926 -167
    endloop
  endfacet
  facet normal 0 0 1
    outer loop
      vertex 65 78 -167
      vertex 61.2472 72.8334 -167
      vertex 61.3858 72.574 -167
    endloop
  endfacet
  facet normal 0 0 1
    outer loop
      vertex 65 78 -167
      vertex 61.0607 73.0607 -167
      vertex 61.2472 72.8334 -167
    endloop
  endfacet
  facet normal 0 0 1
    outer loop
      vertex 65 78 -167
      vertex 60.8334 73.2472 -167
      vertex 61.0607 73.0607 -167
    endloop
  endfacet
  facet normal 0 0 1
    outer loop
      vertex 65 78 -167
      vertex 60.574 73.3858 -167
      vertex 60.8334 73.2472 -167
    endloop
  endfacet
  facet normal 0 0 1
    outer loop
      vertex 65 78 -167
      vertex 60.2926 73.4712 -167
      vertex 60.574 73.3858 -167
    endloop
  endfacet
  facet normal 0 0 1
    outer loop
      vertex 65 78 -167
      vertex 60 73.5 -167
      vertex 60.2926 73.4712 -167
    endloop
  endfacet
  facet normal 0 0 1
    outer loop
      vertex 65 78 -167
      vertex 59.7074 73.4712 -167
      vertex 60 73.5 -167
    endloop
  endfacet
  facet normal 0 0 1
    outer loop
      vertex 65 78 -167
      vertex 59.426 73.3858 -167
      vertex 59.7074 73.4712 -167
    endloop
  endfacet
  facet normal 0 0 1
    outer loop
      vertex 50.574 73.3858 -167
      vertex 59.426 73.3858 -167
      vertex 65 78 -167
    endloop
  endfacet
  facet normal 0 0 1
    outer loop
      vertex 58.5288 72.2926 -167
      vertex 51.5 72 -167
      vertex 58.5 72 -167
    endloop
  endfacet
  facet normal 0 0 1
    outer loop
      vertex 51.4712 72.2926 -167
      vertex 58.5288 72.2926 -167
      vertex 58.6142 72.574 -167
    endloop
  endfacet
  facet normal 0 0 1
    outer loop
      vertex 51.3858 72.574 -167
      vertex 58.6142 72.574 -167
      vertex 58.7528 72.8334 -167
    endloop
  endfacet
  facet normal 0 0 1
    outer loop
      vertex 51.2472 72.8334 -167
      vertex 58.7528 72.8334 -167
      vertex 58.9393 73.0607 -167
    endloop
  endfacet
  facet normal 0 0 1
    outer loop
      vertex 51.0607 73.0607 -167
      vertex 58.9393 73.0607 -167
      vertex 59.1666 73.2472 -167
    endloop
  endfacet
  facet normal 0 0 1
    outer loop
      vertex 59.426 73.3858 -167
      vertex 50.574 73.3858 -167
      vertex 59.1666 73.2472 -167
    endloop
  endfacet
  facet normal 0 0 1
    outer loop
      vertex 58.5288 72.2926 -167
      vertex 51.4712 72.2926 -167
      vertex 51.5 72 -167
    endloop
  endfacet
  facet normal 0 0 1
    outer loop
      vertex 58.6142 72.574 -167
      vertex 51.3858 72.574 -167
      vertex 51.4712 72.2926 -167
    endloop
  endfacet
  facet normal 0 0 1
    outer loop
      vertex 58.7528 72.8334 -167
      vertex 51.2472 72.8334 -167
      vertex 51.3858 72.574 -167
    endloop
  endfacet
  facet normal 0 0 1
    outer loop
      vertex 58.9393 73.0607 -167
      vertex 51.0607 73.0607 -167
      vertex 51.2472 72.8334 -167
    endloop
  endfacet
  facet normal 0 0 1
    outer loop
      vertex 59.1666 73.2472 -167
      vertex 50.8334 73.2472 -167
      vertex 51.0607 73.0607 -167
    endloop
  endfacet
  facet normal 0 0 1
    outer loop
      vertex 59.1666 73.2472 -167
      vertex 50.574 73.3858 -167
      vertex 50.8334 73.2472 -167
    endloop
  endfacet
  facet normal 0 0 1
    outer loop
      vertex 65 78 -167
      vertex 50.2926 73.4712 -167
      vertex 50.574 73.3858 -167
    endloop
  endfacet
  facet normal 0 0 1
    outer loop
      vertex 65 78 -167
      vertex 50 73.5 -167
      vertex 50.2926 73.4712 -167
    endloop
  endfacet
  facet normal 0 0 1
    outer loop
      vertex 65 78 -167
      vertex 49.7074 73.4712 -167
      vertex 50 73.5 -167
    endloop
  endfacet
  facet normal 0 0 1
    outer loop
      vertex 48.5288 72.2926 -167
      vertex 36.5 72 -167
      vertex 48.5 72 -167
    endloop
  endfacet
  facet normal 0 0 1
    outer loop
      vertex 36.4712 72.2926 -167
      vertex 48.5288 72.2926 -167
      vertex 48.6142 72.574 -167
    endloop
  endfacet
  facet normal 0 0 1
    outer loop
      vertex 36.3858 72.574 -167
      vertex 48.6142 72.574 -167
      vertex 48.7528 72.8334 -167
    endloop
  endfacet
  facet normal 0 0 1
    outer loop
      vertex 36.2472 72.8334 -167
      vertex 48.7528 72.8334 -167
      vertex 48.9393 73.0607 -167
    endloop
  endfacet
  facet normal 0 0 1
    outer loop
      vertex 36.0607 73.0607 -167
      vertex 48.9393 73.0607 -167
      vertex 49.1666 73.2472 -167
    endloop
  endfacet
  facet normal 0 0 1
    outer loop
      vertex 35.8334 73.2472 -167
      vertex 49.1666 73.2472 -167
      vertex 49.426 73.3858 -167
    endloop
  endfacet
  facet normal 0 0 1
    outer loop
      vertex 35.574 73.3858 -167
      vertex 49.426 73.3858 -167
      vertex 49.7074 73.4712 -167
    endloop
  endfacet
  facet normal 0 0 1
    outer loop
      vertex 35.2926 73.4712 -167
      vertex 49.7074 73.4712 -167
      vertex 65 78 -167
    endloop
  endfacet
  facet normal 0 0 1
    outer loop
      vertex 48.5288 72.2926 -167
      vertex 36.4712 72.2926 -167
      vertex 36.5 72 -167
    endloop
  endfacet
  facet normal 0 0 1
    outer loop
      vertex 48.6142 72.574 -167
      vertex 36.3858 72.574 -167
      vertex 36.4712 72.2926 -167
    endloop
  endfacet
  facet normal 0 0 1
    outer loop
      vertex 48.7528 72.8334 -167
      vertex 36.2472 72.8334 -167
      vertex 36.3858 72.574 -167
    endloop
  endfacet
  facet normal 0 0 1
    outer loop
      vertex 48.9393 73.0607 -167
      vertex 36.0607 73.0607 -167
      vertex 36.2472 72.8334 -167
    endloop
  endfacet
  facet normal 0 0 1
    outer loop
      vertex 49.1666 73.2472 -167
      vertex 35.8334 73.2472 -167
      vertex 36.0607 73.0607 -167
    endloop
  endfacet
  facet normal 0 0 1
    outer loop
      vertex 49.426 73.3858 -167
      vertex 35.574 73.3858 -167
      vertex 35.8334 73.2472 -167
    endloop
  endfacet
  facet normal 0 0 1
    outer loop
      vertex 49.7074 73.4712 -167
      vertex 35.2926 73.4712 -167
      vertex 35.574 73.3858 -167
    endloop
  endfacet
  facet normal -0 0 1
    outer loop
      vertex 20 78 -167
      vertex 35.2926 73.4712 -167
      vertex 65 78 -167
    endloop
  endfacet
  facet normal 0 0 1
    outer loop
      vertex 35.2926 73.4712 -167
      vertex 20 78 -167
      vertex 35 73.5 -167
    endloop
  endfacet
  facet normal 0 0 1
    outer loop
      vertex 33.5288 72.2926 -167
      vertex 26.5 72 -167
      vertex 33.5 72 -167
    endloop
  endfacet
  facet normal 0 0 1
    outer loop
      vertex 26.4712 72.2926 -167
      vertex 33.5288 72.2926 -167
      vertex 33.6142 72.574 -167
    endloop
  endfacet
  facet normal 0 0 1
    outer loop
      vertex 26.3858 72.574 -167
      vertex 33.6142 72.574 -167
      vertex 33.7528 72.8334 -167
    endloop
  endfacet
  facet normal 0 0 1
    outer loop
      vertex 26.2472 72.8334 -167
      vertex 33.7528 72.8334 -167
      vertex 33.9393 73.0607 -167
    endloop
  endfacet
  facet normal 0 0 1
    outer loop
      vertex 26.0607 73.0607 -167
      vertex 33.9393 73.0607 -167
      vertex 34.1666 73.2472 -167
    endloop
  endfacet
  facet normal 0 0 1
    outer loop
      vertex 25.8334 73.2472 -167
      vertex 34.1666 73.2472 -167
      vertex 34.426 73.3858 -167
    endloop
  endfacet
  facet normal 0 0 1
    outer loop
      vertex 20 78 -167
      vertex 34.426 73.3858 -167
      vertex 34.7074 73.4712 -167
    endloop
  endfacet
  facet normal 0 0 1
    outer loop
      vertex 33.5288 72.2926 -167
      vertex 26.4712 72.2926 -167
      vertex 26.5 72 -167
    endloop
  endfacet
  facet normal 0 0 1
    outer loop
      vertex 35 73.5 -167
      vertex 20 78 -167
      vertex 34.7074 73.4712 -167
    endloop
  endfacet
  facet normal 0 0 1
    outer loop
      vertex 33.6142 72.574 -167
      vertex 26.3858 72.574 -167
      vertex 26.4712 72.2926 -167
    endloop
  endfacet
  facet normal 0 0 1
    outer loop
      vertex 33.7528 72.8334 -167
      vertex 26.2472 72.8334 -167
      vertex 26.3858 72.574 -167
    endloop
  endfacet
  facet normal 0 0 1
    outer loop
      vertex 33.9393 73.0607 -167
      vertex 26.0607 73.0607 -167
      vertex 26.2472 72.8334 -167
    endloop
  endfacet
  facet normal 0 0 1
    outer loop
      vertex 34.1666 73.2472 -167
      vertex 25.8334 73.2472 -167
      vertex 26.0607 73.0607 -167
    endloop
  endfacet
  facet normal 0 0 1
    outer loop
      vertex 34.426 73.3858 -167
      vertex 20 78 -167
      vertex 25.574 73.3858 -167
    endloop
  endfacet
  facet normal 0 0 1
    outer loop
      vertex 34.426 73.3858 -167
      vertex 25.574 73.3858 -167
      vertex 25.8334 73.2472 -167
    endloop
  endfacet
  facet normal 0 0 1
    outer loop
      vertex 25.574 73.3858 -167
      vertex 20 78 -167
      vertex 25.2926 73.4712 -167
    endloop
  endfacet
  facet normal 0 0 1
    outer loop
      vertex 25.2926 73.4712 -167
      vertex 20 78 -167
      vertex 25 73.5 -167
    endloop
  endfacet
  facet normal 0 0 1
    outer loop
      vertex 20 68 -167
      vertex 23.5288 72.2926 -167
      vertex 20 78 -167
    endloop
  endfacet
  facet normal 0 0 1
    outer loop
      vertex 23.6142 72.574 -167
      vertex 20 78 -167
      vertex 23.5288 72.2926 -167
    endloop
  endfacet
  facet normal 0 0 1
    outer loop
      vertex 23.7528 72.8334 -167
      vertex 20 78 -167
      vertex 23.6142 72.574 -167
    endloop
  endfacet
  facet normal 0 0 1
    outer loop
      vertex 23.9393 73.0607 -167
      vertex 20 78 -167
      vertex 23.7528 72.8334 -167
    endloop
  endfacet
  facet normal 0 0 1
    outer loop
      vertex 24.1666 73.2472 -167
      vertex 20 78 -167
      vertex 23.9393 73.0607 -167
    endloop
  endfacet
  facet normal 0 0 1
    outer loop
      vertex 24.426 73.3858 -167
      vertex 20 78 -167
      vertex 24.1666 73.2472 -167
    endloop
  endfacet
  facet normal 0 0 1
    outer loop
      vertex 24.7074 73.4712 -167
      vertex 20 78 -167
      vertex 24.426 73.3858 -167
    endloop
  endfacet
  facet normal 0 0 1
    outer loop
      vertex 25 73.5 -167
      vertex 20 78 -167
      vertex 24.7074 73.4712 -167
    endloop
  endfacet
  facet normal -0 0 1
    outer loop
      vertex 61.4712 71.7074 -167
      vertex 65 68 -167
      vertex 61.5 72 -167
    endloop
  endfacet
  facet normal -0 0 1
    outer loop
      vertex 61.3858 71.426 -167
      vertex 65 68 -167
      vertex 61.4712 71.7074 -167
    endloop
  endfacet
  facet normal -0 0 1
    outer loop
      vertex 61.2472 71.1666 -167
      vertex 65 68 -167
      vertex 61.3858 71.426 -167
    endloop
  endfacet
  facet normal -0 0 1
    outer loop
      vertex 61.0607 70.9393 -167
      vertex 65 68 -167
      vertex 61.2472 71.1666 -167
    endloop
  endfacet
  facet normal -0 0 1
    outer loop
      vertex 60.8334 70.7528 -167
      vertex 65 68 -167
      vertex 61.0607 70.9393 -167
    endloop
  endfacet
  facet normal -0 0 1
    outer loop
      vertex 60.574 70.6142 -167
      vertex 65 68 -167
      vertex 60.8334 70.7528 -167
    endloop
  endfacet
  facet normal -0 0 1
    outer loop
      vertex 60.2926 70.5288 -167
      vertex 65 68 -167
      vertex 60.574 70.6142 -167
    endloop
  endfacet
  facet normal -0 0 1
    outer loop
      vertex 60 70.5 -167
      vertex 65 68 -167
      vertex 60.2926 70.5288 -167
    endloop
  endfacet
  facet normal 0 0 1
    outer loop
      vertex 59.7074 70.5288 -167
      vertex 65 68 -167
      vertex 60 70.5 -167
    endloop
  endfacet
  facet normal 0 0 1
    outer loop
      vertex 50.2926 70.5288 -167
      vertex 59.7074 70.5288 -167
      vertex 59.426 70.6142 -167
    endloop
  endfacet
  facet normal -0 0 1
    outer loop
      vertex 51.5 72 -167
      vertex 58.5288 71.7074 -167
      vertex 58.5 72 -167
    endloop
  endfacet
  facet normal 0 0 1
    outer loop
      vertex 51.4712 71.7074 -167
      vertex 58.5288 71.7074 -167
      vertex 51.5 72 -167
    endloop
  endfacet
  facet normal 0 0 1
    outer loop
      vertex 58.5288 71.7074 -167
      vertex 51.4712 71.7074 -167
      vertex 58.6142 71.426 -167
    endloop
  endfacet
  facet normal 0 0 1
    outer loop
      vertex 51.3858 71.426 -167
      vertex 58.6142 71.426 -167
      vertex 51.4712 71.7074 -167
    endloop
  endfacet
  facet normal 0 0 1
    outer loop
      vertex 58.6142 71.426 -167
      vertex 51.3858 71.426 -167
      vertex 58.7528 71.1666 -167
    endloop
  endfacet
  facet normal 0 0 1
    outer loop
      vertex 51.2472 71.1666 -167
      vertex 58.7528 71.1666 -167
      vertex 51.3858 71.426 -167
    endloop
  endfacet
  facet normal 0 0 1
    outer loop
      vertex 58.7528 71.1666 -167
      vertex 51.2472 71.1666 -167
      vertex 58.9393 70.9393 -167
    endloop
  endfacet
  facet normal 0 0 1
    outer loop
      vertex 51.0607 70.9393 -167
      vertex 58.9393 70.9393 -167
      vertex 51.2472 71.1666 -167
    endloop
  endfacet
  facet normal 0 0 1
    outer loop
      vertex 58.9393 70.9393 -167
      vertex 51.0607 70.9393 -167
      vertex 59.1666 70.7528 -167
    endloop
  endfacet
  facet normal 0 0 1
    outer loop
      vertex 50.8334 70.7528 -167
      vertex 59.1666 70.7528 -167
      vertex 51.0607 70.9393 -167
    endloop
  endfacet
  facet normal 0 0 1
    outer loop
      vertex 59.1666 70.7528 -167
      vertex 50.8334 70.7528 -167
      vertex 59.426 70.6142 -167
    endloop
  endfacet
  facet normal 0 0 1
    outer loop
      vertex 50.574 70.6142 -167
      vertex 59.426 70.6142 -167
      vertex 50.8334 70.7528 -167
    endloop
  endfacet
  facet normal 0 0 1
    outer loop
      vertex 50.2926 70.5288 -167
      vertex 59.426 70.6142 -167
      vertex 50.574 70.6142 -167
    endloop
  endfacet
  facet normal 0 0 1
    outer loop
      vertex 59.7074 70.5288 -167
      vertex 50.2926 70.5288 -167
      vertex 65 68 -167
    endloop
  endfacet
  facet normal -0 0 1
    outer loop
      vertex 50 70.5 -167
      vertex 65 68 -167
      vertex 50.2926 70.5288 -167
    endloop
  endfacet
  facet normal 0 0 1
    outer loop
      vertex 35 70.5 -167
      vertex 50 70.5 -167
      vertex 49.7074 70.5288 -167
    endloop
  endfacet
  facet normal -0 0 1
    outer loop
      vertex 36.5 72 -167
      vertex 48.5288 71.7074 -167
      vertex 48.5 72 -167
    endloop
  endfacet
  facet normal 0 0 1
    outer loop
      vertex 36.4712 71.7074 -167
      vertex 48.5288 71.7074 -167
      vertex 36.5 72 -167
    endloop
  endfacet
  facet normal 0 0 1
    outer loop
      vertex 48.5288 71.7074 -167
      vertex 36.4712 71.7074 -167
      vertex 48.6142 71.426 -167
    endloop
  endfacet
  facet normal 0 0 1
    outer loop
      vertex 36.3858 71.426 -167
      vertex 48.6142 71.426 -167
      vertex 36.4712 71.7074 -167
    endloop
  endfacet
  facet normal 0 0 1
    outer loop
      vertex 48.6142 71.426 -167
      vertex 36.3858 71.426 -167
      vertex 48.7528 71.1666 -167
    endloop
  endfacet
  facet normal 0 0 1
    outer loop
      vertex 36.2472 71.1666 -167
      vertex 48.7528 71.1666 -167
      vertex 36.3858 71.426 -167
    endloop
  endfacet
  facet normal 0 0 1
    outer loop
      vertex 48.7528 71.1666 -167
      vertex 36.2472 71.1666 -167
      vertex 48.9393 70.9393 -167
    endloop
  endfacet
  facet normal 0 0 1
    outer loop
      vertex 36.0607 70.9393 -167
      vertex 48.9393 70.9393 -167
      vertex 36.2472 71.1666 -167
    endloop
  endfacet
  facet normal 0 0 1
    outer loop
      vertex 48.9393 70.9393 -167
      vertex 36.0607 70.9393 -167
      vertex 49.1666 70.7528 -167
    endloop
  endfacet
  facet normal 0 0 1
    outer loop
      vertex 35.8334 70.7528 -167
      vertex 49.1666 70.7528 -167
      vertex 36.0607 70.9393 -167
    endloop
  endfacet
  facet normal 0 0 1
    outer loop
      vertex 49.1666 70.7528 -167
      vertex 35.8334 70.7528 -167
      vertex 49.426 70.6142 -167
    endloop
  endfacet
  facet normal 0 0 1
    outer loop
      vertex 35.574 70.6142 -167
      vertex 49.426 70.6142 -167
      vertex 35.8334 70.7528 -167
    endloop
  endfacet
  facet normal 0 0 1
    outer loop
      vertex 49.426 70.6142 -167
      vertex 35.574 70.6142 -167
      vertex 49.7074 70.5288 -167
    endloop
  endfacet
  facet normal 0 0 1
    outer loop
      vertex 35.2926 70.5288 -167
      vertex 49.7074 70.5288 -167
      vertex 35.574 70.6142 -167
    endloop
  endfacet
  facet normal 0 0 1
    outer loop
      vertex 35 70.5 -167
      vertex 49.7074 70.5288 -167
      vertex 35.2926 70.5288 -167
    endloop
  endfacet
  facet normal 0 0 1
    outer loop
      vertex 50 70.5 -167
      vertex 35 70.5 -167
      vertex 65 68 -167
    endloop
  endfacet
  facet normal -0 0 1
    outer loop
      vertex 26.5 72 -167
      vertex 33.5288 71.7074 -167
      vertex 33.5 72 -167
    endloop
  endfacet
  facet normal 0 0 1
    outer loop
      vertex 26.4712 71.7074 -167
      vertex 33.5288 71.7074 -167
      vertex 26.5 72 -167
    endloop
  endfacet
  facet normal 0 0 1
    outer loop
      vertex 33.5288 71.7074 -167
      vertex 26.4712 71.7074 -167
      vertex 33.6142 71.426 -167
    endloop
  endfacet
  facet normal 0 0 1
    outer loop
      vertex 26.3858 71.426 -167
      vertex 33.6142 71.426 -167
      vertex 26.4712 71.7074 -167
    endloop
  endfacet
  facet normal 0 0 1
    outer loop
      vertex 33.6142 71.426 -167
      vertex 26.3858 71.426 -167
      vertex 33.7528 71.1666 -167
    endloop
  endfacet
  facet normal 0 0 1
    outer loop
      vertex 26.2472 71.1666 -167
      vertex 33.7528 71.1666 -167
      vertex 26.3858 71.426 -167
    endloop
  endfacet
  facet normal 0 0 1
    outer loop
      vertex 33.7528 71.1666 -167
      vertex 26.2472 71.1666 -167
      vertex 33.9393 70.9393 -167
    endloop
  endfacet
  facet normal 0 0 1
    outer loop
      vertex 26.0607 70.9393 -167
      vertex 33.9393 70.9393 -167
      vertex 26.2472 71.1666 -167
    endloop
  endfacet
  facet normal 0 0 1
    outer loop
      vertex 33.9393 70.9393 -167
      vertex 26.0607 70.9393 -167
      vertex 34.1666 70.7528 -167
    endloop
  endfacet
  facet normal 0 0 1
    outer loop
      vertex 25.8334 70.7528 -167
      vertex 34.1666 70.7528 -167
      vertex 26.0607 70.9393 -167
    endloop
  endfacet
  facet normal 0 0 1
    outer loop
      vertex 34.1666 70.7528 -167
      vertex 25.8334 70.7528 -167
      vertex 34.426 70.6142 -167
    endloop
  endfacet
  facet normal 0 0 1
    outer loop
      vertex 25.574 70.6142 -167
      vertex 34.426 70.6142 -167
      vertex 25.8334 70.7528 -167
    endloop
  endfacet
  facet normal 0 0 1
    outer loop
      vertex 34.426 70.6142 -167
      vertex 25.574 70.6142 -167
      vertex 34.7074 70.5288 -167
    endloop
  endfacet
  facet normal 0 0 1
    outer loop
      vertex 25.2926 70.5288 -167
      vertex 34.7074 70.5288 -167
      vertex 25.574 70.6142 -167
    endloop
  endfacet
  facet normal 0 0 1
    outer loop
      vertex 20 68 -167
      vertex 34.7074 70.5288 -167
      vertex 25.2926 70.5288 -167
    endloop
  endfacet
  facet normal 0 0 1
    outer loop
      vertex 34.7074 70.5288 -167
      vertex 20 68 -167
      vertex 35 70.5 -167
    endloop
  endfacet
  facet normal 0 0 1
    outer loop
      vertex 20 68 -167
      vertex 25.2926 70.5288 -167
      vertex 25 70.5 -167
    endloop
  endfacet
  facet normal 0 0 1
    outer loop
      vertex 23.5288 72.2926 -167
      vertex 20 68 -167
      vertex 23.5 72 -167
    endloop
  endfacet
  facet normal 0 0 1
    outer loop
      vertex 23.5 72 -167
      vertex 20 68 -167
      vertex 23.5288 71.7074 -167
    endloop
  endfacet
  facet normal 0 0 1
    outer loop
      vertex 23.5288 71.7074 -167
      vertex 20 68 -167
      vertex 23.6142 71.426 -167
    endloop
  endfacet
  facet normal 0 0 1
    outer loop
      vertex 35 70.5 -167
      vertex 20 68 -167
      vertex 65 68 -167
    endloop
  endfacet
  facet normal 0 0 1
    outer loop
      vertex 24.7074 70.5288 -167
      vertex 20 68 -167
      vertex 25 70.5 -167
    endloop
  endfacet
  facet normal 0 0 1
    outer loop
      vertex 24.426 70.6142 -167
      vertex 20 68 -167
      vertex 24.7074 70.5288 -167
    endloop
  endfacet
  facet normal 0 0 1
    outer loop
      vertex 24.1666 70.7528 -167
      vertex 20 68 -167
      vertex 24.426 70.6142 -167
    endloop
  endfacet
  facet normal 0 0 1
    outer loop
      vertex 23.9393 70.9393 -167
      vertex 20 68 -167
      vertex 24.1666 70.7528 -167
    endloop
  endfacet
  facet normal 0 0 1
    outer loop
      vertex 23.7528 71.1666 -167
      vertex 20 68 -167
      vertex 23.9393 70.9393 -167
    endloop
  endfacet
  facet normal 0 0 1
    outer loop
      vertex 23.6142 71.426 -167
      vertex 20 68 -167
      vertex 23.7528 71.1666 -167
    endloop
  endfacet
  facet normal 0 -1 0
    outer loop
      vertex 20 64 -164
      vertex 42.5 64 -165.5
      vertex 65 64 -164
    endloop
  endfacet
  facet normal 0 -1 0
    outer loop
      vertex 20 64 -164
      vertex 40.5589 64 -165.756
      vertex 42.5 64 -165.5
    endloop
  endfacet
  facet normal 0 -1 0
    outer loop
      vertex 20 64 -164
      vertex 38.75 64 -166.505
      vertex 40.5589 64 -165.756
    endloop
  endfacet
  facet normal 0 -1 0
    outer loop
      vertex 20 64 -164
      vertex 37.1967 64 -167.697
      vertex 38.75 64 -166.505
    endloop
  endfacet
  facet normal 0 -1 0
    outer loop
      vertex 20 64 -164
      vertex 36.0048 64 -169.25
      vertex 37.1967 64 -167.697
    endloop
  endfacet
  facet normal 0 -1 0
    outer loop
      vertex 35.6941 64 -170
      vertex 20 64 -164
      vertex 20 64 -170
    endloop
  endfacet
  facet normal 0 -1 0
    outer loop
      vertex 20 64 -164
      vertex 35.6941 64 -170
      vertex 36.0048 64 -169.25
    endloop
  endfacet
  facet normal 0 -1 0
    outer loop
      vertex 44.4411 64 -165.756
      vertex 65 64 -164
      vertex 42.5 64 -165.5
    endloop
  endfacet
  facet normal 0 -1 0
    outer loop
      vertex 46.25 64 -166.505
      vertex 65 64 -164
      vertex 44.4411 64 -165.756
    endloop
  endfacet
  facet normal 0 -1 0
    outer loop
      vertex 47.8033 64 -167.697
      vertex 65 64 -164
      vertex 46.25 64 -166.505
    endloop
  endfacet
  facet normal 0 -1 0
    outer loop
      vertex 48.9952 64 -169.25
      vertex 65 64 -164
      vertex 47.8033 64 -167.697
    endloop
  endfacet
  facet normal 0 -1 0
    outer loop
      vertex 49.3059 64 -170
      vertex 65 64 -164
      vertex 48.9952 64 -169.25
    endloop
  endfacet
  facet normal 0 -1 -0
    outer loop
      vertex 65 64 -164
      vertex 49.3059 64 -170
      vertex 65 64 -170
    endloop
  endfacet
  facet normal 0 0 -1
    outer loop
      vertex 25.8334 70.7528 -170
      vertex 35.6941 67 -170
      vertex 35.6941 64 -170
    endloop
  endfacet
  facet normal 0 0 -1
    outer loop
      vertex 35.6941 67 -170
      vertex 35.2926 70.5288 -170
      vertex 35.574 70.6142 -170
    endloop
  endfacet
  facet normal 0 0 -1
    outer loop
      vertex 35.6941 67 -170
      vertex 35 70.5 -170
      vertex 35.2926 70.5288 -170
    endloop
  endfacet
  facet normal 0 0 -1
    outer loop
      vertex 35.6941 67 -170
      vertex 34.7074 70.5288 -170
      vertex 35 70.5 -170
    endloop
  endfacet
  facet normal 0 0 -1
    outer loop
      vertex 35.6941 67 -170
      vertex 34.426 70.6142 -170
      vertex 34.7074 70.5288 -170
    endloop
  endfacet
  facet normal 0 0 -1
    outer loop
      vertex 35.6941 67 -170
      vertex 34.1666 70.7528 -170
      vertex 34.426 70.6142 -170
    endloop
  endfacet
  facet normal 0 0 -1
    outer loop
      vertex 35.6941 67 -170
      vertex 33.9393 70.9393 -170
      vertex 34.1666 70.7528 -170
    endloop
  endfacet
  facet normal 0 0 -1
    outer loop
      vertex 35.6941 67 -170
      vertex 26.0607 70.9393 -170
      vertex 33.9393 70.9393 -170
    endloop
  endfacet
  facet normal 0 0 -1
    outer loop
      vertex 33.9393 70.9393 -170
      vertex 26.0607 70.9393 -170
      vertex 33.7528 71.1666 -170
    endloop
  endfacet
  facet normal 0 -0 -1
    outer loop
      vertex 26.2472 71.1666 -170
      vertex 33.7528 71.1666 -170
      vertex 26.0607 70.9393 -170
    endloop
  endfacet
  facet normal 0 0 -1
    outer loop
      vertex 33.5288 71.7074 -170
      vertex 26.5 72 -170
      vertex 33.5 72 -170
    endloop
  endfacet
  facet normal 0 0 -1
    outer loop
      vertex 33.7528 71.1666 -170
      vertex 26.2472 71.1666 -170
      vertex 33.6142 71.426 -170
    endloop
  endfacet
  facet normal 0 0 -1
    outer loop
      vertex 33.5288 71.7074 -170
      vertex 26.4712 71.7074 -170
      vertex 26.5 72 -170
    endloop
  endfacet
  facet normal -0 0 -1
    outer loop
      vertex 33.5288 71.7074 -170
      vertex 26.3858 71.426 -170
      vertex 26.4712 71.7074 -170
    endloop
  endfacet
  facet normal 0 0 -1
    outer loop
      vertex 33.6142 71.426 -170
      vertex 26.3858 71.426 -170
      vertex 33.5288 71.7074 -170
    endloop
  endfacet
  facet normal 0 -0 -1
    outer loop
      vertex 26.3858 71.426 -170
      vertex 33.6142 71.426 -170
      vertex 26.2472 71.1666 -170
    endloop
  endfacet
  facet normal 0 0 -1
    outer loop
      vertex 35.6941 67 -170
      vertex 25.8334 70.7528 -170
      vertex 26.0607 70.9393 -170
    endloop
  endfacet
  facet normal 0 0 -1
    outer loop
      vertex 35.6941 64 -170
      vertex 25.574 70.6142 -170
      vertex 25.8334 70.7528 -170
    endloop
  endfacet
  facet normal 0 0 -1
    outer loop
      vertex 20 64 -170
      vertex 25.574 70.6142 -170
      vertex 35.6941 64 -170
    endloop
  endfacet
  facet normal 0 0 -1
    outer loop
      vertex 25.574 70.6142 -170
      vertex 20 64 -170
      vertex 25.2926 70.5288 -170
    endloop
  endfacet
  facet normal 0 0 -1
    outer loop
      vertex 25.2926 70.5288 -170
      vertex 20 64 -170
      vertex 25 70.5 -170
    endloop
  endfacet
  facet normal -0 0 -1
    outer loop
      vertex 25 70.5 -170
      vertex 20 64 -170
      vertex 24.7074 70.5288 -170
    endloop
  endfacet
  facet normal -0 0 -1
    outer loop
      vertex 24.7074 70.5288 -170
      vertex 20 64 -170
      vertex 24.426 70.6142 -170
    endloop
  endfacet
  facet normal -0 0 -1
    outer loop
      vertex 23.5288 71.7074 -170
      vertex 20 64 -170
      vertex 23.5 72 -170
    endloop
  endfacet
  facet normal -0 0 -1
    outer loop
      vertex 23.6142 71.426 -170
      vertex 20 64 -170
      vertex 23.5288 71.7074 -170
    endloop
  endfacet
  facet normal -0 0 -1
    outer loop
      vertex 23.7528 71.1666 -170
      vertex 20 64 -170
      vertex 23.6142 71.426 -170
    endloop
  endfacet
  facet normal -0 0 -1
    outer loop
      vertex 23.9393 70.9393 -170
      vertex 20 64 -170
      vertex 23.7528 71.1666 -170
    endloop
  endfacet
  facet normal -0 0 -1
    outer loop
      vertex 24.1666 70.7528 -170
      vertex 20 64 -170
      vertex 23.9393 70.9393 -170
    endloop
  endfacet
  facet normal -0 0 -1
    outer loop
      vertex 24.426 70.6142 -170
      vertex 20 64 -170
      vertex 24.1666 70.7528 -170
    endloop
  endfacet
  facet normal 0 0 -1
    outer loop
      vertex 65 64 -170
      vertex 61.5 72 -170
      vertex 65 78 -170
    endloop
  endfacet
  facet normal 0 0 -1
    outer loop
      vertex 65 64 -170
      vertex 61.4712 71.7074 -170
      vertex 61.5 72 -170
    endloop
  endfacet
  facet normal 0 0 -1
    outer loop
      vertex 65 64 -170
      vertex 61.3858 71.426 -170
      vertex 61.4712 71.7074 -170
    endloop
  endfacet
  facet normal 0 0 -1
    outer loop
      vertex 65 64 -170
      vertex 61.2472 71.1666 -170
      vertex 61.3858 71.426 -170
    endloop
  endfacet
  facet normal 0 0 -1
    outer loop
      vertex 65 64 -170
      vertex 61.0607 70.9393 -170
      vertex 61.2472 71.1666 -170
    endloop
  endfacet
  facet normal 0 0 -1
    outer loop
      vertex 65 64 -170
      vertex 60.8334 70.7528 -170
      vertex 61.0607 70.9393 -170
    endloop
  endfacet
  facet normal 0 0 -1
    outer loop
      vertex 65 64 -170
      vertex 60.574 70.6142 -170
      vertex 60.8334 70.7528 -170
    endloop
  endfacet
  facet normal 0 0 -1
    outer loop
      vertex 65 64 -170
      vertex 60.2926 70.5288 -170
      vertex 60.574 70.6142 -170
    endloop
  endfacet
  facet normal 0 0 -1
    outer loop
      vertex 65 64 -170
      vertex 60 70.5 -170
      vertex 60.2926 70.5288 -170
    endloop
  endfacet
  facet normal 0 0 -1
    outer loop
      vertex 65 64 -170
      vertex 59.7074 70.5288 -170
      vertex 60 70.5 -170
    endloop
  endfacet
  facet normal 0 0 -1
    outer loop
      vertex 65 64 -170
      vertex 59.426 70.6142 -170
      vertex 59.7074 70.5288 -170
    endloop
  endfacet
  facet normal 0 0 -1
    outer loop
      vertex 49.3059 64 -170
      vertex 59.426 70.6142 -170
      vertex 65 64 -170
    endloop
  endfacet
  facet normal -0 0 -1
    outer loop
      vertex 59.426 70.6142 -170
      vertex 49.3059 64 -170
      vertex 59.1666 70.7528 -170
    endloop
  endfacet
  facet normal 0 0 -1
    outer loop
      vertex 58.5288 71.7074 -170
      vertex 51.5 72 -170
      vertex 58.5 72 -170
    endloop
  endfacet
  facet normal 0 0 -1
    outer loop
      vertex 51.4712 71.7074 -170
      vertex 58.5288 71.7074 -170
      vertex 58.6142 71.426 -170
    endloop
  endfacet
  facet normal 0 0 -1
    outer loop
      vertex 51.3858 71.426 -170
      vertex 58.6142 71.426 -170
      vertex 58.7528 71.1666 -170
    endloop
  endfacet
  facet normal 0 0 -1
    outer loop
      vertex 51.2472 71.1666 -170
      vertex 58.7528 71.1666 -170
      vertex 58.9393 70.9393 -170
    endloop
  endfacet
  facet normal 0 0 -1
    outer loop
      vertex 49.3059 67 -170
      vertex 59.1666 70.7528 -170
      vertex 49.3059 64 -170
    endloop
  endfacet
  facet normal 0 0 -1
    outer loop
      vertex 58.5288 71.7074 -170
      vertex 51.4712 71.7074 -170
      vertex 51.5 72 -170
    endloop
  endfacet
  facet normal 0 0 -1
    outer loop
      vertex 58.6142 71.426 -170
      vertex 51.3858 71.426 -170
      vertex 51.4712 71.7074 -170
    endloop
  endfacet
  facet normal 0 0 -1
    outer loop
      vertex 58.7528 71.1666 -170
      vertex 51.2472 71.1666 -170
      vertex 51.3858 71.426 -170
    endloop
  endfacet
  facet normal 0 0 -1
    outer loop
      vertex 58.9393 70.9393 -170
      vertex 51.0607 70.9393 -170
      vertex 51.2472 71.1666 -170
    endloop
  endfacet
  facet normal -0 0 -1
    outer loop
      vertex 58.9393 70.9393 -170
      vertex 49.3059 67 -170
      vertex 51.0607 70.9393 -170
    endloop
  endfacet
  facet normal 0 0 -1
    outer loop
      vertex 51.0607 70.9393 -170
      vertex 49.3059 67 -170
      vertex 50.8334 70.7528 -170
    endloop
  endfacet
  facet normal 0 0 -1
    outer loop
      vertex 50.8334 70.7528 -170
      vertex 49.3059 67 -170
      vertex 50.574 70.6142 -170
    endloop
  endfacet
  facet normal 0 0 -1
    outer loop
      vertex 50.574 70.6142 -170
      vertex 49.3059 67 -170
      vertex 50.2926 70.5288 -170
    endloop
  endfacet
  facet normal 0 0 -1
    outer loop
      vertex 50.2926 70.5288 -170
      vertex 49.3059 67 -170
      vertex 50 70.5 -170
    endloop
  endfacet
  facet normal -0 0 -1
    outer loop
      vertex 50 70.5 -170
      vertex 49.3059 67 -170
      vertex 49.7074 70.5288 -170
    endloop
  endfacet
  facet normal -0 0 -1
    outer loop
      vertex 59.1666 70.7528 -170
      vertex 49.3059 67 -170
      vertex 58.9393 70.9393 -170
    endloop
  endfacet
  facet normal -0 0 -1
    outer loop
      vertex 49.7074 70.5288 -170
      vertex 49.3059 67 -170
      vertex 49.426 70.6142 -170
    endloop
  endfacet
  facet normal 0 0 -1
    outer loop
      vertex 49.3059 67 -170
      vertex 49.1666 70.7528 -170
      vertex 49.426 70.6142 -170
    endloop
  endfacet
  facet normal 0 0 -1
    outer loop
      vertex 49.3059 67 -170
      vertex 48.9393 70.9393 -170
      vertex 49.1666 70.7528 -170
    endloop
  endfacet
  facet normal 0 0 -1
    outer loop
      vertex 49.3059 67 -170
      vertex 48.7528 71.1666 -170
      vertex 48.9393 70.9393 -170
    endloop
  endfacet
  facet normal 0 0 -1
    outer loop
      vertex 49.3059 67 -170
      vertex 48.6142 71.426 -170
      vertex 48.7528 71.1666 -170
    endloop
  endfacet
  facet normal 0 0 -1
    outer loop
      vertex 36.3858 71.426 -170
      vertex 48.6142 71.426 -170
      vertex 49.3059 67 -170
    endloop
  endfacet
  facet normal 0 0 -1
    outer loop
      vertex 48.5288 71.7074 -170
      vertex 36.5 72 -170
      vertex 48.5 72 -170
    endloop
  endfacet
  facet normal 0 0 -1
    outer loop
      vertex 48.6142 71.426 -170
      vertex 36.3858 71.426 -170
      vertex 48.5288 71.7074 -170
    endloop
  endfacet
  facet normal 0 0 -1
    outer loop
      vertex 48.5288 71.7074 -170
      vertex 36.4712 71.7074 -170
      vertex 36.5 72 -170
    endloop
  endfacet
  facet normal -0 0 -1
    outer loop
      vertex 48.5288 71.7074 -170
      vertex 36.3858 71.426 -170
      vertex 36.4712 71.7074 -170
    endloop
  endfacet
  facet normal 0 0 -1
    outer loop
      vertex 35.6941 67 -170
      vertex 36.3858 71.426 -170
      vertex 49.3059 67 -170
    endloop
  endfacet
  facet normal 0 0 -1
    outer loop
      vertex 36.3858 71.426 -170
      vertex 35.6941 67 -170
      vertex 36.2472 71.1666 -170
    endloop
  endfacet
  facet normal 0 0 -1
    outer loop
      vertex 36.2472 71.1666 -170
      vertex 35.6941 67 -170
      vertex 36.0607 70.9393 -170
    endloop
  endfacet
  facet normal 0 0 -1
    outer loop
      vertex 36.0607 70.9393 -170
      vertex 35.6941 67 -170
      vertex 35.8334 70.7528 -170
    endloop
  endfacet
  facet normal 0 0 -1
    outer loop
      vertex 35.8334 70.7528 -170
      vertex 35.6941 67 -170
      vertex 35.574 70.6142 -170
    endloop
  endfacet
  facet normal 0 0 -1
    outer loop
      vertex 61.4712 72.2926 -170
      vertex 65 78 -170
      vertex 61.5 72 -170
    endloop
  endfacet
  facet normal 0 0 -1
    outer loop
      vertex 61.3858 72.574 -170
      vertex 65 78 -170
      vertex 61.4712 72.2926 -170
    endloop
  endfacet
  facet normal 0 0 -1
    outer loop
      vertex 61.2472 72.8334 -170
      vertex 65 78 -170
      vertex 61.3858 72.574 -170
    endloop
  endfacet
  facet normal 0 0 -1
    outer loop
      vertex 61.0607 73.0607 -170
      vertex 65 78 -170
      vertex 61.2472 72.8334 -170
    endloop
  endfacet
  facet normal 0 0 -1
    outer loop
      vertex 60.8334 73.2472 -170
      vertex 65 78 -170
      vertex 61.0607 73.0607 -170
    endloop
  endfacet
  facet normal 0 0 -1
    outer loop
      vertex 60.574 73.3858 -170
      vertex 65 78 -170
      vertex 60.8334 73.2472 -170
    endloop
  endfacet
  facet normal 0 0 -1
    outer loop
      vertex 60.2926 73.4712 -170
      vertex 65 78 -170
      vertex 60.574 73.3858 -170
    endloop
  endfacet
  facet normal 0 0 -1
    outer loop
      vertex 60 73.5 -170
      vertex 65 78 -170
      vertex 60.2926 73.4712 -170
    endloop
  endfacet
  facet normal 0 0 -1
    outer loop
      vertex 59.7074 73.4712 -170
      vertex 65 78 -170
      vertex 60 73.5 -170
    endloop
  endfacet
  facet normal 0 0 -1
    outer loop
      vertex 59.426 73.3858 -170
      vertex 65 78 -170
      vertex 59.7074 73.4712 -170
    endloop
  endfacet
  facet normal 0 0 -1
    outer loop
      vertex 50.574 73.3858 -170
      vertex 59.426 73.3858 -170
      vertex 59.1666 73.2472 -170
    endloop
  endfacet
  facet normal 0 0 -1
    outer loop
      vertex 51.5 72 -170
      vertex 58.5288 72.2926 -170
      vertex 58.5 72 -170
    endloop
  endfacet
  facet normal 0 0 -1
    outer loop
      vertex 51.4712 72.2926 -170
      vertex 58.5288 72.2926 -170
      vertex 51.5 72 -170
    endloop
  endfacet
  facet normal 0 0 -1
    outer loop
      vertex 58.5288 72.2926 -170
      vertex 51.4712 72.2926 -170
      vertex 58.6142 72.574 -170
    endloop
  endfacet
  facet normal 0 0 -1
    outer loop
      vertex 51.3858 72.574 -170
      vertex 58.6142 72.574 -170
      vertex 51.4712 72.2926 -170
    endloop
  endfacet
  facet normal 0 0 -1
    outer loop
      vertex 58.6142 72.574 -170
      vertex 51.3858 72.574 -170
      vertex 58.7528 72.8334 -170
    endloop
  endfacet
  facet normal 0 0 -1
    outer loop
      vertex 51.2472 72.8334 -170
      vertex 58.7528 72.8334 -170
      vertex 51.3858 72.574 -170
    endloop
  endfacet
  facet normal 0 0 -1
    outer loop
      vertex 58.7528 72.8334 -170
      vertex 51.2472 72.8334 -170
      vertex 58.9393 73.0607 -170
    endloop
  endfacet
  facet normal 0 0 -1
    outer loop
      vertex 51.0607 73.0607 -170
      vertex 58.9393 73.0607 -170
      vertex 51.2472 72.8334 -170
    endloop
  endfacet
  facet normal 0 0 -1
    outer loop
      vertex 58.9393 73.0607 -170
      vertex 51.0607 73.0607 -170
      vertex 59.1666 73.2472 -170
    endloop
  endfacet
  facet normal 0 0 -1
    outer loop
      vertex 50.8334 73.2472 -170
      vertex 59.1666 73.2472 -170
      vertex 51.0607 73.0607 -170
    endloop
  endfacet
  facet normal 0 0 -1
    outer loop
      vertex 50.574 73.3858 -170
      vertex 59.1666 73.2472 -170
      vertex 50.8334 73.2472 -170
    endloop
  endfacet
  facet normal 0 0 -1
    outer loop
      vertex 59.426 73.3858 -170
      vertex 50.574 73.3858 -170
      vertex 65 78 -170
    endloop
  endfacet
  facet normal 0 0 -1
    outer loop
      vertex 50.2926 73.4712 -170
      vertex 65 78 -170
      vertex 50.574 73.3858 -170
    endloop
  endfacet
  facet normal 0 0 -1
    outer loop
      vertex 50 73.5 -170
      vertex 65 78 -170
      vertex 50.2926 73.4712 -170
    endloop
  endfacet
  facet normal 0 0 -1
    outer loop
      vertex 49.7074 73.4712 -170
      vertex 65 78 -170
      vertex 50 73.5 -170
    endloop
  endfacet
  facet normal 0 0 -1
    outer loop
      vertex 36.5 72 -170
      vertex 48.5288 72.2926 -170
      vertex 48.5 72 -170
    endloop
  endfacet
  facet normal 0 0 -1
    outer loop
      vertex 36.4712 72.2926 -170
      vertex 48.5288 72.2926 -170
      vertex 36.5 72 -170
    endloop
  endfacet
  facet normal 0 0 -1
    outer loop
      vertex 48.5288 72.2926 -170
      vertex 36.4712 72.2926 -170
      vertex 48.6142 72.574 -170
    endloop
  endfacet
  facet normal 0 0 -1
    outer loop
      vertex 36.3858 72.574 -170
      vertex 48.6142 72.574 -170
      vertex 36.4712 72.2926 -170
    endloop
  endfacet
  facet normal 0 0 -1
    outer loop
      vertex 48.6142 72.574 -170
      vertex 36.3858 72.574 -170
      vertex 48.7528 72.8334 -170
    endloop
  endfacet
  facet normal 0 0 -1
    outer loop
      vertex 36.2472 72.8334 -170
      vertex 48.7528 72.8334 -170
      vertex 36.3858 72.574 -170
    endloop
  endfacet
  facet normal 0 0 -1
    outer loop
      vertex 48.7528 72.8334 -170
      vertex 36.2472 72.8334 -170
      vertex 48.9393 73.0607 -170
    endloop
  endfacet
  facet normal 0 0 -1
    outer loop
      vertex 36.0607 73.0607 -170
      vertex 48.9393 73.0607 -170
      vertex 36.2472 72.8334 -170
    endloop
  endfacet
  facet normal 0 0 -1
    outer loop
      vertex 48.9393 73.0607 -170
      vertex 36.0607 73.0607 -170
      vertex 49.1666 73.2472 -170
    endloop
  endfacet
  facet normal 0 0 -1
    outer loop
      vertex 35.8334 73.2472 -170
      vertex 49.1666 73.2472 -170
      vertex 36.0607 73.0607 -170
    endloop
  endfacet
  facet normal 0 0 -1
    outer loop
      vertex 49.1666 73.2472 -170
      vertex 35.8334 73.2472 -170
      vertex 49.426 73.3858 -170
    endloop
  endfacet
  facet normal 0 0 -1
    outer loop
      vertex 35.574 73.3858 -170
      vertex 49.426 73.3858 -170
      vertex 35.8334 73.2472 -170
    endloop
  endfacet
  facet normal 0 0 -1
    outer loop
      vertex 49.426 73.3858 -170
      vertex 35.574 73.3858 -170
      vertex 49.7074 73.4712 -170
    endloop
  endfacet
  facet normal 0 0 -1
    outer loop
      vertex 35.2926 73.4712 -170
      vertex 49.7074 73.4712 -170
      vertex 35.574 73.3858 -170
    endloop
  endfacet
  facet normal 0 0 -1
    outer loop
      vertex 49.7074 73.4712 -170
      vertex 35.2926 73.4712 -170
      vertex 65 78 -170
    endloop
  endfacet
  facet normal 0 0 -1
    outer loop
      vertex 20 78 -170
      vertex 35.2926 73.4712 -170
      vertex 35 73.5 -170
    endloop
  endfacet
  facet normal 0 0 -1
    outer loop
      vertex 20 78 -170
      vertex 35 73.5 -170
      vertex 34.7074 73.4712 -170
    endloop
  endfacet
  facet normal 0 0 -1
    outer loop
      vertex 26.5 72 -170
      vertex 33.5288 72.2926 -170
      vertex 33.5 72 -170
    endloop
  endfacet
  facet normal 0 0 -1
    outer loop
      vertex 26.4712 72.2926 -170
      vertex 33.5288 72.2926 -170
      vertex 26.5 72 -170
    endloop
  endfacet
  facet normal 0 0 -1
    outer loop
      vertex 33.5288 72.2926 -170
      vertex 26.4712 72.2926 -170
      vertex 33.6142 72.574 -170
    endloop
  endfacet
  facet normal 0 0 -1
    outer loop
      vertex 26.3858 72.574 -170
      vertex 33.6142 72.574 -170
      vertex 26.4712 72.2926 -170
    endloop
  endfacet
  facet normal 0 0 -1
    outer loop
      vertex 33.6142 72.574 -170
      vertex 26.3858 72.574 -170
      vertex 33.7528 72.8334 -170
    endloop
  endfacet
  facet normal 0 0 -1
    outer loop
      vertex 26.2472 72.8334 -170
      vertex 33.7528 72.8334 -170
      vertex 26.3858 72.574 -170
    endloop
  endfacet
  facet normal 0 0 -1
    outer loop
      vertex 33.7528 72.8334 -170
      vertex 26.2472 72.8334 -170
      vertex 33.9393 73.0607 -170
    endloop
  endfacet
  facet normal 0 0 -1
    outer loop
      vertex 26.0607 73.0607 -170
      vertex 33.9393 73.0607 -170
      vertex 26.2472 72.8334 -170
    endloop
  endfacet
  facet normal 0 0 -1
    outer loop
      vertex 33.9393 73.0607 -170
      vertex 26.0607 73.0607 -170
      vertex 34.1666 73.2472 -170
    endloop
  endfacet
  facet normal 0 0 -1
    outer loop
      vertex 25.8334 73.2472 -170
      vertex 34.1666 73.2472 -170
      vertex 26.0607 73.0607 -170
    endloop
  endfacet
  facet normal 0 0 -1
    outer loop
      vertex 34.1666 73.2472 -170
      vertex 25.8334 73.2472 -170
      vertex 34.426 73.3858 -170
    endloop
  endfacet
  facet normal 0 0 -1
    outer loop
      vertex 25.574 73.3858 -170
      vertex 34.426 73.3858 -170
      vertex 25.8334 73.2472 -170
    endloop
  endfacet
  facet normal 0 0 -1
    outer loop
      vertex 20 78 -170
      vertex 34.426 73.3858 -170
      vertex 25.574 73.3858 -170
    endloop
  endfacet
  facet normal 0 0 -1
    outer loop
      vertex 34.426 73.3858 -170
      vertex 20 78 -170
      vertex 34.7074 73.4712 -170
    endloop
  endfacet
  facet normal 0 0 -1
    outer loop
      vertex 20 78 -170
      vertex 25.574 73.3858 -170
      vertex 25.2926 73.4712 -170
    endloop
  endfacet
  facet normal 0 0 -1
    outer loop
      vertex 20 78 -170
      vertex 25.2926 73.4712 -170
      vertex 25 73.5 -170
    endloop
  endfacet
  facet normal 0 0 -1
    outer loop
      vertex 20 78 -170
      vertex 25 73.5 -170
      vertex 24.7074 73.4712 -170
    endloop
  endfacet
  facet normal 0 0 -1
    outer loop
      vertex 20 78 -170
      vertex 23.5 72 -170
      vertex 20 64 -170
    endloop
  endfacet
  facet normal 0 0 -1
    outer loop
      vertex 23.5 72 -170
      vertex 20 78 -170
      vertex 23.5288 72.2926 -170
    endloop
  endfacet
  facet normal 0 0 -1
    outer loop
      vertex 35.2926 73.4712 -170
      vertex 20 78 -170
      vertex 65 78 -170
    endloop
  endfacet
  facet normal 0 0 -1
    outer loop
      vertex 24.426 73.3858 -170
      vertex 20 78 -170
      vertex 24.7074 73.4712 -170
    endloop
  endfacet
  facet normal 0 0 -1
    outer loop
      vertex 24.1666 73.2472 -170
      vertex 20 78 -170
      vertex 24.426 73.3858 -170
    endloop
  endfacet
  facet normal 0 0 -1
    outer loop
      vertex 23.9393 73.0607 -170
      vertex 20 78 -170
      vertex 24.1666 73.2472 -170
    endloop
  endfacet
  facet normal 0 0 -1
    outer loop
      vertex 23.7528 72.8334 -170
      vertex 20 78 -170
      vertex 23.9393 73.0607 -170
    endloop
  endfacet
  facet normal 0 0 -1
    outer loop
      vertex 23.6142 72.574 -170
      vertex 20 78 -170
      vertex 23.7528 72.8334 -170
    endloop
  endfacet
  facet normal 0 0 -1
    outer loop
      vertex 23.5288 72.2926 -170
      vertex 20 78 -170
      vertex 23.6142 72.574 -170
    endloop
  endfacet
  facet normal 0 1 -0
    outer loop
      vertex 65 78 -170
      vertex 20 78 -167
      vertex 65 78 -167
    endloop
  endfacet
  facet normal 0 1 0
    outer loop
      vertex 20 78 -167
      vertex 65 78 -170
      vertex 20 78 -170
    endloop
  endfacet
  facet normal -0.923879 0 -0.382685
    outer loop
      vertex 49.3059 64 -170
      vertex 48.9952 67 -169.25
      vertex 49.3059 67 -170
    endloop
  endfacet
  facet normal -0.923879 -0 -0.382685
    outer loop
      vertex 48.9952 67 -169.25
      vertex 49.3059 64 -170
      vertex 48.9952 64 -169.25
    endloop
  endfacet
  facet normal 0.130525 0 -0.991445
    outer loop
      vertex 40.5589 64 -165.756
      vertex 42.5 67 -165.5
      vertex 42.5 64 -165.5
    endloop
  endfacet
  facet normal 0.130525 0 -0.991445
    outer loop
      vertex 42.5 67 -165.5
      vertex 40.5589 64 -165.756
      vertex 40.5589 67 -165.756
    endloop
  endfacet
  facet normal -0.608763 0 -0.793352
    outer loop
      vertex 46.25 64 -166.505
      vertex 47.8033 67 -167.697
      vertex 47.8033 64 -167.697
    endloop
  endfacet
  facet normal -0.608763 0 -0.793352
    outer loop
      vertex 47.8033 67 -167.697
      vertex 46.25 64 -166.505
      vertex 46.25 67 -166.505
    endloop
  endfacet
  facet normal 0.793354 0 -0.608761
    outer loop
      vertex 37.1967 64 -167.697
      vertex 36.0048 67 -169.25
      vertex 37.1967 67 -167.697
    endloop
  endfacet
  facet normal 0.793354 0 -0.608761
    outer loop
      vertex 36.0048 67 -169.25
      vertex 37.1967 64 -167.697
      vertex 36.0048 64 -169.25
    endloop
  endfacet
  facet normal 0.608763 0 -0.793353
    outer loop
      vertex 37.1967 64 -167.697
      vertex 38.75 67 -166.505
      vertex 38.75 64 -166.505
    endloop
  endfacet
  facet normal 0.608763 0 -0.793353
    outer loop
      vertex 38.75 67 -166.505
      vertex 37.1967 64 -167.697
      vertex 37.1967 67 -167.697
    endloop
  endfacet
  facet normal -0.793353 0 -0.608762
    outer loop
      vertex 48.9952 64 -169.25
      vertex 47.8033 67 -167.697
      vertex 48.9952 67 -169.25
    endloop
  endfacet
  facet normal -0.793353 -0 -0.608762
    outer loop
      vertex 47.8033 67 -167.697
      vertex 48.9952 64 -169.25
      vertex 47.8033 64 -167.697
    endloop
  endfacet
  facet normal -0.130525 0 -0.991445
    outer loop
      vertex 42.5 64 -165.5
      vertex 44.4411 67 -165.756
      vertex 44.4411 64 -165.756
    endloop
  endfacet
  facet normal -0.130525 0 -0.991445
    outer loop
      vertex 44.4411 67 -165.756
      vertex 42.5 64 -165.5
      vertex 42.5 67 -165.5
    endloop
  endfacet
  facet normal -0.382683 0 -0.92388
    outer loop
      vertex 44.4411 64 -165.756
      vertex 46.25 67 -166.505
      vertex 46.25 64 -166.505
    endloop
  endfacet
  facet normal -0.382683 0 -0.92388
    outer loop
      vertex 46.25 67 -166.505
      vertex 44.4411 64 -165.756
      vertex 44.4411 67 -165.756
    endloop
  endfacet
  facet normal 0.923879 0 -0.382685
    outer loop
      vertex 36.0048 64 -169.25
      vertex 35.6941 67 -170
      vertex 36.0048 67 -169.25
    endloop
  endfacet
  facet normal 0.923879 0 -0.382685
    outer loop
      vertex 35.6941 67 -170
      vertex 36.0048 64 -169.25
      vertex 35.6941 64 -170
    endloop
  endfacet
  facet normal 0 -1 0
    outer loop
      vertex 40.5589 67 -165.756
      vertex 44.4411 67 -165.756
      vertex 42.5 67 -165.5
    endloop
  endfacet
  facet normal 0 -1 0
    outer loop
      vertex 38.75 67 -166.505
      vertex 44.4411 67 -165.756
      vertex 40.5589 67 -165.756
    endloop
  endfacet
  facet normal 0 -1 0
    outer loop
      vertex 38.75 67 -166.505
      vertex 46.25 67 -166.505
      vertex 44.4411 67 -165.756
    endloop
  endfacet
  facet normal 0 -1 0
    outer loop
      vertex 35.6941 67 -170
      vertex 38.75 67 -166.505
      vertex 37.1967 67 -167.697
    endloop
  endfacet
  facet normal 0 -1 -0
    outer loop
      vertex 38.75 67 -166.505
      vertex 35.6941 67 -170
      vertex 46.25 67 -166.505
    endloop
  endfacet
  facet normal 0 -1 0
    outer loop
      vertex 35.6941 67 -170
      vertex 37.1967 67 -167.697
      vertex 36.0048 67 -169.25
    endloop
  endfacet
  facet normal 0 -1 0
    outer loop
      vertex 49.3059 67 -170
      vertex 46.25 67 -166.505
      vertex 35.6941 67 -170
    endloop
  endfacet
  facet normal 0 -1 0
    outer loop
      vertex 46.25 67 -166.505
      vertex 49.3059 67 -170
      vertex 47.8033 67 -167.697
    endloop
  endfacet
  facet normal 0 -1 0
    outer loop
      vertex 47.8033 67 -167.697
      vertex 49.3059 67 -170
      vertex 48.9952 67 -169.25
    endloop
  endfacet
  facet normal 0.382683 0 -0.92388
    outer loop
      vertex 38.75 64 -166.505
      vertex 40.5589 67 -165.756
      vertex 40.5589 64 -165.756
    endloop
  endfacet
  facet normal 0.382683 0 -0.92388
    outer loop
      vertex 40.5589 67 -165.756
      vertex 38.75 64 -166.505
      vertex 38.75 67 -166.505
    endloop
  endfacet
endsolid OpenSCAD_Model
